<?xml version="1.0" encoding="UTF-8"?>
<svg id="Layer_2" xmlns="http://www.w3.org/2000/svg" version="1.1" viewBox="0 0 341 270.1">
  <!-- Generator: Adobe Illustrator 29.1.0, SVG Export Plug-In . SVG Version: 2.1.0 Build 142)  -->
  <defs>
    <style>
      .st0 {
        stroke-width: .4px;
      }

      .st0, .st1, .st2, .st3 {
        fill: none;
        stroke-miterlimit: 10;
      }

      .st0, .st3 {
        stroke: #12505e;
      }

      .st4 {
        fill: #12505e;
      }

      .st5 {
        fill: #333;
      }

      .st5, .st6, .st7, .st8, .st9, .st10, .st11, .st12, .st3 {
        isolation: isolate;
      }

      .st5, .st11, .st12 {
        opacity: .2;
      }

      .st6 {
        fill: #181730;
        opacity: .4;
      }

      .st13 {
        fill: #f9b300;
      }

      .st14, .st8, .st12 {
        fill: #fff;
      }

      .st7 {
        opacity: .6;
      }

      .st7, .st10 {
        fill: #154d5d;
      }

      .st15 {
        fill: #346080;
      }

      .st8, .st9 {
        opacity: .3;
      }

      .st16 {
        fill: #3f719b;
      }

      .st17 {
        fill: #3a3634;
      }

      .st18 {
        fill: #629ad2;
      }

      .st9, .st11 {
        fill: #18162e;
      }

      .st10 {
        opacity: .3;
      }

      .st1 {
        stroke: #5ca7c5;
      }

      .st1, .st3 {
        stroke-linecap: round;
        stroke-width: .4px;
      }

      .st2 {
        stroke: #afafaf;
        stroke-dasharray: 2.8;
        stroke-width: 1px;
      }

      .st19 {
        fill: #f6b031;
      }

      .st20 {
        fill: #5283c3;
      }

      .st3 {
        opacity: .8;
      }

      .st21 {
        fill: #afafaf;
      }
    </style>
  </defs>
  <g id="OwlBefore">
    <g>
      <path class="st16" d="M166.7,140.4s13.4-18.8,29.5-30.8c.8-.6,7,8.6,6.9,9.6-.7,13.7.5,30.5-5.8,42.8-7,13.5-16.8,15.6-16.8,15.6l-18.7-33.9,4.9-3.2h0Z"/>
      <path class="st7" d="M178.6,170.2l1.4,7.6s9.6-1.9,17.1-15.5c5.3-9.6,6.7-29.3,5.8-44.2-.9-15-2.2-2-2.2-2,0,0-1.7,46.8-22.1,54h0Z"/>
    </g>
    <g>
      <path class="st7" d="M179.2,176.7s-2.6-31.6-3.1-36.3"/>
      <path class="st16" d="M67.1,138.1s-15.1,22.7-16.1,27.9-1.8,12.7,3.7,19.3c5.5,6.6,21.5,20.8,21.5,20.8l-9.1-68h0Z"/>
      <path class="st7" d="M66.7,152.9s0,15.4.4,22c.4,6.5,4.4,14.2,4.4,14.2,0,0-4.4-31.4-4.8-36.1Z"/>
      <path class="st10" d="M196.4,241.2c0,5.2-29.3,9.5-65.6,9.5s-65.6-4.3-65.6-9.5,29.3-9.5,65.6-9.5,65.6,4.3,65.6,9.5Z"/>
      <path class="st20" d="M62.2,110.9s8.5,83,12.2,91.7c3.7,8.7,20,38.5,57.2,34.2,37.2-4.4,44.8-26.8,48-45.1,3.2-18.3-8.9-92.6-8.9-92.6"/>
      <path class="st20" d="M172.8,102.6c.3,2.8.3,5.7-.2,8.5-2.4,13.6-.1,30-52.9,35.8-44,4.8-52.9-11.4-52.9-11.4,0,0-14.9-27.4-2.7-45.7,0,0-3.4-17.8,2.5-29.7.8-1.5,1.6-4.5,5.8-1.7,4.2,2.8,13.5,12,14.4,13.3,0,0,24.6-12.6,53.4-5.9,0,0,10-11.3,12.7-13.6.4-.3,2.9-2.6,4.2.2,0,0,9.9,19,8.8,30.3,0,0,5.8,9.3,7,19.9"/>
      <path class="st18" d="M118.5,100.3c-9.9-9-32-22.7-42.8-14.7-10.8,8-15.3,22.9-11.7,35.7,1.6,5.9,5,11.6,10.4,14.7,4.7,2.7,10.4,3.2,15.8,2.6,10.7-1.3,20.8-6.9,27.4-15.3,7.7,4.4,18.3,5.9,27.2,5.9,8.9,0,17.8-4.6,22.3-12.1,3.2-5.3,2-6.3,1.1-14-.9-7.9-4.4-15-17-18-11.6-2.8-25.8,5.7-32.7,15.3h0Z"/>
      <path class="st7" d="M110.6,128.3c0,.2-1.5,12.3,6,13.6,7.6,1.3,9.6-5.8,9.6-5.8,0,0,1.7-4.1-1.2-10.3s-14.5,2.5-14.5,2.5Z"/>
      <path d="M110.5,109.8c.8,8.1-3.4,16-10.7,19.8-7.4,3.8-16.6,2.4-22.6-3.3s-7.7-14.9-4.2-22.4c3.5-7.4,11.3-12.1,19.5-11.4,9.3.7,16.9,8.1,18,17.4,0,.7,1.2.9,1.1,0-1-8.6-7.2-16-15.7-18.1s-17.6,1.4-22.5,8.7-4.5,17.1.7,24.1c5.2,6.9,14.5,10,22.8,7.5,9.5-2.9,15.6-12.3,14.6-22.2,0-.7-1.2-.9-1.1,0Z"/>
      <circle class="st18" cx="141.3" cy="107.1" r="20.3"/>
      <path class="st20" d="M116.7,63.8c-.2-4.7,2.4-8.4,2.4-8.4-2.5.9-4.4,3.5-5.8,6.3-3-4.2-9.1-6-9.1-6,0,0,3,3.8,3.7,8-2.6-2.4-7.3-3-7.3-3,0,0,5.8,4.2,5.2,10.8,0,0,.7.7,1.5.5,1.2.9,3.9.6,5.2.3.8,0,1.9,0,3-.3,3.5-.9,1.3-3.5,1.1-8.2h0Z"/>
      <path class="st18" d="M167.4,155.1c-.1,11.4,2.8,37.8-11,52.6-9.1,9.7-15.9,12.7-25,14.2-.9.1-1.8.3-2.7.4-.9,0-1.8.1-2.7.2-9.2.5-16.4-.9-27.5-8.4-16.7-11.4-19.5-37.8-22.1-48.9-2.6-11.1,16-16.4,23.2-11.3,7.2,5.1,21.2,2.5,21.8,2.4h0c.7,0,16.5-1.9,22.4-8.3,6-6.6,23.6-4.2,23.5,7.2h0Z"/>
      <circle class="st14" cx="90.9" cy="112.6" r="20.3"/>
      <g>
        <path class="st15" d="M105.9,172.6l13.3-1.2c.8,0,1.6.6,1.5,1.4,0,2.2-.9,6.1-5.8,6.4-5.9.4-9.4-2-10.3-5-.2-.8.4-1.7,1.2-1.7h0Z"/>
        <path class="st15" d="M127,170.3l13.3-1.2c.8,0,1.6.6,1.5,1.4,0,2.2-.9,6.1-5.8,6.4-5.9.4-9.4-2-10.3-5-.2-.8.4-1.7,1.2-1.7h0Z"/>
        <path class="st15" d="M117.3,185.7l13.3-1.2c.8,0,1.6.6,1.5,1.4,0,2.2-.9,6.1-5.8,6.4-5.9.4-9.4-2-10.3-5-.2-.8.4-1.7,1.2-1.7h0Z"/>
      </g>
      <ellipse class="st14" cx="86" cy="112" rx="1.9" ry=".9" transform="translate(-44.9 59.1) rotate(-30.5)"/>
      <g>
        <path class="st17" d="M96.9,106.4c-1.8-2.4-4.9-3.9-8-3.7-5.4.3-9.7,6.3-8.4,11.5,1.4,5.2,8,8.3,12.9,6,4.9-2.3,6.7-9.5,3.4-13.8h0Z"/>
        <path class="st14" d="M93.9,104.8c-1-.6-2.1-.8-2.9-.6-1.4.3-1.5,2.1,0,3.4,1.4,1.3,3.9,1.8,4.8,1s0-2.8-1.8-3.8Z"/>
      </g>
      <g>
        <path class="st13" d="M104.4,236c.2,2.1-1.1,5.3-2.3,7.8-1.1,2.1-3.5,2.4-5,.6-1.8-2.2-3.8-5-4-7.1-.4-3.9,1.8-7.3,4.9-7.6s6,2.5,6.5,6.4h0Z"/>
        <path class="st13" d="M113.9,234.7c.3,2.5-1.4,6.4-3,9.5-1.4,2.6-4.5,3-6.4.7-2.2-2.6-4.7-6.1-5-8.6-.5-4.7,2.3-8.9,6.3-9.3s7.6,3,8.1,7.8h0Z"/>
        <path class="st13" d="M119.4,234.3c.2,2.1-1.1,5.3-2.3,7.8-1.1,2.1-3.5,2.4-5,.6-1.8-2.2-3.8-5-4-7.1-.4-3.9,1.8-7.3,4.9-7.6,3.1-.3,6,2.5,6.4,6.4h0Z"/>
      </g>
      <g>
        <path class="st13" d="M154.9,231.1c.2,2.1-1.1,5.3-2.3,7.8-1.1,2.1-3.5,2.4-5.1.6-1.8-2.2-3.8-5-4-7.1-.4-3.9,1.8-7.3,4.9-7.6s6,2.5,6.4,6.4h0Z"/>
        <path class="st13" d="M164.4,229.9c.3,2.5-1.4,6.4-3,9.5-1.4,2.6-4.5,3-6.4.7-2.2-2.6-4.7-6.1-5-8.6-.5-4.7,2.3-8.9,6.3-9.3,4-.4,7.6,3,8.1,7.8h0Z"/>
        <path class="st13" d="M169.8,229.5c.2,2.1-1.1,5.3-2.3,7.8-1.1,2.1-3.5,2.4-5.1.6-1.8-2.2-3.8-5-4-7.1-.4-3.9,1.8-7.3,4.9-7.6s6,2.5,6.4,6.4h0Z"/>
      </g>
      <ellipse class="st14" cx="115.8" cy="232.4" rx="1.3" ry="2.7" transform="translate(-107.5 99.8) rotate(-32.8)"/>
      <ellipse class="st14" cx="108.8" cy="231.5" rx="1.7" ry="3.4" transform="translate(-127.4 133.4) rotate(-42.3)"/>
      <ellipse class="st14" cx="100.4" cy="233.6" rx="1.4" ry="2.8" transform="translate(-110.5 91.7) rotate(-32.8)"/>
      <ellipse class="st14" cx="166.4" cy="227.7" rx="1.3" ry="2.7" transform="translate(-96.8 126.5) rotate(-32.8)"/>
      <ellipse class="st14" cx="159.2" cy="226.6" rx="1.7" ry="3.4" transform="translate(-111.1 166.1) rotate(-42.3)"/>
      <ellipse class="st14" cx="150.7" cy="228.9" rx="1.4" ry="2.8" transform="translate(-100 118.2) rotate(-32.8)"/>
      <g>
        <g>
          <path class="st13" d="M128,130.1c-1.9-4.8-8.8-12.4-10.2-12.2-1.3.1-8.1,8.8-9.2,14.1,3,2.4,6.9,4.2,10.5,3.8s6.8-3,8.9-5.7h0Z"/>
          <path class="st13" d="M109.7,134.2c-.2-.2,0-.4.2-.3,2,1.4,5.8,2.7,9,2.4,4.1-.4,6.3-2.7,8.3-4.2.2-.1.4,0,.2.2l-2.5,3.3s-2.6,3.9-5.3,4.7-8.5-4.8-8.5-4.8l-1.4-1.5h0Z"/>
        </g>
        <path class="st14" d="M117.9,118.9s7.6,7.1,8.9,11c0,0-2.4,3.8-6.8,4.2,0,0,0-5.7-2.2-15.2h0Z"/>
      </g>
      <g>
        <path class="st3" d="M66.8,55.1s3.3-.3,6.7,3.4,6.6,5.3,11.7,11.2"/>
        <path class="st1" d="M140.1,63.8s11.3-12.8,13-13.9c1.7-1.1,2.6-1.4,3.3-1"/>
        <path class="st5" d="M67.1,57.8c0-.4.2-.7.5-.8.6-.2,1.6-.2,3.1.9,1.9,1.4,9.4,8.8,12.3,11.8.3.3.4.8,0,1.1-.1.1-.3.2-.5.3-2.5.4-7.1,3.2-9.2,5-5.2,4.4-5.9-14.5-6.2-18.2Z"/>
        <path class="st12" d="M67.1,59.1s.4,9,1.8,13.5,2.5,4.5,4,4c0,0,0,0,0,0-1.7,1.6-5.9,5.6-7.4,7.7-.4.5-1.1.6-1.5.2-.3-.2-.4-.5-.4-.8-1.1-14.3,1.1-21.2,2.5-24.8,1.5-3.9,1.2,0,1.2,0h0"/>
        <path class="st5" d="M155.3,51.8c0-.4-.3-.7-.7-.7-.6,0-1.6,0-2.9,1.4-1.7,1.7-7.7,10.3-10.1,13.7-.3.4-.2.9.2,1.1.1,0,.3.2.5.2,2.6,0,7.6,1.9,9.9,3.3,5.9,3.4,3.3-15.3,3-19Z"/>
        <path class="st4" d="M74.7,84.7c-.4-.5-.8-.8-1.4-1.1-.4-.2-.8,0-1,.4-.1.3,0,.7.2.9.4.4,1,.7,1.6.8.3,0,.7-.2.7-.5,0-.2,0-.3-.1-.4h0Z"/>
        <path class="st4" d="M72.8,86.8c-.5-.6-1.1-1.1-1.8-1.5-.2-.2-.5-.1-.7,0s-.1.5,0,.7c.5.6,1.1,1.1,1.8,1.5.4.2.9-.4.6-.8h0Z"/>
        <path class="st4" d="M76.6,84.7c-.2-.9-.3-1.8-.3-2.8,0-.6-1.1-.7-1.2-.1-.3,1.1,0,2.3.7,3.2.2.2.5.2.7,0,.1-.1.2-.3.2-.4Z"/>
        <path class="st4" d="M79.3,82c-.2-.4-.2-.8-.1-1.2.2-.8-1.1-1-1.3-.3-.3.7,0,1.5.5,2.1.5.4,1.3,0,1-.6h0Z"/>
        <path class="st4" d="M82.2,81c0-.3-.1-.6-.1-.9,0-.4.2-.7,0-1.1-.1-.3-.5-.4-.8-.3-1,.3-.7,2-.4,2.7s1.5.3,1.3-.4h0Z"/>
        <path class="st4" d="M103.1,81c.2-.5.2-1.2.1-1.7,0-.4-.5-.7-.9-.6-.3,0-.6.3-.6.7,0,.6,0,1.2.2,1.7.2.3.5.4.8.3.1,0,.2-.2.3-.3Z"/>
        <path class="st4" d="M84.4,80.9c.6.3,1.1-.5.7-1-.2-.3-.2-.7-.1-1,.3-1-1.1-1.5-1.5-.5-.4.9,0,2,.8,2.5h0Z"/>
        <path class="st4" d="M107.8,83.2c.6.3,1.1-.5.7-1-.2-.3-.2-.7-.1-1,.2-1-1.1-1.5-1.5-.5-.4.9,0,2,.9,2.5h0Z"/>
        <path class="st4" d="M90,80c.3-.6.6-1.2.7-1.8.2-.9-1.1-1.4-1.3-.5-.2.7-.3,1.4-.3,2.1,0,.3.3.5.6.4.1,0,.2,0,.3-.2h0Z"/>
        <path class="st4" d="M110.1,84.3c.3-.6.6-1.2.8-1.8.2-.9-1.1-1.4-1.3-.5-.2.7-.3,1.4-.3,2.1,0,.3.3.4.6.4.1,0,.2,0,.3-.2Z"/>
        <path class="st4" d="M100.3,80.7c.2-.8.2-1.5.3-2.3,0-.3-.2-.5-.4-.5-.3,0-.5.2-.5.4-.2.8-.3,1.5-.3,2.3,0,.3.3.5.6.4.2,0,.3-.2.4-.3h0Z"/>
        <path class="st4" d="M97.9,79.8c.1-.5.2-.9.3-1.4.2-.8-1.1-1.1-1.4-.3-.1.4-.2.8-.3,1.2-.2.9,1.1,1.5,1.4.5h0Z"/>
        <path class="st4" d="M105.8,81.7c.1-.5.2-.9.3-1.4.2-.8-1.1-1.1-1.4-.3-.1.4-.2.8-.3,1.2-.2.9,1.2,1.5,1.4.5Z"/>
        <path class="st4" d="M94.5,80h.2c.3,0,.5-.1.6-.4.1-.4.2-.8.3-1.2.2-.7-.9-1.2-1.1-.4,0,.4-.2.8-.3,1.2-.1.3,0,.7.3.8h0Z"/>
        <path class="st4" d="M92.5,79.8c.6-.2.6-.8.7-1.4.1-.7-.9-.8-1.1-.2s-.5,1-.1,1.5c.1.2.4.2.6.1h0Z"/>
        <path class="st4" d="M88.1,79.4c-.3-.6-.7-1.2-1-1.8-.2-.3-.5-.4-.8-.2-.3.2-.4.5-.2.8.3.6.6,1.2,1,1.8.1.2.4.4.7.3,0,0,.2,0,.3-.2.2-.2.2-.5,0-.7h0Z"/>
        <path class="st4" d="M149.2,76.7c.2-.5.6-1,1.1-1.3.3-.2.8-.2,1.1.2.2.3.2.7,0,.9-.3.5-.8.8-1.4,1.1-.3.1-.7,0-.8-.4,0-.2,0-.3,0-.5h0Z"/>
        <path class="st4" d="M151.5,78.4c.4-.7.9-1.3,1.4-1.8.2-.2.5-.2.7,0s.2.5,0,.7c-.4.7-.9,1.3-1.4,1.8-.4.3-1-.2-.8-.6h0Z"/>
        <path class="st4" d="M147.4,77.1c0-.9-.1-1.8-.3-2.8-.1-.7.9-.9,1.2-.4.5,1,.5,2.3,0,3.3-.1.2-.4.3-.7.2-.1,0-.2-.2-.2-.4h0Z"/>
        <path class="st4" d="M144.1,75.1c0-.4,0-.8-.1-1.2-.3-.7.8-1.2,1.2-.6.4.7.4,1.5,0,2.1-.3.5-1.2.3-1.1-.4h0Z"/>
        <path class="st4" d="M141.1,74.7c0-.3,0-.6,0-.9-.1-.4-.4-.6-.3-1,0-.3.4-.5.7-.5,1,.1,1.1,1.8,1,2.5s-1.3.7-1.3,0Z"/>
        <path class="st4" d="M120.7,79.3c-.3-.5-.5-1.1-.5-1.7,0-.4.3-.8.8-.8s.6.2.7.5c.2.5.2,1.2.2,1.7,0,.3-.4.5-.8.5-.2,0-.3-.1-.4-.3Z"/>
        <path class="st4" d="M138.9,75.1c-.5.4-1.2-.3-.9-.8.1-.3,0-.7-.1-1-.5-.9.8-1.7,1.3-.8.6.8.5,2-.3,2.6h0Z"/>
        <path class="st4" d="M116.6,82.4c-.5.4-1.2-.3-.9-.8.1-.3,0-.7-.1-1-.5-.9.8-1.7,1.3-.8.6.8.5,2-.3,2.6h0Z"/>
        <path class="st4" d="M133.3,75.4c-.5-.5-.8-1-1.1-1.6-.4-.8.7-1.6,1.2-.8.4.6.6,1.3.8,2,0,.3-.2.5-.5.5-.1,0-.2,0-.3-.1h0Z"/>
        <path class="st4" d="M114.5,83.9c-.5-.5-.8-1-1.1-1.6-.4-.8.7-1.6,1.2-.8.4.6.6,1.3.8,2,0,.3-.2.5-.5.5-.1,0-.2,0-.3-.1h0Z"/>
        <path class="st4" d="M123.4,78.3c-.3-.7-.6-1.5-.8-2.2,0-.2,0-.5.3-.6.2,0,.5,0,.6.3.3.7.6,1.5.8,2.2,0,.3-.2.5-.5.5-.2,0-.3,0-.4-.2h0Z"/>
        <path class="st4" d="M125.5,77c-.2-.4-.4-.8-.6-1.3-.3-.8.9-1.3,1.3-.6.2.3.4.7.6,1.1.4.8-.8,1.7-1.3.8Z"/>
        <path class="st4" d="M118.2,80.5c-.2-.4-.4-.8-.6-1.3-.3-.7.9-1.3,1.3-.6.2.3.4.7.6,1.1.4.9-.8,1.7-1.3.8Z"/>
        <path class="st4" d="M128.9,76.3s0,0-.1,0c-.3,0-.6,0-.7-.2-.2-.4-.4-.7-.6-1.1-.3-.7.7-1.3,1-.7.2.4.4.7.6,1.1.2.3,0,.7-.2.8Z"/>
        <path class="st4" d="M130.8,75.8c-.6,0-.8-.7-1-1.2-.3-.6.7-1,1.1-.5s.7.8.4,1.4c0,.2-.3.3-.5.2Z"/>
        <path class="st4" d="M134.9,74.4c.2-.7.4-1.3.6-2,.1-.3.4-.5.7-.3.3,0,.4.4.4.7-.2.7-.3,1.3-.6,2,0,.3-.3.5-.6.4-.1,0-.2,0-.3,0-.2-.2-.3-.4-.2-.7h0Z"/>
        <path class="st0" d="M104.6,63.6c-.7-1.6-1.8-3-3.1-4.2-1.8-1.5,5.8,2.1,6.1,3.4s.3-1.6.3-1.6c0,0-1.3-5.7-2.7-6.5s4.8,1.8,6.9,5.4"/>
        <path class="st19" d="M165.7,74.2c1.4-.2,2.3-1.6,2-2.9-.2-1.2-1.3-2.1-2.6-2.1-44.8,24.8-105.1,12.9-105.1,12.9-1.4.3-2.2,1.6-1.9,3,.2,1.2,1.3,2,2.5,2,0,0,57.7,13.3,105.1-12.9h0Z"/>
        <path class="st19" d="M111.2,87.2c38.3-3.6,54.4-13.9,54.4-13.9-4.9-35.2-31.8-44.3-57.5-41.5h-.2c-25.7,2.8-48.8,10.2-47.2,54.4,0,0,21.4,3.7,50.6,1h0Z"/>
        <path class="st19" d="M131.3,69.4s-1.4-27.6-3.7-38.9c0-2.2-1.8-3.9-3.9-3.9s-.2,0-.3,0c-4.2,0-17.5,1.2-17.5,1.2h-.3s-13.2,1.8-17.4,2.7c-2.1.3-3.6,2.3-3.3,4.4,0,.1,0,.2,0,.3.2,11.5,4.8,38.7,4.8,38.7,0,0,13.6-6.9,41.5-4.5h0Z"/>
        <path class="st19" d="M126.2,76.5s-7.3-18.9-7.7-28.5c-.2-5.5-.5-14.5-2.8-21-1.8-4.9-4.7-8.4-9.7-7.8h-.5c-11.5,1.2-7.7,21.5-6,30.9,1.8,9.4-1.3,29.5-1.3,29.5,8.7-4,18.5-5.1,27.9-3h0Z"/>
        <path class="st11" d="M128.9,68.4c0,.3.2.6.5.6h1.4c.3-.2.5-.4.5-.7-.7-19.2-3.2-33.4-3.4-36.1-.3-5-3.1-5.5-3.1-5.5,0,0-.4-.3-5.6,0,0,0,.3,2.4.8,5.2,1-.1,2,0,3,.2.4.2.8.6.9,1,.8,3.8,5.2,25.4,5.1,35.1Z"/>
        <path class="st6" d="M60.1,82.1s50.2,12,105.1-12.9c0,0-53.7,20.3-105.1,12.9Z"/>
        <path class="st9" d="M132.2,33.1s-3.6-.9-4.3-1c1.8,11.9,3,24,3.4,36.1,0,0,.2-23.4.9-35.1h0Z"/>
        <path class="st9" d="M80.8,38.9c1.3-.8,2.7-1.5,4.1-2.1.7,12.2,2.2,24.4,4.4,36.5,0,0-5.2-23.1-8.4-34.4Z"/>
        <path class="st9" d="M126.1,75.7s-7.2-18.6-7.6-28.2c-.2-5.5-.4-13.9-2.8-20.5l3.3-.2s2.5,15.7,1.6,22.3c-.8,6,5.1,23.6,5.4,26.6h0Z"/>
        <path class="st9" d="M98.2,79s3.1-20,1.3-29.5c-1-5.4-2.6-13.7-1.7-20.6l-3.4.6s.8,15.2,3.4,22.1c2.1,5.7.2,24.4.4,27.4h0Z"/>
        <path class="st8" d="M63.9,82.5c3,.5,6,.8,9,.9,0,0-2.9-25.8,9.9-36.7l-1.4-5.2s-15.9,8.2-17.5,41h0Z"/>
        <path class="st8" d="M92.4,31.7c.2-.2.2-.6,0-.8-.1-.1-.3-.2-.5-.1l-3.8.8c-1.5.1-2.5,1.4-2.4,2.9,0,0,0,0,0,0,.2,2.6,3.2,32.2,4.3,36.6,0,.3.3.5.6.4h1.2c.3-.2.6-.5.5-.8l-3.4-35.8s-.5-.5,1-1.2c.9-.6,1.7-1.2,2.4-2.1h0Z"/>
        <path class="st8" d="M106,20.2s-5.7.8-6.7,7.9c-1,7,1.2,18.5,1.3,18.9h0c0,.5,2.4,18.9-.3,28.5l1.5-.2c.3,0,.5-.3.5-.5.3-2.9,2.1-18.8-.2-27.7-2.5-9.8-1.5-17.6-.7-18.5s3.4-3.7,5.5-4.1,1.7-4.2-.9-4.2h0Z"/>
        <path class="st11" d="M132.1,33.2s27.1,4.4,33,36c0,0,1.8-.4-12.5,4,0,0-7.1-23.3-20.9-28.4,0,0,.5-11.7.5-11.7Z"/>
        <path class="st8" d="M61.9,83c-.7-.4-1.5-.2-1.9.5,0,0,0,.2-.1.3-.7,1.5,1.2,1.8,1.2,1.8,0,0,33.3,10.5,91.7-6.5,0,0-47.7,15.5-90.9,4h0Z"/>
      </g>
      <path class="st20" d="M164.9,103.6s-25.9-4.4-38.6,8.6c0,0-3.1-10.1,3.8-17.2,0,0,25.2-16.8,34.8,8.6"/>
      <path d="M128.4,96.5c-4.6,3.7-3.9,11.3-2.4,16.3,0,.3.8.4.9.2,1.7-1.8,3.8-3.3,6-4.5,5.3-3.2,11.3-5,17.5-5.5,5-.4,9.9.2,14.8,1.4.6.2.7-.3,0-.5-12.7-3.2-26.7-1.4-37.1,6.9-.7.6-1.5,1.2-2.1,1.9l.9.2c-1.5-5-2.2-12.4,2.3-16.1.2-.2-.7-.5-.9-.3h0Z"/>
      <path class="st20" d="M128.7,114.9c5.8-3.8,10.6-7.1,18.1-8.4s17.1.6,18,.2.3-1.1.3-1.1c-25.1-5.7-37.7,8.7-37.7,8.7,0,0,0,1.4,1.2.5Z"/>
    </g>
    <path class="st16" d="M196.2,109.6s-.7,3.5,0,7.1c.7,3.5,6.9,2.6,6.9,2.6,0,0,1.4-7.6-2.1-9.8s-4.8.2-4.8.2h0Z"/>
  </g>
  <path id="Wrench_Outline" class="st2" d="M212.4,132.7c-.9-1.3-1.8-2.6-2.7-3.9-1.6-2.4-3.3-4.8-4.9-7.2-1.7-2.4-3.4-4.9-5-7.3-1-1.4-1.9-2.8-2.9-4.2,0,0,0-.1-.1-.2,0-.1-.3,0-.5,0,0,0,0,0,0,0,0-.1,0-.2,0-.3-.6-1.1-1.1-2.2-1.7-3.4-.6-1.3-1.3-2.5-1.5-4-.4-2.7-.4-5.5-.4-8.2s0-.9,0-1.4c0-.6-.2-1.3-.5-1.9v-.3l-.3-.3c-1.6-3.1-5.2-5-8.6-5.7-1.7-.3-4-.4-5.3,1,0,0,0,0-.1.2,0,0-.4.6-.2.7,0,0,0,0,0,0,2.4,1.8,4.8,3.6,7.2,5.5.2.2.5.4.7.6,0,0,0,0,.1,0,0,0-.1.2-.1.2-.9,1.5-1.9,2.9-2.8,4.4-.2.3-.4.6-.6.9,0,0,0,0-.1,0-2.4-1.6-4.7-3.1-7-4.7-.4-.2-.7-.5-1.1-.7-.2-.1-1-.3-1.1,0-1.9,4.2,1.7,7.9,4.9,10,.3.2.7.4,1,.6,0,0,0,0,0,0,0,0,0,0,0,0,0,0-.1.2-.2.3,0,0-.2.3-.2.5h0c0,0,0,.1,0,.1,0,0,.1,0,.2,0,4.7,1.4,9,4.4,11.9,8.4.2.2.4.5.5.8,0,0,0,0,0,0h0c-.2,0-.3.2-.2.3.7,1.1,1.3,2.2,2,3.3,1.5,2.5,3,5,4.5,7.5,1.6,2.6,3.2,5.3,4.8,7.9.9,1.6,1.9,3.1,2.8,4.6.6.9,1.3,1.7,2.3,2.1,1.7.7,4,.2,5.2-1.1,1.4-1.5,1-3.8,0-5.3h0Z"/>
  <g id="UserWrench">
    <path class="st21" d="M314.1,186.1c-.2.1-.5.2-.7.3h0c0-.2-.2-.4-.3-.5-.1,0-.3,0-.3,0,0,.2,0,.4,0,.6-.3.1-.6.3-.9.4v-.3c0-.2-.1-.4-.4-.4-.2,0-.4.1-.4.3v.7c-.3.1-.7.3-1,.4,0,0,0-.1,0-.2,0-.2,0-.3,0-.5,0-.1-.3,0-.3,0-.1,0-.3.2-.3.4,0,.2,0,.3,0,.5-.3.1-.6.2-.9.4,0-.1,0-.2,0-.4,0-.2-.2-.4-.4-.4-.2,0-.3.1-.3.3,0,.3,0,.5,0,.8-.1,0-.3.1-.4.2-.3.1-.6.3-.9.4-.1,0-.2.1-.3.2h0c-.1.1-.2.2-.2.3.2.7.5,1.4.8,2.1h0c.4-.2.9-.4,1.3-.6,0,.2,0,.3,0,.5,0,.2.2.4.4.4s.3-.1.3-.3c0-.3,0-.6,0-.9.3-.1.5-.2.8-.4,0,0,0,.2,0,.3,0,.2,0,.3,0,.5,0,.1.3,0,.3,0,.1,0,.3-.2.3-.4,0-.2,0-.4,0-.6.3-.1.6-.3.9-.4v.5c0,.2.1.4.4.4.2,0,.4-.1.4-.3,0-.3,0-.6,0-.9.4-.2.7-.3,1.1-.5,0,.1,0,.3,0,.4,0,.2.2.3.3.4.1,0,.3,0,.3,0,0-.3,0-.7,0-1h0c.3-.1.6-.3.9-.4.1,0,.6-.4.5-.5-.3-.7-.6-1.4-.9-2h0,0ZM307.7,191.4h0s0,0,0,0,0,0,0,0c0,0,0,0,0,0,0,0,0,0,0,0h0s0-.3,0-.3c0-.2-.2-.5-.2-.7-.1-.3-.2-.6-.3-.9h0c.2-.1.5-.2.7-.3.2,0,.3-.1.5-.2h0c0,.7.1,1.4.2,2.1-.1,0-.3.1-.4.2,0,0,0,0,0,0h0s0,0,0,0ZM309.2,190.7c-.1,0-.3.1-.4.2h0c0-.7-.1-1.4-.2-2.1h0c.1,0,.3-.1.4-.2.1,0,.3-.1.4-.2h0c0,.7,0,1.4.1,2.1-.1,0-.3.1-.4.2h0ZM310.1,188.1h0c.3-.1.7-.3,1-.4h0c0,.7,0,1.4,0,2.2-.3.1-.6.3-.9.4h0c0-.7,0-1.4-.1-2.1h0ZM311.9,189.5h0c0-.7,0-1.4,0-2.2h0c.2,0,.4-.1.5-.2.1,0,.3-.1.4-.2,0,.7,0,1.4.1,2.1-.4.1-.7.3-1,.5h0ZM313.5,188.8h0c0-.6,0-1.3-.1-1.9v-.2s0,0,0,0c0,0,0,0,0,0h0s0,.3.1.3c.1.2.2.4.3.7l.4.9c-.3.1-.5.2-.8.4h0ZM312.1,203.1h-.2c-1.5,0-2.9,0-4.4.1s-1,0,0,0c-.2,0-.3,0-.5,0h0c0,.1.2.1.2.1h4.6s.2,0,.2,0h.4c0,0,0-.2,0-.2h-.3ZM319.5,184.5c0,0,0,.1,0,.2v-.2c.1,0,0-.4,0-.4,0,.1,0,.3,0,.4h0Z"/>
    <path class="st21" d="M315.3,174.7c-1.3-1.2-3.1-2.4-5-2,0,0-.1,0-.2,0-.1,0-.7.3-.6.5,0,0,0,0,0,0,1.1,2.8,2.1,5.6,3.2,8.5.1.3.2.6.3.9,0,0,0,0,0,.1h-.2c-1.6.9-3.1,1.6-4.7,2.3-.3.2-.6.3-1,.5,0,0,0,0,0-.1-1.2-2.6-2.3-5.1-3.5-7.7-.2-.4-.4-.8-.5-1.2,0-.2-.7-.8-1-.6-3.8,2.5-2.8,7.6-1.1,11.1.2.4.4.7.6,1.1,0,0,0,0,0,0,0,0,0,0,0,0-.1,0-.2.1-.3.2,0,0-.3.2-.4.3,0,0,0,0,0,0,0,0,0,0,0,0,0,0,0,.1.1.2,3.2,3.7,5.3,8.5,5.6,13.4,0,.3,0,.6,0,.9h.4c.2,0,.3,0,.5,0q.1,0,0,0c1.5,0,2.9,0,4.4-.1h.2c.1,0,.2,0,.3,0,.1,0,.2,0,.3,0,.1,0,.2-.1.2-.2.1-1.2.2-2.5.4-3.7.2-1.4.3-2.8.8-4.2,1-2.5,2.5-4.9,4-7.2.2-.4.5-.8.8-1.2.3-.6.5-1.2.6-1.9,0,0,0-.1,0-.2,0-.1,0-.3,0-.4.2-3.5-1.8-7-4.2-9.4h0ZM315,188.2c0,.1-.4.4-.5.5-.3.1-.6.3-.9.4h0c0,.3,0,.7,0,1,0,.2-.2.1-.3,0-.1,0-.3-.2-.3-.4,0-.1,0-.3,0-.4-.4.2-.7.3-1.1.5,0,.3,0,.6,0,.9,0,.2-.2.3-.4.3-.2,0-.3-.2-.4-.4v-.5c-.3.1-.6.3-.9.4,0,.2,0,.4,0,.6,0,.2-.2.3-.3.4,0,0-.3.2-.3,0,0-.2,0-.3,0-.5,0,0,0-.2,0-.3-.3.1-.6.2-.8.4,0,.3,0,.6,0,.9,0,.2-.1.3-.3.3s-.4-.2-.4-.4c0-.2,0-.3,0-.5-.4.2-.9.4-1.3.6,0,0,0,0,0,0-.2-.7-.5-1.4-.8-2.1,0,0,0-.2.2-.3h0c.1,0,.2-.2.3-.2.3-.1.6-.3.9-.4.1,0,.3-.1.4-.2,0-.3,0-.5,0-.8,0-.2.1-.3.3-.3s.4.2.4.4c0,.1,0,.2,0,.4.3-.1.6-.2.9-.4,0-.2,0-.3,0-.5,0-.2.2-.3.3-.4,0,0,.3-.2.3,0,0,.2,0,.3,0,.5,0,0,0,.1,0,.2.3-.1.7-.3,1-.4v-.7c0-.2.2-.3.4-.3.2,0,.3.2.4.4v.3c.3-.1.6-.3.9-.4,0-.2,0-.4,0-.6,0-.2.2-.1.3,0s.3.2.3.4h0c.2,0,.5-.2.7-.3,0,0,0,0,0,0,.3.7.6,1.4.9,2h0Z"/>
    <path d="M312.4,203.1c-.1,0-.2,0-.3,0h-.2s0,0,0,.1,0,.1.1.1.2,0,.4,0c.1,0,.2-.1.3-.2-.1,0-.2,0-.3,0h0ZM307,203.3h-.4v.2c0,.2.4.1.7,0,0,0,.2,0,.2-.1-.2,0-.3,0-.5,0h0Z"/>
    <path d="M312.8,203.1h0c-.1,0-.2,0-.3,0-.1,0-.2,0-.3,0h-.2c-1.5,0-2.9,0-4.4.1q-1,0,0,0c-.2,0-.3,0-.5,0h-.5c-.2,0-.3,0-.3.2,0,1.3,0,2.6,0,3.9,0,2.9-.1,5.8-.2,8.7,0,3.1-.1,6.1-.1,9.2,0,1.8,0,3.6,0,5.4,0,1.1.2,2.1.8,3,1.1,1.5,3.3,2.2,5,1.8,2-.5,2.8-2.7,2.8-4.6,0-1.6-.1-3.1-.2-4.7-.1-2.9-.2-5.8-.4-8.7-.1-2.9-.2-5.9-.4-8.9,0-1.7-.1-3.4-.2-5.1,0,0,0-.2,0-.2,0-.2-.2-.2-.4-.3h0ZM311.4,230.9c0,.6.2,1.3,0,1.9-.1.3-.4.6-.7.6-.6,0-1.2-.4-1.5-.9-.5-.6-.6-1.4-.4-2.2h0c.2-.6.8-2,1.6-1.5.8.4,1,1.3,1.1,2.2h0Z"/>
    <path d="M314.1,186.1c-.2.1-.5.2-.7.3h0c0-.2-.2-.4-.3-.5-.1,0-.3,0-.3,0,0,.2,0,.4,0,.6-.3.1-.6.3-.9.4v-.3c0-.2-.1-.4-.4-.4-.2,0-.4.1-.4.3v.7c-.3.1-.7.3-1,.4,0,0,0-.1,0-.2,0-.2,0-.3,0-.5,0-.1-.3,0-.3,0-.1,0-.3.2-.3.4,0,.2,0,.3,0,.5-.3.1-.6.2-.9.4,0-.1,0-.2,0-.4,0-.2-.2-.4-.4-.4-.2,0-.3.1-.3.3,0,.3,0,.5,0,.8-.1,0-.3.1-.4.2-.3.1-.6.3-.9.4-.1,0-.2.1-.3.2h0c-.1.1-.2.2-.2.3.2.7.5,1.4.8,2.1h0c.4-.2.9-.4,1.3-.6,0,.2,0,.3,0,.5,0,.2.2.4.4.4s.3-.1.3-.3c0-.3,0-.6,0-.9.3-.1.5-.2.8-.4,0,0,0,.2,0,.3,0,.2,0,.3,0,.5,0,.1.3,0,.3,0,.1,0,.3-.2.3-.4,0-.2,0-.4,0-.6.3-.1.6-.3.9-.4v.5c0,.2.1.4.4.4.2,0,.4-.1.4-.3,0-.3,0-.6,0-.9.4-.2.7-.3,1.1-.5,0,.1,0,.3,0,.4,0,.2.2.3.3.4.1,0,.3,0,.3,0,0-.3,0-.7,0-1h0c.3-.1.6-.3.9-.4.1,0,.6-.4.5-.5-.3-.7-.6-1.4-.9-2h0,0ZM308.1,191.2c-.1,0-.3.1-.4.2,0,0,0,0,0,0h0s0,0,0,0,0,0,0,0c0,0,0,0,0,0,0,0,0,0,0,0h0s0-.3,0-.3c0-.2-.2-.5-.2-.7-.1-.3-.2-.6-.3-.9.2-.1.5-.2.7-.3.2,0,.3-.1.5-.2h0c0,.7.1,1.4.2,2.1h0ZM309.6,190.5h0c-.1,0-.3.1-.4.2-.1,0-.3.1-.4.2h0c0-.7-.1-1.4-.2-2.1.1,0,.3-.1.4-.2.1,0,.3-.1.4-.2h0c0,.7,0,1.4.1,2.1h0ZM311.1,189.9c-.3.1-.6.3-.9.4h0c0-.7,0-1.4-.1-2.1.3-.1.7-.3,1-.4h0c0,.7,0,1.4,0,2.2h0ZM312.9,189.1h0c-.4.1-.7.3-1,.5,0-.7,0-1.4,0-2.2.2,0,.4-.1.5-.2.1,0,.3-.1.4-.2h0c0,.7,0,1.4.1,2.1h0ZM313.7,186.9l.3.7c.1.3.2.6.4.9h0c-.3.1-.5.2-.8.4,0-.6,0-1.3-.1-1.9v-.2s0,0,0,0c0,0,0,0,0,0,0,0,0,0,0,0,0,0,0,.3.1.3h0Z"/>
  </g>
  <g id="OwlAfter">
    <g>
      <path class="st16" d="M166.7,140.4s13.4-18.8,29.5-30.8c.8-.6,7,8.6,6.9,9.6-.7,13.7.5,30.5-5.8,42.8-7,13.5-16.8,15.6-16.8,15.6l-18.7-33.9,4.9-3.2h0Z"/>
      <path class="st7" d="M178.6,170.2l1.4,7.6s9.6-1.9,17.1-15.5c5.3-9.6,6.7-29.3,5.8-44.2-.9-15-2.2-2-2.2-2,0,0-1.7,46.8-22.1,54h0Z"/>
    </g>
    <g id="group">
      <path class="st21" d="M188.3,94.8c-.1.2-.3.4-.4.6,0,0,0,0,0,0-.1-.1-.3-.2-.5-.2-.1,0-.3,0-.2.2.1.2.2.3.4.5-.2.3-.4.6-.6.8,0,0-.1-.2-.1-.2-.1-.2-.3-.2-.5-.1-.2,0-.3.3-.2.5.1.2.3.4.4.6-.2.3-.4.6-.6.9,0,0,0,0-.1-.2-.1-.1-.2-.3-.3-.4,0-.1-.2.2-.2.2,0,.1-.1.4,0,.5.1.1.2.3.3.4-.2.3-.4.5-.5.8,0,0-.1-.2-.2-.3-.1-.2-.4-.2-.5-.1s-.2.2-.1.4c.1.2.3.4.5.6,0,.1-.2.2-.2.3-.2.3-.4.6-.6.8,0,0-.1.2-.2.4h0c0,.2,0,.3,0,.3.6.5,1.2.9,1.8,1.4,0,0,0,0,0,0,.3-.4.5-.8.8-1.2.1.1.2.3.3.4.1.2.4.2.5.1s.2-.2.1-.4c-.2-.2-.4-.5-.6-.7l.5-.8c0,0,.1.2.2.2.1.1.2.3.3.4,0,.1.2-.2.2-.2,0-.1.1-.4,0-.5-.1-.2-.2-.3-.4-.5.2-.3.4-.5.5-.8,0,.1.2.3.3.4.1.2.3.2.5.2.1,0,.3-.3.2-.5-.2-.2-.3-.5-.5-.8.2-.3.4-.7.6-1,0,.1.2.2.2.3.1.1.3.2.5.2.1,0,.3,0,.2-.2-.2-.3-.4-.5-.6-.8h0c.2-.3.4-.6.6-.8,0,0,.3-.6.2-.7-.6-.4-1.2-.8-1.8-1.2,0,0,0,0,0,0h0ZM185.7,102.7h0s0,0,0,0c0,0,0,0,0,0,0,0,0,0,0,0,0,0,0,0,0,0,0,0,0,0,0,0h0c0,0-.2-.2-.2-.2-.2-.2-.4-.3-.6-.5-.2-.2-.5-.4-.7-.6h0c.1-.2.3-.4.4-.6.1-.2.2-.3.3-.4h0c.4.6.9,1.1,1.3,1.7,0,.1-.2.3-.3.4h0s0,0,0,0h0ZM186.6,101.3c0,.1-.2.2-.3.4h0c-.4-.6-.9-1.1-1.3-1.7h0c0-.1.2-.3.3-.4,0-.1.2-.2.3-.4h0c.4.6.8,1.2,1.2,1.7,0,.1-.2.2-.2.4h0ZM186,98.6h0c.2-.3.4-.6.6-.9h0l1.2,1.8c-.2.3-.4.5-.5.8h0c-.4-.6-.8-1.1-1.2-1.7h0ZM188.3,98.9h0c-.4-.6-.8-1.2-1.2-1.8h0c.1-.2.2-.3.3-.5,0-.1.2-.2.3-.4.4.6.8,1.2,1.2,1.7-.2.3-.4.6-.6.9h0ZM189.3,97.4h0c-.4-.5-.8-1.1-1.1-1.6,0,0,0,0-.1-.2,0,0,0,0,0,0,0,0,0,0,0,0,0,0,0,0,0,0,0,0,.2.2.3.2.2.1.4.3.6.4l.8.5c-.2.2-.3.5-.5.7h0ZM195.7,110.2c0,0-.1,0-.2.1-1.2.8-2.4,1.6-3.6,2.4q-.8.5,0,0c-.1,0-.3.2-.4.3h0c0,.1.2,0,.2,0h.2c0-.1,3.6-2.5,3.6-2.5h.1c0,0,.3-.3.3-.3h0c0,0,0-.2,0-.2h0c0,0-.2.1-.2.2h0ZM192,90.6c0,0,0,.1,0,.2v-.3l-.3-.3c0,.1.1.2.2.4h0Z"/>
      <path class="st21" d="M183.3,84.5c-1.7-.3-4-.4-5.3,1,0,0,0,0-.1.2,0,0-.4.6-.2.7,0,0,0,0,0,0,2.4,1.8,4.8,3.6,7.2,5.5.2.2.5.4.7.6,0,0,0,0,.1,0,0,0-.1.2-.1.2-.9,1.5-1.9,2.9-2.8,4.4-.2.3-.4.6-.6.9,0,0,0,0-.1,0-2.4-1.6-4.7-3.1-7-4.7-.4-.2-.7-.5-1.1-.7-.2-.1-1-.3-1.1,0-1.9,4.2,1.7,7.9,4.9,10,.3.2.7.4,1,.6,0,0,0,0,0,0,0,0,0,0,0,0,0,0-.1.2-.2.3,0,0-.2.3-.2.5h0c0,0,0,.1,0,.1,0,0,.1,0,.2,0,4.7,1.4,9,4.4,11.9,8.4.2.2.4.5.5.8h.2c0-.2.1-.2.2-.2.1,0,.3-.2.4-.3q0,0,0,0c1.2-.8,2.4-1.6,3.6-2.4,0,0,.1,0,.2-.1,0,0,.2-.1.2-.2s.2-.1.3-.2c0-.1,0-.2,0-.3-.6-1.1-1.1-2.2-1.7-3.4-.6-1.3-1.3-2.5-1.5-4-.4-2.7-.4-5.5-.4-8.2s0-.9,0-1.4c0-.6-.2-1.3-.5-1.9,0,0,0-.1,0-.2,0-.1-.1-.3-.2-.4-1.6-3.1-5.2-5-8.6-5.7h0ZM190.2,96c.1,0-.1.6-.2.7-.2.3-.4.6-.6.8h0c.2.3.4.5.6.8.1.1,0,.2-.2.2-.2,0-.4,0-.5-.2,0-.1-.2-.2-.2-.3-.2.3-.4.7-.6,1,.2.2.3.5.5.8.1.2,0,.4-.2.5-.2,0-.4,0-.5-.2,0-.1-.2-.3-.3-.4-.2.3-.4.5-.5.8.1.2.2.3.4.5,0,.1,0,.4,0,.5,0,0-.2.3-.2.2-.1-.1-.2-.3-.3-.4,0,0-.1-.2-.2-.2l-.5.8c.2.2.4.5.6.7.1.1,0,.3-.1.4s-.4,0-.5-.1c-.1-.1-.2-.3-.3-.4-.3.4-.5.8-.8,1.2,0,0,0,0,0,0-.6-.5-1.2-.9-1.8-1.4,0,0,0-.2,0-.3h0c0-.1,0-.3.2-.4.2-.3.4-.6.6-.8,0-.1.2-.2.2-.3-.2-.2-.3-.4-.5-.6-.1-.2,0-.3.1-.4.2,0,.4,0,.5.1,0,0,.1.2.2.3.2-.3.4-.5.5-.8-.1-.1-.2-.3-.3-.4,0-.1,0-.4,0-.5,0,0,.2-.3.2-.2.1.1.2.3.3.4,0,0,0,0,.1.2.2-.3.4-.6.6-.9-.1-.2-.2-.4-.4-.6-.1-.2,0-.4.2-.5.2,0,.4,0,.5.1,0,0,.1.2.1.2.2-.3.4-.6.6-.8-.1-.2-.2-.3-.4-.5-.1-.1,0-.2.2-.2.2,0,.4,0,.5.2,0,0,0,0,0,0,.1-.2.3-.4.4-.6,0,0,0,0,0,0,.6.4,1.2.8,1.8,1.2h0Z"/>
      <path d="M195.9,110.1c0,0-.2.1-.2.2,0,0-.1,0-.2.1,0,0,0,0,0,.1,0,0,.1,0,.2,0,0,0,.2-.2.3-.3,0-.1.1-.2.2-.3,0,0-.2.1-.3.2h0ZM191.4,113.1c0,0-.1,0-.2.1h-.2c0,.2,0,.2,0,.3,0,.2.4-.1.6-.4,0,0,.1-.2.1-.2-.1,0-.3.2-.4.3h0Z"/>
      <path d="M196.2,109.9s0,0,0,0c0,0-.2.1-.3.2,0,0-.2.1-.2.2,0,0-.1,0-.2.1-1.2.8-2.4,1.6-3.6,2.4q-.8.5,0,0c-.1,0-.3.2-.4.3,0,0-.1,0-.2.1h-.2c0,.1,0,.2,0,.2h0c-.2,0-.3.2-.2.3.7,1.1,1.3,2.2,2,3.3,1.5,2.5,3,5,4.5,7.5,1.6,2.6,3.2,5.3,4.8,7.9.9,1.6,1.9,3.1,2.8,4.6.6.9,1.3,1.7,2.3,2.1,1.7.7,4,.2,5.2-1.1,1.4-1.5,1-3.8,0-5.3-.9-1.3-1.8-2.6-2.7-3.9-1.6-2.4-3.3-4.8-4.9-7.2-1.7-2.4-3.4-4.9-5-7.3-1-1.4-1.9-2.8-2.9-4.2,0,0,0-.1-.1-.2,0-.1-.3,0-.5,0h0ZM209.8,134.1c.4.5.8,1,1,1.7,0,.3,0,.7-.3.9-.5.3-1.2.2-1.8,0-.7-.3-1.2-.9-1.5-1.6h0c-.1-.6-.4-2.1.5-2.2.9,0,1.6.6,2.1,1.2h0Z"/>
      <path d="M188.3,94.8c-.1.2-.3.4-.4.6,0,0,0,0,0,0-.1-.1-.3-.2-.5-.2-.1,0-.3,0-.2.2.1.2.2.3.4.5-.2.3-.4.6-.6.8,0,0-.1-.2-.1-.2-.1-.2-.3-.2-.5-.1-.2,0-.3.3-.2.5.1.2.3.4.4.6-.2.3-.4.6-.6.9,0,0,0,0-.1-.2-.1-.1-.2-.3-.3-.4,0-.1-.2.2-.2.2,0,.1-.1.4,0,.5.1.1.2.3.3.4-.2.3-.4.5-.5.8,0,0-.1-.2-.2-.3-.1-.2-.4-.2-.5-.1s-.2.2-.1.4c.1.2.3.4.5.6,0,.1-.2.2-.2.3-.2.3-.4.6-.6.8,0,0-.1.2-.2.4h0c0,.2,0,.3,0,.3.6.5,1.2.9,1.8,1.4,0,0,0,0,0,0,.3-.4.5-.8.8-1.2.1.1.2.3.3.4.1.2.4.2.5.1s.2-.2.1-.4c-.2-.2-.4-.5-.6-.7l.5-.8c0,0,.1.2.2.2.1.1.2.3.3.4,0,.1.2-.2.2-.2,0-.1.1-.4,0-.5-.1-.2-.2-.3-.4-.5.2-.3.4-.5.5-.8,0,.1.2.3.3.4.1.2.3.2.5.2.1,0,.3-.3.2-.5-.2-.2-.3-.5-.5-.8.2-.3.4-.7.6-1,0,.1.2.2.2.3.1.1.3.2.5.2.1,0,.3,0,.2-.2-.2-.3-.4-.5-.6-.8h0c.2-.3.4-.6.6-.8,0,0,.3-.6.2-.7-.6-.4-1.2-.8-1.8-1.2,0,0,0,0,0,0h0ZM186,102.2c0,.1-.2.3-.3.4,0,0,0,0,0,0,0,0,0,0,0,0h0s0,0,0,0c0,0,0,0,0,0,0,0,0,0,0,0,0,0,0,0,0,0,0,0,0,0,0,0,0,0-.2-.2-.2-.2-.2-.2-.4-.3-.6-.5-.2-.2-.5-.4-.7-.6.1-.2.3-.4.4-.6.1-.2.2-.3.3-.4h0c.4.6.9,1.1,1.3,1.7h0ZM186.9,100.9h0c0,.1-.2.2-.2.4,0,.1-.2.2-.2.4h0c-.4-.6-.9-1.1-1.3-1.7,0-.1.2-.3.3-.4,0-.1.2-.2.3-.4h0c.4.6.8,1.2,1.2,1.7h0ZM187.8,99.5c-.2.3-.4.5-.6.8h0c-.4-.6-.8-1.2-1.2-1.7.2-.3.4-.6.6-.9h0c.4.6.8,1.2,1.2,1.8h0ZM188.9,97.9h0c-.2.3-.4.6-.6.9l-1.2-1.8c.1-.2.2-.3.3-.5,0-.1.2-.2.3-.4h0c.4.6.8,1.1,1.2,1.7h0ZM188.4,95.7l.6.4c.2.2.5.3.8.5h0c-.2.3-.3.5-.5.7-.4-.5-.8-1.1-1.1-1.6,0,0,0,0-.1-.1,0,0,0,0,0,0,0,0,0,0,0,0,0,0,0,0,0,0,0,0,.2.2.3.2Z"/>
    </g>
    <path class="st16" d="M196.2,109.6s-.7,3.5,0,7.1c.7,3.5,6.9,2.6,6.9,2.6,0,0,1.4-7.6-2.1-9.8s-4.8.2-4.8.2h0Z"/>
    <g>
      <path class="st7" d="M179.2,176.7s-2.6-31.6-3.1-36.3"/>
      <path class="st16" d="M67.1,138.1s-15.1,22.7-16.1,27.9-1.8,12.7,3.7,19.3c5.5,6.6,21.5,20.8,21.5,20.8l-9.1-68h0Z"/>
      <path class="st7" d="M66.7,152.9s0,15.4.4,22c.4,6.5,4.4,14.2,4.4,14.2,0,0-4.4-31.4-4.8-36.1Z"/>
      <path class="st10" d="M196.4,241.2c0,5.2-29.3,9.5-65.6,9.5s-65.6-4.3-65.6-9.5,29.3-9.5,65.6-9.5,65.6,4.3,65.6,9.5Z"/>
      <path class="st20" d="M62.2,110.9s8.5,83,12.2,91.7c3.7,8.7,20,38.5,57.2,34.2,37.2-4.4,44.8-26.8,48-45.1,3.2-18.3-8.9-92.6-8.9-92.6"/>
      <path class="st20" d="M172.8,102.6c.3,2.8.3,5.7-.2,8.5-2.4,13.6-.1,30-52.9,35.8-44,4.8-52.9-11.4-52.9-11.4,0,0-14.9-27.4-2.7-45.7,0,0-3.4-17.8,2.5-29.7.8-1.5,1.6-4.5,5.8-1.7,4.2,2.8,13.5,12,14.4,13.3,0,0,24.6-12.6,53.4-5.9,0,0,10-11.3,12.7-13.6.4-.3,2.9-2.6,4.2.2,0,0,9.9,19,8.8,30.3,0,0,5.8,9.3,7,19.9"/>
      <path class="st18" d="M118.5,100.3c-9.9-9-32-22.7-42.8-14.7-10.8,8-15.3,22.9-11.7,35.7,1.6,5.9,5,11.6,10.4,14.7,4.7,2.7,10.4,3.2,15.8,2.6,10.7-1.3,20.8-6.9,27.4-15.3,7.7,4.4,18.3,5.9,27.2,5.9,8.9,0,17.8-4.6,22.3-12.1,3.2-5.3,2-6.3,1.1-14-.9-7.9-4.4-15-17-18-11.6-2.8-25.8,5.7-32.7,15.3h0Z"/>
      <path class="st7" d="M110.6,128.3c0,.2-1.5,12.3,6,13.6,7.6,1.3,9.6-5.8,9.6-5.8,0,0,1.7-4.1-1.2-10.3s-14.5,2.5-14.5,2.5Z"/>
      <path d="M110.5,109.8c.8,8.1-3.4,16-10.7,19.8-7.4,3.8-16.6,2.4-22.6-3.3s-7.7-14.9-4.2-22.4c3.5-7.4,11.3-12.1,19.5-11.4,9.3.7,16.9,8.1,18,17.4,0,.7,1.2.9,1.1,0-1-8.6-7.2-16-15.7-18.1s-17.6,1.4-22.5,8.7-4.5,17.1.7,24.1c5.2,6.9,14.5,10,22.8,7.5,9.5-2.9,15.6-12.3,14.6-22.2,0-.7-1.2-.9-1.1,0Z"/>
      <circle class="st18" cx="141.3" cy="107.1" r="20.3"/>
      <path class="st20" d="M116.7,63.8c-.2-4.7,2.4-8.4,2.4-8.4-2.5.9-4.4,3.5-5.8,6.3-3-4.2-9.1-6-9.1-6,0,0,3,3.8,3.7,8-2.6-2.4-7.3-3-7.3-3,0,0,5.8,4.2,5.2,10.8,0,0,.7.7,1.5.5,1.2.9,3.9.6,5.2.3.8,0,1.9,0,3-.3,3.5-.9,1.3-3.5,1.1-8.2h0Z"/>
      <path class="st18" d="M167.4,155.1c-.1,11.4,2.8,37.8-11,52.6-9.1,9.7-15.9,12.7-25,14.2-.9.1-1.8.3-2.7.4-.9,0-1.8.1-2.7.2-9.2.5-16.4-.9-27.5-8.4-16.7-11.4-19.5-37.8-22.1-48.9-2.6-11.1,16-16.4,23.2-11.3,7.2,5.1,21.2,2.5,21.8,2.4h0c.7,0,16.5-1.9,22.4-8.3,6-6.6,23.6-4.2,23.5,7.2h0Z"/>
      <circle class="st14" cx="90.9" cy="112.6" r="20.3"/>
      <g>
        <path class="st15" d="M105.9,172.6l13.3-1.2c.8,0,1.6.6,1.5,1.4,0,2.2-.9,6.1-5.8,6.4-5.9.4-9.4-2-10.3-5-.2-.8.4-1.7,1.2-1.7h0Z"/>
        <path class="st15" d="M127,170.3l13.3-1.2c.8,0,1.6.6,1.5,1.4,0,2.2-.9,6.1-5.8,6.4-5.9.4-9.4-2-10.3-5-.2-.8.4-1.7,1.2-1.7h0Z"/>
        <path class="st15" d="M117.3,185.7l13.3-1.2c.8,0,1.6.6,1.5,1.4,0,2.2-.9,6.1-5.8,6.4-5.9.4-9.4-2-10.3-5-.2-.8.4-1.7,1.2-1.7h0Z"/>
      </g>
      <ellipse class="st14" cx="86" cy="112" rx="1.9" ry=".9" transform="translate(-44.9 59.1) rotate(-30.5)"/>
      <g>
        <path class="st17" d="M96.9,106.4c-1.8-2.4-4.9-3.9-8-3.7-5.4.3-9.7,6.3-8.4,11.5,1.4,5.2,8,8.3,12.9,6,4.9-2.3,6.7-9.5,3.4-13.8h0Z"/>
        <path class="st14" d="M93.9,104.8c-1-.6-2.1-.8-2.9-.6-1.4.3-1.5,2.1,0,3.4,1.4,1.3,3.9,1.8,4.8,1s0-2.8-1.8-3.8Z"/>
      </g>
      <g>
        <path class="st13" d="M104.4,236c.2,2.1-1.1,5.3-2.3,7.8-1.1,2.1-3.5,2.4-5,.6-1.8-2.2-3.8-5-4-7.1-.4-3.9,1.8-7.3,4.9-7.6s6,2.5,6.5,6.4h0Z"/>
        <path class="st13" d="M113.9,234.7c.3,2.5-1.4,6.4-3,9.5-1.4,2.6-4.5,3-6.4.7-2.2-2.6-4.7-6.1-5-8.6-.5-4.7,2.3-8.9,6.3-9.3s7.6,3,8.1,7.8h0Z"/>
        <path class="st13" d="M119.4,234.3c.2,2.1-1.1,5.3-2.3,7.8-1.1,2.1-3.5,2.4-5,.6-1.8-2.2-3.8-5-4-7.1-.4-3.9,1.8-7.3,4.9-7.6,3.1-.3,6,2.5,6.4,6.4h0Z"/>
      </g>
      <g>
        <path class="st13" d="M154.9,231.1c.2,2.1-1.1,5.3-2.3,7.8-1.1,2.1-3.5,2.4-5.1.6-1.8-2.2-3.8-5-4-7.1-.4-3.9,1.8-7.3,4.9-7.6s6,2.5,6.4,6.4h0Z"/>
        <path class="st13" d="M164.4,229.9c.3,2.5-1.4,6.4-3,9.5-1.4,2.6-4.5,3-6.4.7-2.2-2.6-4.7-6.1-5-8.6-.5-4.7,2.3-8.9,6.3-9.3,4-.4,7.6,3,8.1,7.8h0Z"/>
        <path class="st13" d="M169.8,229.5c.2,2.1-1.1,5.3-2.3,7.8-1.1,2.1-3.5,2.4-5.1.6-1.8-2.2-3.8-5-4-7.1-.4-3.9,1.8-7.3,4.9-7.6s6,2.5,6.4,6.4h0Z"/>
      </g>
      <ellipse class="st14" cx="115.8" cy="232.4" rx="1.3" ry="2.7" transform="translate(-107.5 99.8) rotate(-32.8)"/>
      <ellipse class="st14" cx="108.8" cy="231.5" rx="1.7" ry="3.4" transform="translate(-127.4 133.4) rotate(-42.3)"/>
      <ellipse class="st14" cx="100.4" cy="233.6" rx="1.4" ry="2.8" transform="translate(-110.5 91.7) rotate(-32.8)"/>
      <ellipse class="st14" cx="166.4" cy="227.7" rx="1.3" ry="2.7" transform="translate(-96.8 126.5) rotate(-32.8)"/>
      <ellipse class="st14" cx="159.2" cy="226.6" rx="1.7" ry="3.4" transform="translate(-111.1 166.1) rotate(-42.3)"/>
      <ellipse class="st14" cx="150.7" cy="228.9" rx="1.4" ry="2.8" transform="translate(-100 118.2) rotate(-32.8)"/>
      <g>
        <g>
          <path class="st13" d="M128,130.1c-1.9-4.8-8.8-12.4-10.2-12.2-1.3.1-8.1,8.8-9.2,14.1,3,2.4,6.9,4.2,10.5,3.8s6.8-3,8.9-5.7h0Z"/>
          <path class="st13" d="M109.7,134.2c-.2-.2,0-.4.2-.3,2,1.4,5.8,2.7,9,2.4,4.1-.4,6.3-2.7,8.3-4.2.2-.1.4,0,.2.2l-2.5,3.3s-2.6,3.9-5.3,4.7-8.5-4.8-8.5-4.8l-1.4-1.5h0Z"/>
        </g>
        <path class="st14" d="M117.9,118.9s7.6,7.1,8.9,11c0,0-2.4,3.8-6.8,4.2,0,0,0-5.7-2.2-15.2h0Z"/>
      </g>
      <g>
        <path class="st3" d="M66.8,55.1s3.3-.3,6.7,3.4,6.6,5.3,11.7,11.2"/>
        <path class="st1" d="M140.1,63.8s11.3-12.8,13-13.9c1.7-1.1,2.6-1.4,3.3-1"/>
        <path class="st5" d="M67.1,57.8c0-.4.2-.7.5-.8.6-.2,1.6-.2,3.1.9,1.9,1.4,9.4,8.8,12.3,11.8.3.3.4.8,0,1.1-.1.1-.3.2-.5.3-2.5.4-7.1,3.2-9.2,5-5.2,4.4-5.9-14.5-6.2-18.2Z"/>
        <path class="st12" d="M67.1,59.1s.4,9,1.8,13.5,2.5,4.5,4,4c0,0,0,0,0,0-1.7,1.6-5.9,5.6-7.4,7.7-.4.5-1.1.6-1.5.2-.3-.2-.4-.5-.4-.8-1.1-14.3,1.1-21.2,2.5-24.8,1.5-3.9,1.2,0,1.2,0h0"/>
        <path class="st5" d="M155.3,51.8c0-.4-.3-.7-.7-.7-.6,0-1.6,0-2.9,1.4-1.7,1.7-7.7,10.3-10.1,13.7-.3.4-.2.9.2,1.1.1,0,.3.2.5.2,2.6,0,7.6,1.9,9.9,3.3,5.9,3.4,3.3-15.3,3-19Z"/>
        <path class="st4" d="M74.7,84.7c-.4-.5-.8-.8-1.4-1.1-.4-.2-.8,0-1,.4-.1.3,0,.7.2.9.4.4,1,.7,1.6.8.3,0,.7-.2.7-.5,0-.2,0-.3-.1-.4h0Z"/>
        <path class="st4" d="M72.8,86.8c-.5-.6-1.1-1.1-1.8-1.5-.2-.2-.5-.1-.7,0s-.1.5,0,.7c.5.6,1.1,1.1,1.8,1.5.4.2.9-.4.6-.8h0Z"/>
        <path class="st4" d="M76.6,84.7c-.2-.9-.3-1.8-.3-2.8,0-.6-1.1-.7-1.2-.1-.3,1.1,0,2.3.7,3.2.2.2.5.2.7,0,.1-.1.2-.3.2-.4Z"/>
        <path class="st4" d="M79.3,82c-.2-.4-.2-.8-.1-1.2.2-.8-1.1-1-1.3-.3-.3.7,0,1.5.5,2.1.5.4,1.3,0,1-.6h0Z"/>
        <path class="st4" d="M82.2,81c0-.3-.1-.6-.1-.9,0-.4.2-.7,0-1.1-.1-.3-.5-.4-.8-.3-1,.3-.7,2-.4,2.7s1.5.3,1.3-.4h0Z"/>
        <path class="st4" d="M103.1,81c.2-.5.2-1.2.1-1.7,0-.4-.5-.7-.9-.6-.3,0-.6.3-.6.7,0,.6,0,1.2.2,1.7.2.3.5.4.8.3.1,0,.2-.2.3-.3Z"/>
        <path class="st4" d="M84.4,80.9c.6.3,1.1-.5.7-1-.2-.3-.2-.7-.1-1,.3-1-1.1-1.5-1.5-.5-.4.9,0,2,.8,2.5h0Z"/>
        <path class="st4" d="M107.8,83.2c.6.3,1.1-.5.7-1-.2-.3-.2-.7-.1-1,.2-1-1.1-1.5-1.5-.5-.4.9,0,2,.9,2.5h0Z"/>
        <path class="st4" d="M90,80c.3-.6.6-1.2.7-1.8.2-.9-1.1-1.4-1.3-.5-.2.7-.3,1.4-.3,2.1,0,.3.3.5.6.4.1,0,.2,0,.3-.2h0Z"/>
        <path class="st4" d="M110.1,84.3c.3-.6.6-1.2.8-1.8.2-.9-1.1-1.4-1.3-.5-.2.7-.3,1.4-.3,2.1,0,.3.3.4.6.4.1,0,.2,0,.3-.2Z"/>
        <path class="st4" d="M100.3,80.7c.2-.8.2-1.5.3-2.3,0-.3-.2-.5-.4-.5-.3,0-.5.2-.5.4-.2.8-.3,1.5-.3,2.3,0,.3.3.5.6.4.2,0,.3-.2.4-.3h0Z"/>
        <path class="st4" d="M97.9,79.8c.1-.5.2-.9.3-1.4.2-.8-1.1-1.1-1.4-.3-.1.4-.2.8-.3,1.2-.2.9,1.1,1.5,1.4.5h0Z"/>
        <path class="st4" d="M105.8,81.7c.1-.5.2-.9.3-1.4.2-.8-1.1-1.1-1.4-.3-.1.4-.2.8-.3,1.2-.2.9,1.2,1.5,1.4.5Z"/>
        <path class="st4" d="M94.5,80h.2c.3,0,.5-.1.6-.4.1-.4.2-.8.3-1.2.2-.7-.9-1.2-1.1-.4,0,.4-.2.8-.3,1.2-.1.3,0,.7.3.8h0Z"/>
        <path class="st4" d="M92.5,79.8c.6-.2.6-.8.7-1.4.1-.7-.9-.8-1.1-.2s-.5,1-.1,1.5c.1.2.4.2.6.1h0Z"/>
        <path class="st4" d="M88.1,79.4c-.3-.6-.7-1.2-1-1.8-.2-.3-.5-.4-.8-.2-.3.2-.4.5-.2.8.3.6.6,1.2,1,1.8.1.2.4.4.7.3,0,0,.2,0,.3-.2.2-.2.2-.5,0-.7h0Z"/>
        <path class="st4" d="M149.2,76.7c.2-.5.6-1,1.1-1.3.3-.2.8-.2,1.1.2.2.3.2.7,0,.9-.3.5-.8.8-1.4,1.1-.3.1-.7,0-.8-.4,0-.2,0-.3,0-.5h0Z"/>
        <path class="st4" d="M151.5,78.4c.4-.7.9-1.3,1.4-1.8.2-.2.5-.2.7,0s.2.5,0,.7c-.4.7-.9,1.3-1.4,1.8-.4.3-1-.2-.8-.6h0Z"/>
        <path class="st4" d="M147.4,77.1c0-.9-.1-1.8-.3-2.8-.1-.7.9-.9,1.2-.4.5,1,.5,2.3,0,3.3-.1.2-.4.3-.7.2-.1,0-.2-.2-.2-.4h0Z"/>
        <path class="st4" d="M144.1,75.1c0-.4,0-.8-.1-1.2-.3-.7.8-1.2,1.2-.6.4.7.4,1.5,0,2.1-.3.5-1.2.3-1.1-.4h0Z"/>
        <path class="st4" d="M141.1,74.7c0-.3,0-.6,0-.9-.1-.4-.4-.6-.3-1,0-.3.4-.5.7-.5,1,.1,1.1,1.8,1,2.5s-1.3.7-1.3,0Z"/>
        <path class="st4" d="M120.7,79.3c-.3-.5-.5-1.1-.5-1.7,0-.4.3-.8.8-.8s.6.2.7.5c.2.5.2,1.2.2,1.7,0,.3-.4.5-.8.5-.2,0-.3-.1-.4-.3Z"/>
        <path class="st4" d="M138.9,75.1c-.5.4-1.2-.3-.9-.8.1-.3,0-.7-.1-1-.5-.9.8-1.7,1.3-.8.6.8.5,2-.3,2.6h0Z"/>
        <path class="st4" d="M116.6,82.4c-.5.4-1.2-.3-.9-.8.1-.3,0-.7-.1-1-.5-.9.8-1.7,1.3-.8.6.8.5,2-.3,2.6h0Z"/>
        <path class="st4" d="M133.3,75.4c-.5-.5-.8-1-1.1-1.6-.4-.8.7-1.6,1.2-.8.4.6.6,1.3.8,2,0,.3-.2.5-.5.5-.1,0-.2,0-.3-.1h0Z"/>
        <path class="st4" d="M114.5,83.9c-.5-.5-.8-1-1.1-1.6-.4-.8.7-1.6,1.2-.8.4.6.6,1.3.8,2,0,.3-.2.5-.5.5-.1,0-.2,0-.3-.1h0Z"/>
        <path class="st4" d="M123.4,78.3c-.3-.7-.6-1.5-.8-2.2,0-.2,0-.5.3-.6.2,0,.5,0,.6.3.3.7.6,1.5.8,2.2,0,.3-.2.5-.5.5-.2,0-.3,0-.4-.2h0Z"/>
        <path class="st4" d="M125.5,77c-.2-.4-.4-.8-.6-1.3-.3-.8.9-1.3,1.3-.6.2.3.4.7.6,1.1.4.8-.8,1.7-1.3.8Z"/>
        <path class="st4" d="M118.2,80.5c-.2-.4-.4-.8-.6-1.3-.3-.7.9-1.3,1.3-.6.2.3.4.7.6,1.1.4.9-.8,1.7-1.3.8Z"/>
        <path class="st4" d="M128.9,76.3s0,0-.1,0c-.3,0-.6,0-.7-.2-.2-.4-.4-.7-.6-1.1-.3-.7.7-1.3,1-.7.2.4.4.7.6,1.1.2.3,0,.7-.2.8Z"/>
        <path class="st4" d="M130.8,75.8c-.6,0-.8-.7-1-1.2-.3-.6.7-1,1.1-.5s.7.8.4,1.4c0,.2-.3.3-.5.2Z"/>
        <path class="st4" d="M134.9,74.4c.2-.7.4-1.3.6-2,.1-.3.4-.5.7-.3.3,0,.4.4.4.7-.2.7-.3,1.3-.6,2,0,.3-.3.5-.6.4-.1,0-.2,0-.3,0-.2-.2-.3-.4-.2-.7h0Z"/>
        <path class="st0" d="M104.6,63.6c-.7-1.6-1.8-3-3.1-4.2-1.8-1.5,5.8,2.1,6.1,3.4s.3-1.6.3-1.6c0,0-1.3-5.7-2.7-6.5s4.8,1.8,6.9,5.4"/>
        <path class="st19" d="M165.7,74.2c1.4-.2,2.3-1.6,2-2.9-.2-1.2-1.3-2.1-2.6-2.1-44.8,24.8-105.1,12.9-105.1,12.9-1.4.3-2.2,1.6-1.9,3,.2,1.2,1.3,2,2.5,2,0,0,57.7,13.3,105.1-12.9h0Z"/>
        <path class="st19" d="M111.2,87.2c38.3-3.6,54.4-13.9,54.4-13.9-4.9-35.2-31.8-44.3-57.5-41.5h-.2c-25.7,2.8-48.8,10.2-47.2,54.4,0,0,21.4,3.7,50.6,1h0Z"/>
        <path class="st19" d="M131.3,69.4s-1.4-27.6-3.7-38.9c0-2.2-1.8-3.9-3.9-3.9s-.2,0-.3,0c-4.2,0-17.5,1.2-17.5,1.2h-.3s-13.2,1.8-17.4,2.7c-2.1.3-3.6,2.3-3.3,4.4,0,.1,0,.2,0,.3.2,11.5,4.8,38.7,4.8,38.7,0,0,13.6-6.9,41.5-4.5h0Z"/>
        <path class="st19" d="M126.2,76.5s-7.3-18.9-7.7-28.5c-.2-5.5-.5-14.5-2.8-21-1.8-4.9-4.7-8.4-9.7-7.8h-.5c-11.5,1.2-7.7,21.5-6,30.9,1.8,9.4-1.3,29.5-1.3,29.5,8.7-4,18.5-5.1,27.9-3h0Z"/>
        <path class="st11" d="M128.9,68.4c0,.3.2.6.5.6h1.4c.3-.2.5-.4.5-.7-.7-19.2-3.2-33.4-3.4-36.1-.3-5-3.1-5.5-3.1-5.5,0,0-.4-.3-5.6,0,0,0,.3,2.4.8,5.2,1-.1,2,0,3,.2.4.2.8.6.9,1,.8,3.8,5.2,25.4,5.1,35.1Z"/>
        <path class="st6" d="M60.1,82.1s50.2,12,105.1-12.9c0,0-53.7,20.3-105.1,12.9Z"/>
        <path class="st9" d="M132.2,33.1s-3.6-.9-4.3-1c1.8,11.9,3,24,3.4,36.1,0,0,.2-23.4.9-35.1h0Z"/>
        <path class="st9" d="M80.8,38.9c1.3-.8,2.7-1.5,4.1-2.1.7,12.2,2.2,24.4,4.4,36.5,0,0-5.2-23.1-8.4-34.4Z"/>
        <path class="st9" d="M126.1,75.7s-7.2-18.6-7.6-28.2c-.2-5.5-.4-13.9-2.8-20.5l3.3-.2s2.5,15.7,1.6,22.3c-.8,6,5.1,23.6,5.4,26.6h0Z"/>
        <path class="st9" d="M98.2,79s3.1-20,1.3-29.5c-1-5.4-2.6-13.7-1.7-20.6l-3.4.6s.8,15.2,3.4,22.1c2.1,5.7.2,24.4.4,27.4h0Z"/>
        <path class="st8" d="M63.9,82.5c3,.5,6,.8,9,.9,0,0-2.9-25.8,9.9-36.7l-1.4-5.2s-15.9,8.2-17.5,41h0Z"/>
        <path class="st8" d="M92.4,31.7c.2-.2.2-.6,0-.8-.1-.1-.3-.2-.5-.1l-3.8.8c-1.5.1-2.5,1.4-2.4,2.9,0,0,0,0,0,0,.2,2.6,3.2,32.2,4.3,36.6,0,.3.3.5.6.4h1.2c.3-.2.6-.5.5-.8l-3.4-35.8s-.5-.5,1-1.2c.9-.6,1.7-1.2,2.4-2.1h0Z"/>
        <path class="st8" d="M106,20.2s-5.7.8-6.7,7.9c-1,7,1.2,18.5,1.3,18.9h0c0,.5,2.4,18.9-.3,28.5l1.5-.2c.3,0,.5-.3.5-.5.3-2.9,2.1-18.8-.2-27.7-2.5-9.8-1.5-17.6-.7-18.5s3.4-3.7,5.5-4.1,1.7-4.2-.9-4.2h0Z"/>
        <path class="st11" d="M132.1,33.2s27.1,4.4,33,36c0,0,1.8-.4-12.5,4,0,0-7.1-23.3-20.9-28.4,0,0,.5-11.7.5-11.7Z"/>
        <path class="st8" d="M61.9,83c-.7-.4-1.5-.2-1.9.5,0,0,0,.2-.1.3-.7,1.5,1.2,1.8,1.2,1.8,0,0,33.3,10.5,91.7-6.5,0,0-47.7,15.5-90.9,4h0Z"/>
      </g>
      <path class="st20" d="M164.9,103.6s-25.9-4.4-38.6,8.6c0,0-3.1-10.1,3.8-17.2,0,0,25.2-16.8,34.8,8.6"/>
      <path d="M128.4,96.5c-4.6,3.7-3.9,11.3-2.4,16.3,0,.3.8.4.9.2,1.7-1.8,3.8-3.3,6-4.5,5.3-3.2,11.3-5,17.5-5.5,5-.4,9.9.2,14.8,1.4.6.2.7-.3,0-.5-12.7-3.2-26.7-1.4-37.1,6.9-.7.6-1.5,1.2-2.1,1.9l.9.2c-1.5-5-2.2-12.4,2.3-16.1.2-.2-.7-.5-.9-.3h0Z"/>
      <path class="st20" d="M128.7,114.9c5.8-3.8,10.6-7.1,18.1-8.4s17.1.6,18,.2.3-1.1.3-1.1c-25.1-5.7-37.7,8.7-37.7,8.7,0,0,0,1.4,1.2.5Z"/>
    </g>
  </g>
</svg>