<?xml version="1.0" encoding="UTF-8" standalone="no"?>
<svg
   id="Layer_1"
   version="1.1"
   viewBox="0 0 1366 768"
   sodipodi:docname="les3.svg"
   inkscape:version="1.4.2 (ebf0e940, 2025-05-08)"
   xmlns:inkscape="http://www.inkscape.org/namespaces/inkscape"
   xmlns:sodipodi="http://sodipodi.sourceforge.net/DTD/sodipodi-0.dtd"
   xmlns="http://www.w3.org/2000/svg"
   xmlns:svg="http://www.w3.org/2000/svg">
  <sodipodi:namedview
     id="namedview44"
     pagecolor="#ffffff"
     bordercolor="#000000"
     borderopacity="0.25"
     inkscape:showpageshadow="2"
     inkscape:pageopacity="0.0"
     inkscape:pagecheckerboard="0"
     inkscape:deskcolor="#d1d1d1"
     inkscape:zoom="1.0269403"
     inkscape:cx="867.13905"
     inkscape:cy="482.98818"
     inkscape:current-layer="ToolboxOpen" />
  <!-- Generator: Adobe Illustrator 29.1.0, SVG Export Plug-In . SVG Version: 2.1.0 Build 142)  -->
  <defs
     id="defs1">
    <style
       id="style1">
      .st0 {
        fill: #cb9231;
      }

      .st1 {
        fill: #34607f;
      }

      .st2 {
        fill: #9d4324;
      }

      .st3 {
        fill: #f9d5a1;
      }

      .st4 {
        fill: #263238;
      }

      .st5 {
        fill: #ffe8ae;
      }

      .st6 {
        fill: #fab400;
      }

      .st7 {
        fill: #8d8d8e;
      }

      .st8 {
        fill: #060b11;
      }

      .st9 {
        fill: #d3d3d5;
      }

      .st10 {
        fill: #3b3734;
      }

      .st11 {
        fill: #629bd3;
      }

      .st12 {
        fill: #fcfcfe;
      }

      .st13 {
        fill: #6a6b6b;
      }

      .st14 {
        fill: #fff5df;
      }

      .st15 {
        fill: #ea4d64;
      }

      .st16 {
        fill: #be2033;
      }

      .st17 {
        fill: #d1d2d3;
      }

      .st18 {
        fill: #afafaf;
      }
    </style>
  </defs>
  <g
     id="Wrench">
    <path
       class="st18"
       d="M707.9,630c-1.7-1.5-4.2-3.1-6.6-2.4h-.3c-.2,0-.9.5-.7.8h0l4.4,11,.4,1.1v.2l-.2.2-6.1,3.1c-.4.2-.8.4-1.3.6v-.2l-4.8-10.1-.7-1.5c0-.3-1-1-1.3-.8-4.9,3.4-3.4,10-1.1,14.5.2.5.5,1,.8,1.4h0c0,0-.3.2-.4.3-.2,0-.4.3-.5.4h0l.2.2c4.4,4.8,7.1,10.9,7.7,17.4v1.2h1.2l5.7-.3h1.1c0,0,.2-.2.2-.3,0-1.6.2-3.3.4-4.9,0-1.9.4-3.7.9-5.5,1.4-3.3,3.1-6.6,5-9.6l.9-1.6c.4-.8.6-1.6.7-2.5v-.9c.4-4.3-2.4-8.8-5.7-11.8h0ZM708,647.6c0,.2-.6.6-.7.7l-1.2.6h0c0,.4,0,.9,0,1.3s-.2.2-.4,0c-.2,0-.4-.3-.5-.5v-.5l-1.4.7v1.2c0,.3-.2.5-.5.4-.3,0-.5-.2-.5-.5v-.6l-1.2.6v.8c0,.2,0,.4-.3.5,0,0-.4.3-.4,0v-1.1c-.4.2-.7.4-1.1.5v1.2c.2.2,0,.3,0,.4h0c-.3,0-.5-.3-.5-.5v-.6l-1.7.8h0l-1-2.8s0-.2.2-.4h0c0,0,.3-.2.4-.3l1.2-.6.5-.2v-1c0-.2,0-.3.2-.4h0c.3,0,.5.3.5.5v.5l1.1-.5v-.7c0-.2.2-.4.3-.6,0,0,.4-.3.4,0v.9l1.3-.6v-.9c0-.3.3-.5.6-.4.3,0,.5.2.5.5v.4l1.2-.6v-.8c0-.2.2-.2.3,0,.2,0,.4.3.5.5h0l.9-.4h0l1.3,2.7v-.2Z"
       id="path1" />
    <path
       d="M705.5,667.3h-1.1l-5.7.2h-1.2c-.2,0-.4,0-.4.3v35.7c0,1.4.4,2.7,1.2,3.9,1.6,2,4.2,2.8,6.7,2.2,2.6-.7,3.6-3.6,3.5-6.1,0-2-.3-4.1-.4-6.2l-.8-11.4-.8-11.6-.5-6.7v-.3c-.3,0-.5,0-.7,0h.2ZM704.6,703.8c.2.8.2,1.7,0,2.5,0,.4-.5.8-1,.8-.8,0-1.6-.5-2-1.2-.6-.8-.8-1.9-.6-2.8h0c.2-.8.9-2.7,2-2.1.9.6,1.5,1.7,1.5,2.8h0Z"
       id="path2" />
    <path
       d="M706.6,645l-.9.4h0c0-.2-.2-.4-.5-.5,0,0-.4,0-.4,0v.8l-1.2.6v-.4c0-.3-.2-.5-.5-.5s-.6,0-.6.4v.9l-1.3.6v-.9c0-.3-.4,0-.4,0-.2,0-.3.3-.3.6v.7l-1.1.5v-.5c0-.3-.2-.5-.5-.5s-.3,0-.4.3h0v1.1c0,0-.4.2-.4.2l-1.2.6c-.2,0-.3.2-.4.3h0c-.2,0-.3.3-.2.4l1,2.8h0l1.7-.8v.6c0,.3.3.5.6.5s.3,0,.4-.3h0v-1.3c.2-.2.6-.3.9-.5v1.1c0,.3.4,0,.4,0,.2,0,.3-.3.3-.5v-.8l1.1-.6v.6c0,.3.2.5.5.5s.6,0,.5-.4v-1.2l1.4-.7v.5c0,.2.3.4.5.5,0,0,.4,0,.4,0s0-.9,0-1.3h0l1.2-.6c0,0,.8-.5.7-.7l-1.2-2.7h0v.2ZM699,651.8l-.6.3h0s0-.4,0-.4-.2-.6-.3-.9l-.4-1.2.9-.4c.2,0,.4-.2.6-.3h0v2.9h-.1ZM700.9,650.9h0l-.5.2-.5.2h0l-.3-2.7.6-.3.5-.2h0c0,.9.2,1.8.2,2.7h0ZM702.8,650l-1.2.6h0l-.3-2.8,1.3-.6h0v2.8h.2ZM705.2,648.9h0l-1.4.6v-2.8c0,0,.4-.2.6-.3l.5-.3h0l.2,2.8h.1ZM706.1,646l.4.9.5,1.1h0l-1.1.5-.3-2.6v-.2h0s.3.3.3.4h0Z"
       id="path3" />
  </g>
  <g
     id="Screwdriver">
    <path
       class="st18"
       d="M584.3,358.8c.4-9.3-1-19.3-.7-28.7l1.1-.3.2.7,1,28.3c0,.2-1.3.3-1.5,0h0Z"
       id="path4" />
    <path
       class="st7"
       d="M586.2,326.2h-.3c-.5-.9-1.8-2.1-2.3-3.2-.2,0,0,.2,0,.2-.2,0-.2.2-.3.4,0-.1,0-.8,0-.8h1.9c.2,1.2.6,2.3.8,3.5h0Z"
       id="path5" />
    <g
       id="g6">
      <path
         class="st18"
         d="M587.2,359h-3c.2,0,0-.2,0-.3.2.3,1.4.2,1.5,0l-1-28.3-.2-.7-1.1.3c-.9-2.5-1.1-4.1-.2-6.5s0-.4.3-.4c0,.5.7,4,.8,4.2s1.5-.5,1.6-.6,0-.3,0-.4h.3c.3,1.7-.3,2.4-.3,4-.2,3.9.6,9,.7,13.1.2,5.2.4,10.4.6,15.6h.1Z"
         id="path6" />
      <polygon
         class="st9"
         points="585.7 333.9 586.3 346 586.6 358 586 346 585.7 333.9"
         id="polygon6" />
    </g>
    <path
       class="st13"
       d="M585.9,326.3c0,.1.2.3,0,.4s-1.4.8-1.6.6-.8-3.7-.8-4.2,0-.2,0-.2c.5,1.1,1.8,2.3,2.3,3.3h0Z"
       id="path7" />
    <g
       id="g11">
      <path
         class="st16"
         d="M584.2,359.1h3c1,0,3.1-.5,3.5,1.2s-1.1,2.4-1.6,3.7c-1.5,4,1.3,11.4,2.1,15.7s1.9,18.5-6.1,18.5-6.9-13.6-6-18.7c.8-4.3,4.4-11.6,2.5-15.5s-2.1-2.1-2-3.4.4-1,1-1.2,2.9-.1,3.6-.1v-.2Z"
         id="path8" />
      <g
         id="g10">
        <path
           class="st17"
           d="M587.8,361.2c.3.3.4,1.5,0,1.7s-3.9.3-4.2.2-.5,0-.5,0c-.2-.2-.3-1.5,0-1.7s4.6-.3,4.8-.1h0Z"
           id="path9" />
        <path
           d="M587.2,361.8c0,.1,0,.4,0,.5-.4,0-3.6.3-3.7,0s0-.3.3-.4,3.4-.3,3.5-.1h0Z"
           id="path10" />
      </g>
    </g>
  </g>
  <g
     id="Saw">
    <g
       id="Generative_Object">
      <path
         class="st0"
         d="M880.9,235.6c1.2.3,2.4,1.2,3.7.8,4.2-1.3,4.8-13.2,4.1-16.9-1.1-5.8-4.7-6.7-7.8-10.3l-25,1.2h0c-3,2.8-5.7,4.5-6.5,8.8-.6,3.1.2,13.3,1.9,15.8,2.2,3.3,4.4,1.1,7.3,1,2.4-.2,5.4.5,7.9.6,2.9,0,5.7-.5,8.5-.8,2.1-.2,3.8-.6,5.9-.1h0ZM866.1,227.3c-1.2.3-2.3,1.2-3.6,1.3-4.4.7-6.2-5.9-1.9-7.7,2.5-1.1,15.8-1,17.9.6,2.7,2.1,1.4,7-2.1,6.9-.5,0-1.2-.3-1.7-.4-3.2-.8-5.3-1.7-8.8-.7h.2Z"
         id="path11" />
    </g>
    <path
       class="st18"
       d="M877.6,138.6c-.5-9.3-8.4-16.5-17.7-16.1h0l-3.4.2,3.3,3v.7l-3.5.2,3.3,3v.6l-3.5.2,3.3,3v.6l-3.5.2,3.3,3v.6l-3.5.2,3.3,3v.6l-3.5.2,3.3,3v.6l-3.5.2,3.3,3v.6l-3.5.2,3.4,3v.6l-3.6.2,3.4,3v.6l-3.6.2,3.4,3.1v.6l-3.6.2,3.4,3.1v.6l-3.6.2,3.4,3.1v.6l-3.6.2,3.4,3.1v.6l-3.6.2,3.4,3.1v.5l-3.6.2,3.4,3.1v.5l-3.6.2,3.4,3.1v.5l-3.6.2,3.4,3.1v.5l-3.7.2,3.5,3.1v.5l-3.7.2,3.5,3.1v.5l-3.7.2,3.5,3.2v.5l-3.7.2,3.5,3.2v.5l-3.7.2,3.5,3.2v.5l-3.7.2,3.5,3.2v.9l25.4-1.2-3.4-71v-.4ZM872.1,203.2c0-1.8,1.3-3.3,3.1-3.4s3.3,1.3,3.4,3.1c0,1.8-1.3,3.3-3.1,3.4s-3.3-1.3-3.4-3.1Z"
       id="path12" />
  </g>
  <g
     id="Pencil">
    <path
       class="st12"
       d="M1137.7,627.6c0-.2-.4-.6-.6-.5v-.4c.4,0,.6.5.7.9h0Z"
       id="path13" />
    <g
       id="g18">
      <path
         class="st4"
         d="M1137.2,627.4l1.8,64.4c0,.2-.2,1.2-.4,1.2-.4,0-1.6,0-2.1,0l-1.9-57.7c0,0,0-.2,0-.3v-7.1c0,0,0,0,.2,0,.3-.2.5-.5.7-.6.4-.2,1.1.2,1.6.2h.1Z"
         id="path14" />
      <g
         id="g17">
        <path
           class="st14"
           d="M1137.2,627.4c-.5,0-1.2-.4-1.6-.2-.3.2-.5.5-.7.6,0,0-.2,0-.3,0,0,0-.2-.3-.2-.5-.8-1.3-1-.2-2,0-.4,0-.7-.2-1.1,0,.7-2.1,1.4-4.3,2.1-6.4h.9c.4,0,.8,0,1.2,0,.5,1.7,1.1,3.5,1.5,5.3v.6l.2.3Z"
           id="path15" />
        <path
           class="st8"
           d="M1135.5,621.5c-.4,0-.8,0-1.2,0h-.9c0-.4.6-2.1.8-2.4s.5-.2.6,0,0,.3.2.4c.2.7.3,1.6.5,2.3h0Z"
           id="path16" />
        <path
           class="st6"
           d="M1131.3,627.7h0c.4-.2.7,0,1.1,0,1-.3,1.2-1.4,2,0,0,0,0,.3.2.4l2.1,64.8v.3c-.5.4-2.8.3-3.2,0v-1.2"
           id="path17" />
      </g>
    </g>
    <path
       class="st15"
       d="M1136.1,695.1c-1.8.2-2.2-1.2-2.6-2.4h5.2s-.7,2.2-2.6,2.3h0Z"
       id="path18" />
  </g>
  <g
     id="Hammer">
    <g
       id="g22">
      <path
         class="st12"
         d="M1167.5,363.7c.7.3.9,1.1.7,1.7-1.8,1.7-3.1-1.6-.7-1.7Z"
         id="path19" />
      <path
         class="st3"
         d="M1165.2,309.9c0-4.3,0-8.5,0-12.8v12.8h0Z"
         id="path20" />
      <path
         class="st2"
         d="M1167.5,363.7c-2.4,0-1.1,3.4.7,1.7-.5,1.4-2.9.6-2.1-1.2s.9-.7,1.4-.5Z"
         id="path21" />
      <path
         class="st6"
         d="M1171.6,366.5c-.4,1.6-2.5,1.8-3.8,1.9-4.5-1.1-2.7-4.1-2.7-7.4.2-7.8,0-16.2,0-24v-3.8c0-2.8,0-5.6,0-8.4v-4.3c0-3.5,0-7.1,0-10.6v-12.8c-.2-1.1-.5-2.4,0-3.4.8,0,4.4.2,4.9,0,0,7.2,0,14.4,0,21.6.3,14.1.4,28.3.8,42.5,0,1.8.9,7.5.6,8.7h0Z"
         id="path22" />
    </g>
    <g
       id="g31">
      <path
         class="st1"
         d="M1176.7,289.9c-1.5-1.1-5.5-1-6,1.1s0,1.5-.2,2.2h-7.1c0-1.2-.2-4.1-.9-5,3-1.4,1.6,4.7,3.9,4.3s3.1-4.7,5-5.4,3.9.6,5.4-.2c0,.9,0,2.3,0,3h-.1Z"
         id="path23" />
      <path
         class="st4"
         d="M1162.4,288.2c.7.9.8,3.8.9,5s0,.3,0,.5c-.9-.6-.4-2.2-.6-3.1-.6-3.5-5.5-2.7-7.6-1s-3.7,5.6-4.8,6.2-1.6.2-1.9-.8c.5-.1.8-.1,1.2-.5,1.8-1.9,2.4-5.4,5.4-6.7s6.1-1.1,7.3.5h0Z"
         id="path24" />
      <path
         class="st18"
         d="M1182.8,285.6c0,.7,0,2,0,2.7s-.2,2.3-.9,2.4-4.5,0-4.8,0-.3-.4-.4-.6c.2-1.1,0-2.2,0-3.3.7.5,5.2.5,5.5,0s-.3-1.3.3-1.2h.1Z"
         id="path25" />
      <path
         class="st1"
         d="M1177,282.1c0,.4,0,.8,0,1.2,0,1.1,0,2.2,0,3.3h-.2v-1.6c-4.6.4-5.3.4-5.9-4.1.2,2.5,2.9,3.2,4.9,2.6s.9-.9,1.2-1.3h0Z"
         id="path26" />
      <path
         class="st18"
         d="M1170.8,280.8c.5,4.5,1.3,4.5,5.9,4.1,0,0,0,1.5,0,1.7v.2c-1.5.9-4-.2-5.4.2-1.9.6-2.3,4.9-5,5.3-2.3.4-.9-5.7-3.9-4.3-1.2-1.5-5.6-1.2-7.3-.5-3,1.3-3.6,4.8-5.4,6.7-.4.4-.7.4-1.2.5-.7-2.2,1.6-8.3,2.9-10.3,1.3-1.9,3.2-2.9,5.5-3.4,1.6-1,4.3-1.4,6.3-1.6,2.1-.2,5.5-.5,7.3.3l.2.9v.2Z"
         id="path27" />
      <path
         class="st18"
         d="M1181.8,283.3h-4.7c0-.3,0-.8,0-1.2,0-.1.3-.4.5-.5s4.4,0,4.7,0c.3.1.6,1.3.7,1.6"
         id="path28" />
      <path
         class="st0"
         d="M1170.4,293.2c0,.2-.3.6-.3.6-.5.2-4,0-4.9,0-.5,1-.2,2.3,0,3.4,0,4.3,0,8.5,0,12.8s0,7,0,10.6v4.3c0,2.8,0,5.6,0,8.4v3.8c0,7.9.3,16.2,0,24,0,3.3-1.8,6.3,2.7,7.4-1.7,0-4.5,0-4.8-2.3,0-1.1.3-2.4.3-3.5.2-8.9-.2-17.9,0-26.8,0-1.5-.2-3.7,0-5,0-9.7.5-19.4.2-29.1,0-2.6,0-5.4-.2-8h0c0-.3,0-.4,0-.6h7.1Z"
         id="path29" />
      <path
         class="st4"
         d="M1177,286.9c0,1.1,0,2.2,0,3.3v-.2c-.2-.8,0-2.2,0-3s0-.2,0-.2h.2v.2h0Z"
         id="path30" />
      <path
         class="st4"
         d="M1182.8,283.3c.2,1.2,0,2.5,0,3.9v-.5c0,.1,0,.2,0,.3-.2.3-4.6.8-5.8-.1v-.3c0-1.1,0-2.2,0-3.2h4.7"
         id="path31" />
    </g>
  </g>
  <g
     id="ToolboxOpen"
     class="st14"
     style="display:inline"
     transform="translate(528.80002,78)"
     inkscape:label="Toolbox">
    <path
       class="st8"
       d="m 289.5,324.9 c 5.2,-8.8 189.4,-8.8 194.7,0 5.3,8.8 10.3,54.9 2,60.2 -8.3,5.3 -188.1,9.1 -195.9,-0.1 -7.8,-9.2 -4.9,-53.2 -0.8,-60.1 z"
       id="path32-3"
       style="fill:#fab400" />
    <path
       class="st1"
       d="m 296.9,332.7 c 4.7,-7.9 170.6,-8 175.3,0 4.8,8 9.3,49.8 1.8,54.6 -7.5,4.8 -169.4,8.3 -176.4,-0.1 -7,-8.4 -4.4,-48.3 -0.7,-54.5 z"
       id="path33-8"
       style="fill:#cb9231;stroke:#ffe8ae;stroke-miterlimit:10" />
    <path
       class="st18"
       d="M 474.2,446.3 H 302.3 c -6.6,0 -12,-5.4 -12,-12 0,0 -4.2,-46.3 0,-49.3 4.2,-3 180.3,3 195.9,0 2.3,-0.4 0,49.3 0,49.3 0,6.6 -5.4,12 -12,12 z"
       id="path34-0"
       style="fill:#ea4d64" />
    <path
       class="st3"
       d="m 290,429.3 c -0.8,5 -2.4,18 15.7,17 2.5,-6.3 -1.6,-10.1 -3.6,-12.2 -3.5,-3.6 -12.1,-4.8 -12.1,-4.8 z"
       id="path35-2"
       style="fill:#34607f" />
    <path
       class="st17"
       d="m 298.5,420.9 v 0 c -2.3,0 -4,-1.9 -4.2,-4.2 -0.3,-5 -1.9,-14 -0.7,-20.2 1.2,-6.2 2.6,-6 4.9,-6 v 0 c 2.3,0 5.6,3.6 5.1,5.9 -1.9,8.1 -0.9,20.3 -0.9,20.3 0,2.3 -1.9,4.2 -4.2,4.2 z"
       id="path36-4"
       style="fill:#fff5df" />
    <path
       class="st19"
       d="m 486.2,437 c 0,0 -14.6,5.4 -13.9,2.9 4.6,-18.7 3.3,-54 3.3,-54 0,0 9.4,-0.6 10.6,-0.7 2.5,-0.2 0,51.8 0,51.8 z"
       id="path37-8"
       style="fill:#be2033" />
    <path
       class="st3"
       d="m 486.3,429.3 c 0.7,5 2.1,18 -13.8,17 -2.2,-6.3 1.4,-10.1 3.2,-12.2 3,-3.6 10.6,-4.8 10.6,-4.8 z"
       id="path38-3"
       style="fill:#34607f" />
    <path
       class="st21"
       d="m 377.5,316.2 c 2.9,-1.9 21.4,-2 21.6,0 0.2,2 0.4,3.1 -1.3,4 -1.7,0.9 -18.3,3.5 -20.3,0 -2,-3.5 -0.8,-3.4 0,-4 z"
       id="path39-9"
       style="fill:#afafaf" />
    <path
       class="st3"
       d="m 377.2,320.2 c 1.2,3.7 22,1 22.2,-1.1 0.2,-2.1 0.4,-3.1 -0.4,-3 -0.8,0.1 -22.3,2.5 -21.8,4.1 z"
       id="path40-0"
       style="fill:#34607f" />
    <ellipse
       class="st12"
       cx="389.39999"
       cy="396.89999"
       rx="2.7"
       ry="4.5999999"
       id="ellipse40"
       style="fill:#3b3734" />
  </g>
</svg>
