<?xml version="1.0" encoding="UTF-8"?>
<svg id="Layer_1" xmlns="http://www.w3.org/2000/svg" version="1.1" viewBox="0 0 1366 768">
  <!-- Generator: Adobe Illustrator 30.0.0, SVG Export Plug-In . SVG Version: 2.1.1 Build 123)  -->
  <defs>
    <style>
      .st0 {
        fill: #fff5df;
      }

      .st1 {
        fill: #6a6b6b;
      }

      .st2 {
        fill: #768b9f;
      }

      .st3 {
        fill: #060b11;
      }

      .st4 {
        fill: #ffe8ae;
      }

      .st5 {
        fill: #d1d2d3;
      }

      .st6 {
        fill: #f9d5a1;
      }

      .st7 {
        fill: #8d8d8e;
      }

      .st8 {
        fill: #34607f;
      }

      .st9 {
        fill: #ea4d64;
      }

      .st10 {
        fill: #263238;
      }

      .st11 {
        fill: #be2033;
      }

      .st12 {
        fill: #3b3734;
      }

      .st13 {
        fill: #9d4324;
      }

      .st14 {
        fill: #fab400;
      }

      .st15 {
        fill: #cb9231;
      }

      .st16 {
        fill: #afafaf;
      }

      .st17 {
        fill: #d3d3d5;
      }

      .st18 {
        fill: #fcfcfe;
      }

      .st19 {
        fill: #f3a292;
      }
    </style>
  </defs>
  <g id="Wrench">
    <path class="st16" d="M707.9,630c-1.7-1.5-4.2-3.1-6.6-2.4h-.3c-.2.1-.9.5-.7.8h0l4.4,11,.4,1.1v.2c0,0-.2.2-.2.2l-6.1,3.1c-.4.2-.8.4-1.3.6v-.2c0,0-4.8-10.1-4.8-10.1l-.7-1.5c-.1-.3-1-1-1.3-.8-4.9,3.4-3.4,10-1.1,14.5.2.5.5,1,.8,1.4h0c-.1.1-.3.2-.4.3-.2.1-.4.3-.5.4,0,0,0,0,0,0h0l.2.2c4.4,4.8,7.1,10.9,7.7,17.4,0,.4,0,.8,0,1.2h.3s.3,0,.3,0h.6s5.7-.3,5.7-.3h.3s.4,0,.4,0c.1,0,.3,0,.4,0,.1,0,.2-.2.2-.3.1-1.6.2-3.3.4-4.9,0-1.9.4-3.7.9-5.5,1.4-3.3,3.1-6.6,5-9.6l.9-1.6c.4-.8.6-1.6.7-2.5,0,0,0-.2,0-.3,0-.2,0-.4,0-.6.4-4.3-2.4-8.8-5.7-11.8ZM708,647.6c0,.2-.6.6-.7.7l-1.2.6h0c0,.4,0,.9.1,1.3s-.2.2-.4.1c-.2-.1-.4-.3-.5-.5v-.5s-1.4.7-1.4.7v1.2c0,.3-.2.5-.5.4-.3,0-.5-.2-.5-.5v-.6s-1.2.6-1.2.6v.8c0,.2,0,.4-.3.5,0,0-.4.3-.4,0s0-.4,0-.7c0-.1,0-.3,0-.4-.4.2-.7.4-1.1.5v1.2c.2.2,0,.3-.1.4,0,0,0,0-.1,0-.3,0-.5-.3-.5-.5v-.6c0,0-1.7.8-1.7.8h0l-1-2.8c0,0,.1-.2.2-.4h0c.1-.1.3-.2.4-.3l1.2-.6.5-.2v-1c-.1-.2,0-.3.2-.4,0,0,0,0,.1,0,.3,0,.5.3.5.5,0,.2,0,.3,0,.5l1.1-.5c0-.2,0-.4,0-.7,0-.2.2-.4.3-.6,0,0,.4-.3.4,0s0,.4,0,.7v.2s1.3-.6,1.3-.6c0-.3,0-.6,0-.9s.3-.5.6-.4c.3,0,.5.2.5.5,0,.1,0,.3,0,.4l1.2-.6v-.8c0-.2.2-.2.3-.1.2.1.4.3.5.5h0l.9-.4h0l1.3,2.7Z"/>
    <path d="M705.5,667.3h0c-.1,0-.3,0-.4,0h-.4s-.3,0-.3,0l-5.7.2h-.6s-.3,0-.3,0h-.3s0,0,0,0h0c-.2,0-.4,0-.4.3v5c0,3.8,0,7.6,0,11.5s0,8,0,12.1c0,2.4,0,4.8,0,7.1,0,1.4.4,2.7,1.2,3.9,1.6,2,4.2,2.8,6.7,2.2,2.6-.7,3.6-3.6,3.5-6.1-.1-2-.3-4.1-.4-6.2l-.8-11.4-.8-11.6-.5-6.7v-.3c-.3,0-.5-.1-.7-.1ZM704.6,703.8c.2.8.2,1.7,0,2.5-.1.4-.5.8-1,.8-.8,0-1.6-.5-2-1.2-.6-.8-.8-1.9-.6-2.8h0c.2-.8.9-2.7,2-2.1.9.6,1.5,1.7,1.5,2.8h0Z"/>
    <path d="M706.6,645l-.9.4h0c0-.2-.2-.4-.5-.5-.1,0-.4-.1-.4.1v.8c0,0-1.2.6-1.2.6,0-.1,0-.3,0-.4,0-.3-.2-.5-.5-.5-.2,0-.6.1-.6.4s0,.6,0,.9l-1.3.6v-.2c0-.2,0-.4,0-.7s-.4,0-.4,0c-.2.1-.3.3-.3.6,0,.2,0,.4,0,.7l-1.1.5c0-.2,0-.3,0-.5,0-.3-.2-.5-.5-.5-.2,0-.3,0-.4.3,0,0,0,0,0,.1v1c.1,0-.4.2-.4.2l-1.2.6c-.2,0-.3.2-.4.3h0c-.2.1-.3.3-.2.4l1,2.8h0l1.7-.8v.6c.1.3.3.5.6.5.2,0,.3,0,.4-.3,0,0,0,0,0-.1v-1.2c.2-.2.6-.3.9-.5,0,.1,0,.3,0,.4,0,.2,0,.4,0,.7s.4,0,.4,0c.2-.1.3-.3.3-.5v-.8c0,0,1.1-.6,1.1-.6v.6c0,.3.2.5.5.5.2,0,.6-.1.5-.4v-1.2s1.4-.7,1.4-.7v.5c0,.2.3.4.5.5.1,0,.4,0,.4-.1s0-.9-.1-1.3h0l1.2-.6c0-.1.8-.5.7-.7l-1.2-2.7s0,0,0,0ZM699,651.8l-.6.3h0s0,0,0,0h0c0,0,0-.4-.1-.4s-.2-.6-.3-.9l-.4-1.2.9-.4c.2-.1.4-.2.6-.3h0v2.9ZM700.9,650.9h0l-.5.2-.5.2h0l-.3-2.7.6-.3.5-.2h0c.1.9.2,1.8.2,2.7h0ZM702.8,650l-1.2.6h0l-.3-2.8,1.3-.6h0v2.8ZM705.2,648.9h0l-1.4.6v-2.8c.1,0,.4-.2.6-.3l.5-.3h0l.2,2.8ZM706.1,646l.4.9.5,1.1h0l-1.1.5-.3-2.6v-.2h0,.1c0,0,.3.3.3.4h0Z"/>
  </g>
  <g id="Screwdriver">
    <path class="st16" d="M584.3,358.8c.4-9.3-1-19.3-.7-28.7l1.1-.3.2.7,1,28.3c0,.2-1.3.3-1.5,0Z"/>
    <path class="st7" d="M586.2,326.2h-.3c-.5-.9-1.8-2.1-2.3-3.2-.2,0,0,.2,0,.2-.2,0-.2.2-.3.4,0-.1.1-.8.1-.8,0,0,1.7,0,1.9,0,.2,1.2.6,2.3.8,3.5Z"/>
    <g>
      <path class="st16" d="M587.2,359c-1,0-2,0-3,0,.2,0,0-.2,0-.3.2.3,1.4.2,1.5,0l-1-28.3-.2-.7-1.1.3c-.9-2.5-1.1-4.1-.2-6.5s0-.4.3-.4c0,.5.7,4,.8,4.2s1.5-.5,1.6-.6,0-.3-.1-.4h.3c.3,1.7-.3,2.4-.3,4-.2,3.9.6,9,.7,13.1.2,5.2.4,10.4.6,15.6Z"/>
      <polygon class="st17" points="585.7 333.9 586.3 346 586.6 358 586 346 585.7 333.9"/>
    </g>
    <path class="st1" d="M585.9,326.3c0,.1.2.3.1.4s-1.4.8-1.6.6-.8-3.7-.8-4.2-.1-.2,0-.2c.5,1.1,1.8,2.3,2.3,3.3Z"/>
    <g>
      <path class="st11" d="M584.2,359.1c1,0,2,0,3,0s3.1-.5,3.5,1.2-1.1,2.4-1.6,3.7c-1.5,4,1.3,11.4,2.1,15.7s1.9,18.5-6.1,18.5c-7.7,0-6.9-13.6-6-18.7.8-4.3,4.4-11.6,2.5-15.5s-2.1-2.1-2-3.4.4-1,1-1.2,2.9-.1,3.6-.1Z"/>
      <g>
        <path class="st5" d="M587.8,361.2c.3.3.4,1.5-.1,1.7s-3.9.3-4.2.2-.5,0-.5,0c-.2-.2-.3-1.5,0-1.7s4.6-.3,4.8-.1Z"/>
        <path d="M587.2,361.8c.1.1.1.4,0,.5-.4,0-3.6.3-3.7,0s.1-.3.3-.4,3.4-.3,3.5-.1Z"/>
      </g>
    </g>
  </g>
  <g id="Saw">
    <g id="Generative_Object">
      <path class="st15" d="M880.9,235.6c1.2.3,2.4,1.2,3.7.8,4.2-1.3,4.8-13.2,4.1-16.9-1.1-5.8-4.7-6.7-7.8-10.3l-25,1.2s0,0,0,0c-3,2.8-5.7,4.5-6.5,8.8-.6,3.1.2,13.3,1.9,15.8,2.2,3.3,4.4,1.1,7.3,1,2.4-.2,5.4.5,7.9.6,2.9,0,5.7-.5,8.5-.8,2.1-.2,3.8-.6,5.9-.1ZM866.1,227.3c-1.2.3-2.3,1.2-3.6,1.3-4.4.7-6.2-5.9-1.9-7.7,2.5-1.1,15.8-1,17.9.6,2.7,2.1,1.4,7-2.1,6.9-.5,0-1.2-.3-1.7-.4-3.2-.8-5.3-1.7-8.8-.7Z"/>
    </g>
    <path class="st16" d="M877.6,138.6c-.5-9.3-8.4-16.5-17.7-16.1h0s0,0,0,0l-3.4.2,3.3,3v.7s-3.5.2-3.5.2l3.3,3v.6s-3.5.2-3.5.2l3.3,3v.6s-3.5.2-3.5.2l3.3,3v.6s-3.5.2-3.5.2l3.3,3v.6s-3.5.2-3.5.2l3.3,3v.6s-3.5.2-3.5.2l3.3,3v.6s-3.5.2-3.5.2l3.4,3v.6s-3.6.2-3.6.2l3.4,3v.6s-3.6.2-3.6.2l3.4,3.1v.6s-3.6.2-3.6.2l3.4,3.1v.6s-3.6.2-3.6.2l3.4,3.1v.6s-3.6.2-3.6.2l3.4,3.1v.6s-3.6.2-3.6.2l3.4,3.1v.5s-3.6.2-3.6.2l3.4,3.1v.5s-3.6.2-3.6.2l3.4,3.1v.5s-3.6.2-3.6.2l3.4,3.1v.5s-3.7.2-3.7.2l3.5,3.1v.5s-3.7.2-3.7.2l3.5,3.1v.5s-3.7.2-3.7.2l3.5,3.2v.5s-3.7.2-3.7.2l3.5,3.2v.5s-3.7.2-3.7.2l3.5,3.2v.5s-3.7.2-3.7.2l3.5,3.2v.9s25.4-1.2,25.4-1.2l-3.4-71ZM872.1,203.2c0-1.8,1.3-3.3,3.1-3.4s3.3,1.3,3.4,3.1c0,1.8-1.3,3.3-3.1,3.4s-3.3-1.3-3.4-3.1Z"/>
  </g>
  <g id="Pencil">
    <path class="st18" d="M1137.7,627.6c0-.2-.4-.6-.6-.5,0-.1,0-.3,0-.4.4,0,.6.5.7.9Z"/>
    <g>
      <path class="st10" d="M1137.2,627.4l1.8,64.4c-.1.2-.2,1.2-.4,1.2-.4.1-1.6,0-2.1.1l-1.9-57.7c.1,0,0-.2,0-.3v-7.1c0-.1.1,0,.2-.1.3-.2.5-.5.7-.6.4-.2,1.1.2,1.6.2Z"/>
      <g>
        <path class="st0" d="M1137.2,627.4c-.5,0-1.2-.4-1.6-.2-.3.2-.5.5-.7.6,0,0-.2,0-.3.1-.1-.1-.2-.3-.2-.5-.8-1.3-1-.2-2,.1-.4,0-.7-.2-1.1,0,.7-2.1,1.4-4.3,2.1-6.4.3,0,.6,0,.9,0,.4,0,.8,0,1.2.1.5,1.7,1.1,3.5,1.5,5.3,0,.1,0,.3,0,.4,0,0,0,.2,0,.2Z"/>
        <path class="st3" d="M1135.5,621.5c-.4,0-.8-.1-1.2-.1s-.6,0-.9,0c.1-.4.6-2.1.8-2.4s.5-.2.6-.1.1.3.2.4c.2.7.3,1.6.5,2.3Z"/>
        <path class="st14" d="M1131.3,627.7h0c.4-.2.7,0,1.1,0,1-.3,1.2-1.4,2,0,0,.1.1.3.2.4l2.1,64.8c0,.1,0,.2,0,.3-.5.4-2.8.3-3.2-.1,0-.2,0-1,0-1.2"/>
      </g>
    </g>
    <path class="st9" d="M1136.1,695.1c-1.8.2-2.2-1.2-2.6-2.4.7,0,4.5,0,5.2,0,0,0-.7,2.2-2.6,2.3Z"/>
  </g>
  <g id="Toolbox">
    <g id="Generative_Object1" data-name="Generative_Object">
      <g>
        <path class="st11" d="M1010.9,503.9c-4.6-.8-15,1.3-16.9,6-.8-9.3-.4-18.8-.4-28.1,0-6.9-.4-13.9.4-20.8h16.9c0,14.3,0,28.5,0,42.8Z"/>
        <path class="st8" d="M1009.6,521.9c-3.1,4.2-11.1,2.7-16,2.8.6-4-.9-11.1.4-14.7,1.8-4.8,12.2-6.9,16.9-6,0,5.2,1.9,13.6-1.3,17.9Z"/>
        <path class="st8" d="M830.6,524.7c-4.8-.1-12.9,1.4-16-2.8-3.1-4.2-1.3-13.2-1.3-18.4,15.8-.6,18.7,6.7,17.3,21.2Z"/>
        <path class="st12" d="M1010.9,460.3v.9h-83c0-.2,0-.5,0-.7v-.2h83Z"/>
        <g>
          <path class="st9" d="M993.6,481.9c0-6.9-.4-13.9.4-20.8h-66.1c0,.8-.4,2.5-.4,3.9h0c0,4.4.3,9.5,0,13.9,0,.5,0,1,0,1.4,0,0,0,.1,0,.2h0c0,1.2-.2,1.9-.4,3-.1.2-.4.6-.7.9-.1.1-.2.3-.4.4-.6.6-1.3,1.2-1.7,1.3-.1,0-.5,0-1.1,0-.1,0-.3,0-.4,0-.2,0-.5,0-.8,0-.2,0-.4,0-.6,0-.3,0-.7,0-1,0-3.9,0-9.8,0-12.6,0,0,0-.2,0-.3,0-.3,0-.5,0-.8,0-.3,0-.5,0-.6,0,0,0-.2-.1-.3-.3l-.2-.2c-.7-.7-1.8-2-1.9-2.4-.1-.4-.2-1.3-.3-2.6,0-.5,0-1.1,0-1.7,0-.2,0-.4,0-.6,0-.3,0-.6,0-.9,0-.2,0-.4,0-.7,0-4.3,0-9.6,0-13,0-.7,0-1.4,0-1.9s0-.4,0-.6v-.2h-89.5c-.7,14.1-.5,28.3-.4,42.4,15.8-.6,18.7,6.7,17.3,21.2,11.8.3,23.7,0,35.4,0,42.2.2,85.4,1.1,127.5,0,.6-4-.9-11.1.4-14.7-.8-9.3-.4-18.8-.4-28.1ZM825,494.2c-.8,3-3.5,3.6-6.1,2.8.4-.9-.4-1.2-.4-1.3-.8-3.6-1.9-21.4-.9-26.2.9-4.1,7-2.8,7.8.9.5,2.2.2,21.4-.4,23.8Z"/>
          <path class="st9" d="M825.4,470.4c.5,2.2.2,21.4-.4,23.8-.8,3-3.5,3.6-6.1,2.8.4-.9-.4-1.2-.4-1.3-.8-3.6-1.9-21.4-.9-26.2.9-4.1,7-2.8,7.8.9Z"/>
          <path class="st9" d="M903.3,476.9c0-4.3,0-9.6,0-13,0,3.4,0,8.7,0,13Z"/>
          <path class="st9" d="M903.3,479.1c0,.6,0,1.2,0,1.7,0-.5,0-1.1,0-1.7Z"/>
          <path class="st9" d="M920.3,486.4c-3.9,0-9.8,0-12.6,0,2.8,0,8.7.1,12.6,0Z"/>
          <path class="st19" d="M825,494.2c-.8,3-3.5,3.6-6.1,2.8.4-.9-.4-1.2-.4-1.3-.8-3.6-1.9-21.4-.9-26.2.9-4.1,7-2.8,7.8.9.5,2.2.2,21.4-.4,23.8Z"/>
        </g>
      </g>
      <g>
        <path class="st14" d="M955.1,426.1c.3,0,.5.4,1.3.4,10.8,0,21.6-.1,32.4,0,3.1,0,8.1-.7,11.2-.4,5.3.5,10.6,1.6,12.1,7.6s1,23,.4,25.1-.9,1.8-1.7,1.5h-83c0-2.9.3-13.4-2.8-14.3s-18.1-.2-19,0c-3.1.8-2.7,11-2.8,14.3-.3,0-.6,0-.9,0-3,.5-6.2-.4-9.1-.4,3.8-5,4.3-15.1,4.3-21.4s.3-7.9-2.2-11.5c16.4,0,32.9-.9,49.3-.9,3.4,0,6.9,0,10.4,0Z"/>
        <g>
          <path class="st4" d="M849.3,426.6c5.9,0,11.8,0,17.7,0s3.5,0,5.2,0c4.5,0,8.9,0,13.4,0,3.3,0,6.7.4,9.9.4,2.4,3.6,2.2,7.3,2.2,11.5,0,6.3-.5,16.4-4.3,21.4-26.8,0-53.6.9-80.4.4-.6-.5-1.6-1.2-1.7-1.9-1.4-6.1-1-27.1,5-30.5s26.6-1.2,33.1-1.3Z"/>
          <path class="st12" d="M903.2,460.3v.9h-89.5c-.5.1-.8-.8-.9-.9h.1c26.7.5,53.5-.4,80.2-.4h.1c2.9,0,6,.9,8.9.4.2,0,.6,0,.9,0Z"/>
          <path class="st0" d="M818.1,433.3c.2-1.3,2-2.1,3.2-2.4,6.6-1.3,29-.4,36.7,0,4,.2,8.7.2,12.3,1.5l-45.2,1.9c-1,.5-3.4,5.9-3.7,7.1s-1.1,11.3-1.9,9.7c-2.3-3.9-2.2-13.5-1.5-17.9Z"/>
          <polygon class="st10" points="819.2 452.1 819.6 452.5 819.6 452.9 819.2 452.9 819.2 452.1"/>
        </g>
      </g>
      <g>
        <path class="st8" d="M953.8,410.4c.6,4.2-.8,8.5.9,13.2,2.3-.4,2.7,1.2,1.7,3-.8,0-.9-.4-1.3-.4-3.4,0-6.9,0-10.4,0,0,0,1.7-12.9-7.1-10.8-7.9,1.9-52.7,0-52.7,0-.9.4-.9,6.6-.6,7.6.1.5,3.1,1.3,1.3,3.7-4.5,0-8.9,0-13.4,0-2.2-4.5,3.8-2.2,4.3-3.7,1-3-3.4-16.2,3.7-17.9,18.7.4,18.5.9,37.1,0,24.6-1.2,35.8-.8,36.6,5.4Z"/>
        <path class="st2" d="M881.2,407c1.1-.2,29.8-.3,28.8.6-4,3.6-30.5,2.4-30.5,2.4-1.3-1.2.8-2.8,1.7-3Z"/>
      </g>
      <g>
        <path class="st16" d="M927.9,460.3v.2c0,.2,0,.5,0,.7,0,.8-.4,2.5-.4,3.9h0c0,4.4.3,9.5,0,13.9,0,.4,0,.8,0,1.2-5.7.2-16.3.5-18.2-.6-2.3-1.3-1.2-24.9-.9-33.7.3,0,.6,0,.9,0,.4,0,.9,0,1.4,0,4.3,0,10.5,0,13.1,0h0c.4,0,.8,0,1,0,.1,0,.2,0,.2,0,.3,0,.6.2.8.5,0,0,.2.2.2.2.1.2.3.4.4.7.2.4.3.8.5,1.2,0,.2,0,.3.1.5,0,.3.2.7.2,1,.4,1.9.5,4.3.5,6.3,0,.2,0,.4,0,.5,0,1,0,2,0,2.7s0,.5,0,.6Z"/>
        <path class="st12" d="M914.7,470.2c2.9-.9,1.9,3.3,1.9,4.5-3.4,2.6-4-3.9-1.9-4.5Z"/>
      </g>
    </g>
    <path class="st8" d="M927.5,480.1c0,0,0,.2,0,.2,0,0,0,.1,0,.2h0c0,1.2-.2,1.9-.4,3-.1.2-.4.6-.7.9-.1.1-.2.3-.4.4-.6.6-1.3,1.2-1.7,1.3-.1,0-.5,0-1.1,0-.1,0-.3,0-.4,0-.2,0-.5,0-.8,0-.2,0-.4,0-.6,0-.3,0-.7,0-1,0-3.9,0-9.8,0-12.6,0,0,0-.2,0-.3,0-.3,0-.5,0-.8,0-.3,0-.5,0-.6,0,0,0-.2-.1-.3-.3l-.2-.2c-.7-.7-1.8-2-1.9-2.4-.1-.4-.2-1.3-.3-2.6,0-.5,0-1.1,0-1.7,0-.2,0-.4,0-.6,0-.3,0-.6,0-.9,0-.2,0-.4,0-.7,0-4.3,0-9.6,0-13,0-.7,0-1.4,0-1.9,0-.2,0-.4,0-.6,0,0,0-.2,0-.2s0-.2,0-.3v-.3c0-.1,0-.2,0-.3,0-.7,0-1.8,0-3,0-.5,0-1.1,0-1.6,0-.4,0-.8,0-1.1,0-1.4.2-2.7.4-4,0-.4.1-.7.2-1,.1-.5.2-1,.4-1.4,0-.1,0-.3.2-.4.2-.5.5-1,.8-1.3.2-.2.5-.4.8-.5,0,0,0,0,.1,0,0,0,.1,0,.2,0,.1,0,.3,0,.5,0,.2,0,.4,0,.6,0,.3,0,.5,0,.9,0-.3,8.8-1.5,32.3.9,33.7,1.9,1.1,12.5.8,18.2.6Z"/>
  </g>
  <g id="Hammer">
    <g>
      <path class="st18" d="M1167.5,363.7c.7.3.9,1.1.7,1.7-1.8,1.7-3.1-1.6-.7-1.7Z"/>
      <path class="st6" d="M1165.2,309.9c0-4.3,0-8.5-.1-12.8v12.8Z"/>
      <path class="st13" d="M1167.5,363.7c-2.4,0-1.1,3.4.7,1.7-.5,1.4-2.9.6-2.1-1.2s.9-.7,1.4-.5Z"/>
      <path class="st14" d="M1171.6,366.5c-.4,1.6-2.5,1.8-3.8,1.9-4.5-1.1-2.7-4.1-2.7-7.4.2-7.8,0-16.2-.1-24,0-1.3,0-2.6,0-3.8,0-2.8,0-5.6.1-8.4,0-1.4,0-2.9,0-4.3,0-3.5.1-7.1.1-10.6v-12.8c-.2-1.1-.5-2.4,0-3.4.8,0,4.4.2,4.9,0,0,7.2,0,14.4.1,21.6.3,14.1.4,28.3.8,42.5,0,1.8.9,7.5.6,8.7Z"/>
    </g>
    <g>
      <path class="st8" d="M1176.7,289.9c-1.5-1.1-5.5-1-6,1.1s0,1.5-.2,2.2h-7.1c-.1-1.2-.2-4.1-.9-5,3-1.4,1.6,4.7,3.9,4.3s3.1-4.7,5-5.4,3.9.6,5.4-.2c0,.9-.1,2.3,0,3Z"/>
      <path class="st10" d="M1162.4,288.2c.7.9.8,3.8.9,5s.1.3.1.5c-.9-.6-.4-2.2-.6-3.1-.6-3.5-5.5-2.7-7.6-1s-3.7,5.6-4.8,6.2-1.6.2-1.9-.8c.5-.1.8-.1,1.2-.5,1.8-1.9,2.4-5.4,5.4-6.7s6.1-1.1,7.3.5Z"/>
      <path class="st16" d="M1182.8,285.6c0,.7.1,2,.1,2.7s-.2,2.3-.9,2.4-4.5,0-4.8,0-.3-.4-.4-.6c.2-1.1.1-2.2.1-3.3.7.5,5.2.5,5.5,0s-.3-1.3.3-1.2Z"/>
      <path class="st8" d="M1177,282.1c0,.4.1.8.1,1.2,0,1.1-.1,2.2-.1,3.3h-.2c0-.2,0-1.5,0-1.6-4.6.4-5.3.4-5.9-4.1.2,2.5,2.9,3.2,4.9,2.6s.9-.9,1.2-1.3Z"/>
      <path class="st16" d="M1170.8,280.8c.5,4.5,1.3,4.5,5.9,4.1.1,0,0,1.5,0,1.7,0,0,0,.2,0,.2-1.5.9-4-.2-5.4.2-1.9.6-2.3,4.9-5,5.3-2.3.4-.9-5.7-3.9-4.3-1.2-1.5-5.6-1.2-7.3-.5-3,1.3-3.6,4.8-5.4,6.7-.4.4-.7.4-1.2.5-.7-2.2,1.6-8.3,2.9-10.3,1.3-1.9,3.2-2.9,5.5-3.4,1.6-1,4.3-1.4,6.3-1.6,2.1-.2,5.5-.5,7.3.3l.2.9Z"/>
      <path class="st16" d="M1181.8,283.3c-1.6,0-3.1,0-4.7,0,0-.3-.1-.8-.1-1.2.1-.1.3-.4.5-.5s4.4,0,4.7,0c.3.1.6,1.3.7,1.6"/>
      <path class="st15" d="M1170.4,293.2c0,.2-.3.6-.3.6-.5.2-4,0-4.9,0-.5,1-.2,2.3-.1,3.4.1,4.3.1,8.5.1,12.8,0,3.5-.1,7-.1,10.6,0,1.4,0,2.9,0,4.3,0,2.8-.1,5.6-.1,8.4,0,1.3,0,2.6,0,3.8.1,7.9.3,16.2.1,24,0,3.3-1.8,6.3,2.7,7.4-1.7,0-4.5,0-4.8-2.3-.1-1.1.3-2.4.3-3.5.2-8.9-.2-17.9,0-26.8,0-1.5-.2-3.7.1-5,.1-9.7.5-19.4.2-29.1,0-2.6,0-5.4-.2-8h0c0-.3-.1-.4-.1-.6h7.1Z"/>
      <path class="st10" d="M1177,286.9c0,1.1,0,2.2-.1,3.3,0,0,0,0-.1-.2-.1-.8,0-2.2,0-3s0-.2,0-.2h.2s0,.1,0,.2Z"/>
      <path class="st10" d="M1182.8,283.3c.2,1.2,0,2.5,0,3.9,0-.2,0-.3,0-.5,0,.1,0,.2-.1.3-.2.3-4.6.8-5.8-.1,0,0,0-.2,0-.3,0-1.1,0-2.2.1-3.2,1.6,0,3.2,0,4.7,0"/>
    </g>
  </g>
</svg>