<?xml version="1.0" encoding="UTF-8"?>
<svg id="Layer_1" xmlns="http://www.w3.org/2000/svg" version="1.1" viewBox="0 0 1366 768">
  <!-- Generator: Adobe Illustrator 30.0.0, SVG Export Plug-In . SVG Version: 2.1.1 Build 123)  -->
  <defs>
    <style>
      .st0, .st1, .st2, .st3, .st4, .st5, .st6, .st7, .st8, .st9, .st10, .st11, .st12, .st13, .st14 {
        stroke: #cb9231;
      }

      .st0, .st1, .st2, .st4, .st5, .st6, .st7, .st8, .st9, .st11, .st15, .st16, .st12, .st17, .st18, .st19, .st20, .st21, .st22, .st23, .st24 {
        stroke-miterlimit: 10;
      }

      .st0, .st1, .st2, .st25, .st7, .st8 {
        fill: #ffe8ae;
      }

      .st0, .st6 {
        stroke-width: 2.3px;
      }

      .st1, .st5 {
        stroke-width: 2.2px;
      }

      .st2, .st26, .st4, .st10, .st27, .st18, .st19, .st28, .st20, .st29, .st22 {
        stroke-width: 2.1px;
      }

      .st3 {
        stroke-width: 1.6px;
      }

      .st3, .st26, .st30, .st31, .st32, .st10, .st33, .st34, .st35, .st36, .st27, .st37, .st28, .st38, .st29, .st39, .st40, .st41, .st42, .st43, .st13, .st14, .st44 {
        stroke-linecap: round;
        stroke-linejoin: round;
      }

      .st3, .st4, .st5, .st6, .st9, .st10, .st12, .st45, .st40, .st13, .st44 {
        fill: #fab400;
      }

      .st26, .st30, .st31, .st32, .st33, .st34, .st35, .st15, .st16, .st36, .st17, .st27, .st18, .st37, .st19, .st28, .st20, .st29, .st39, .st40, .st21, .st22, .st23, .st41, .st42, .st24, .st44 {
        stroke: #34607f;
      }

      .st26, .st46, .st34, .st35, .st22 {
        fill: #629bd3;
      }

      .st30 {
        stroke-width: 1.1px;
      }

      .st30, .st31, .st18 {
        fill: #ea4d64;
      }

      .st47, .st42 {
        fill: #fff5df;
      }

      .st31 {
        stroke-width: 1.7px;
      }

      .st7, .st9 {
        stroke-width: 1.5px;
      }

      .st8, .st12 {
        stroke-width: 1.8px;
      }

      .st32 {
        fill: #9fd5dc;
        stroke-width: 3.5px;
      }

      .st48 {
        fill: #ebebeb;
      }

      .st33, .st34, .st13, .st14 {
        stroke-width: 2.8px;
      }

      .st33, .st11, .st15, .st16, .st17, .st27, .st20, .st23, .st43, .st14 {
        fill: none;
      }

      .st49, .st38 {
        fill: #34607f;
      }

      .st35, .st36 {
        stroke-width: 2.6px;
      }

      .st11, .st21, .st23, .st24 {
        stroke-width: 1.4px;
      }

      .st15 {
        stroke-width: 9.6px;
      }

      .st16 {
        stroke-width: 8.5px;
      }

      .st36, .st37, .st19, .st29, .st39, .st41 {
        fill: #5284c4;
      }

      .st50, .st24 {
        fill: #be2033;
      }

      .st17 {
        stroke-width: 2px;
      }

      .st37 {
        stroke-width: 2px;
      }

      .st51 {
        fill: #fff;
      }

      .st28, .st52 {
        fill: #afafaf;
      }

      .st38 {
        stroke: #5284c4;
        stroke-width: 3.3px;
      }

      .st39, .st44 {
        stroke-width: 2.2px;
      }

      .st40 {
        stroke-width: 1.4px;
      }

      .st21 {
        fill: #209619;
      }

      .st41 {
        stroke-width: 1.2px;
      }

      .st42 {
        stroke-width: 1.7px;
      }

      .st43 {
        stroke: #263238;
        stroke-width: 5.7px;
      }

      .st53 {
        fill: #ea6613;
      }
    </style>
  </defs>
  <g id="Layer_2">
    <g id="Bulb_x5F_Off">
      <path class="st52" d="M628.4,281.6c0,18.9-8.6,35.9-22.2,47,0,0,0,0,0,0-6,6-15.5,17.1-15.9,26.6l-48,2.3c-1.1-13.6-5.2-22.6-13.7-29.6-1.2-1-2.5-2-4-2.9-.2-.2-.3-.3-.3-.3-11-11-17.9-26.3-17.9-43.1,0-33.7,27.3-61,61-61s48.7,16.6,57.2,39.9c2.4,6.6,3.8,13.7,3.8,21.1Z"/>
      <path class="st51" d="M624.7,263.8c0,38.4-31.1,69.5-69.5,69.5s-18.5-1.9-26.7-5.3c-1.2-1-2.5-2-4-2.9-.2-.2-.3-.3-.3-.3-11-11-17.9-26.3-17.9-43.1,0-33.7,27.3-61,61-61s48.7,16.6,57.2,39.9c0,1.1,0,2.2,0,3.3Z"/>
      <path class="st23" d="M560.1,356.5c-.6-7.8-3.7-25.5-8.1-38s-13.2-15.2-6-23,18.6,10.2,11.1,11.9-6-18.1,2.4-18.8,14.5,19,8.7,18.4-2.4-19.8,7.7-16.8,7.3,20,1.7,17.5,5.1-18.3,11.7-12.4-3,15.6-6.4,20.5-9.2,26.4-8.7,40.5"/>
      <ellipse class="st48" cx="542.7" cy="250.5" rx="22.8" ry="12.6" transform="translate(-26.6 432.6) rotate(-42.5)"/>
      <ellipse class="st48" cx="522" cy="280" rx="7.6" ry="5.6" transform="translate(100.1 695.8) rotate(-72.8)"/>
      <path class="st33" d="M628.4,281.6c0,18.9-8.6,35.9-22.2,47,0,0,0,0,0,0-6,6-15.5,17.1-15.9,26.6l-48,2.3c-1.1-13.6-5.2-22.6-13.7-29.6-1.2-1-2.5-2-4-2.9-.2-.2-.3-.3-.3-.3-11-11-17.9-26.3-17.9-43.1,0-33.7,27.3-61,61-61s48.7,16.6,57.2,39.9c2.4,6.6,3.8,13.7,3.8,21.1Z"/>
    </g>
    <g id="Bulb_x5F_On">
      <path class="st45" d="M628.4,281.6c0,18.9-8.6,35.9-22.2,47,0,0,0,0,0,0-6,6-15.5,17.1-15.9,26.6l-48,2.3c-1.1-13.6-5.2-22.6-13.7-29.6-1.2-1-2.5-2-4-2.9-.2-.2-.3-.3-.3-.3-11-11-17.9-26.3-17.9-43.1,0-33.7,27.3-61,61-61s48.7,16.6,57.2,39.9c2.4,6.6,3.8,13.7,3.8,21.1Z"/>
      <path class="st25" d="M624.7,263.8c0,38.4-31.1,69.5-69.5,69.5s-18.5-1.9-26.7-5.3c-1.2-1-2.5-2-4-2.9-.2-.2-.3-.3-.3-.3-11-11-17.9-26.3-17.9-43.1,0-33.7,27.3-61,61-61s48.7,16.6,57.2,39.9c0,1.1,0,2.2,0,3.3Z"/>
      <path class="st11" d="M560.1,356.5c-.6-7.8-3.7-25.5-8.1-38s-13.2-15.2-6-23,18.6,10.2,11.1,11.9-6-18.1,2.4-18.8,14.5,19,8.7,18.4-2.4-19.8,7.7-16.8,7.3,20,1.7,17.5,5.1-18.3,11.7-12.4-3,15.6-6.4,20.5-9.2,26.4-8.7,40.5"/>
      <rect class="st45" x="451.6" y="234.8" width="6.2" height="69.2" rx="3.1" ry="3.1" transform="translate(138.9 693.2) rotate(-83.9)"/>
      <rect class="st45" x="472.4" y="180.9" width="6.2" height="69.2" rx="3.1" ry="3.1" transform="translate(21.4 473.1) rotate(-53.9)"/>
      <rect class="st45" x="517.3" y="144.6" width="6.2" height="69.2" rx="3.1" ry="3.1" transform="translate(-27.9 226.7) rotate(-23.9)"/>
      <rect class="st45" x="574.4" y="135.6" width="6.2" height="69.2" rx="3.1" ry="3.1" transform="translate(21.2 -59.9) rotate(6.1)"/>
      <rect class="st45" x="628.3" y="156.3" width="6.2" height="69.2" rx="3.1" ry="3.1" transform="translate(233.3 -335) rotate(36.1)"/>
      <rect class="st45" x="664.6" y="201.3" width="6.2" height="69.2" rx="3.1" ry="3.1" transform="translate(612.2 -470.1) rotate(66.1)"/>
      <rect class="st45" x="673.6" y="258.3" width="6.2" height="69.2" rx="3.1" ry="3.1" transform="translate(1039.3 -349.1) rotate(96.1)"/>
      <ellipse class="st47" cx="542.7" cy="250.5" rx="22.8" ry="12.6" transform="translate(-26.6 432.6) rotate(-42.5)"/>
      <ellipse class="st47" cx="522" cy="280" rx="7.6" ry="5.6" transform="translate(100.1 695.8) rotate(-72.8)"/>
      <path class="st14" d="M628.4,281.6c0,18.9-8.6,35.9-22.2,47,0,0,0,0,0,0-6,6-15.5,17.1-15.9,26.6l-48,2.3c-1.1-13.6-5.2-22.6-13.7-29.6-1.2-1-2.5-2-4-2.9-.2-.2-.3-.3-.3-.3-11-11-17.9-26.3-17.9-43.1,0-33.7,27.3-61,61-61s48.7,16.6,57.2,39.9c2.4,6.6,3.8,13.7,3.8,21.1Z"/>
    </g>
    <g id="Main">
      <g id="Gear">
        <polygon class="st44" points="519.8 491.5 525.7 494.3 534.5 484.3 540.7 489 535.5 501 540.8 508.2 552.6 505.4 555.3 512.5 544.6 518.2 546.2 526.7 559.5 529.6 559.3 536.9 547.3 538.5 546.2 545.2 555.3 552.5 550.7 559.6 540.6 557.4 534.4 564.1 537.8 572.9 531.6 577.6 523.5 568.2 519.1 570.2 520.7 579.1 515.9 580.8 512.3 571.2 506.3 572.2 504.8 581.4 498.6 580.3 498.2 571.4 489.1 569.1 483.9 577.6 477.4 572.6 482.3 564.6 475.2 556.9 467.5 562.2 462.4 555.4 470 549.4 466.8 540 459.2 540.9 457.8 533.9 465.3 532 465.4 520.8 458.4 519.1 459.3 511.5 467.1 513.3 469.6 506 462.9 497.6 467.1 493.7 476.4 500.5 482.7 496.2 478.9 487.7 483.3 486 489.7 493.3 495.4 490.4 494.7 481.9 499.9 481.3 503.8 490 510 489.8 514.4 480 519.9 480.8 519.8 491.5"/>
        <path class="st31" d="M531.8,512.4c13.1,18.9,4,39.4-7.7,46.8-13.5,8.5-35.4,9.2-45.1-10-9.7-19.2-9.5-37.6,7.5-47.7,14.7-8.8,33.3-6.4,45.3,10.9Z"/>
      </g>
      <g id="Gear1" data-name="Gear">
        <polygon class="st40" points="549.5 535.3 548.6 539.4 556.3 543.5 554.3 548.1 545.9 546.6 542.1 551.1 545.7 558.1 541.6 560.9 536.4 555 531.3 557.3 531.4 566.2 526.8 567.1 523.9 559.7 519.5 560.1 516.3 566.9 511.1 565.1 511 558.4 505.8 555.5 500.8 558.9 496.8 555.7 501.6 549.2 499.7 546.7 494.3 549.1 492.4 546.2 498 542.5 496.4 538.9 490.4 539.3 490.2 535.2 495.7 533.7 495.8 527.5 489.7 525.5 491.8 520.7 497.7 522.5 501.5 516.9 497 512.8 500.5 508.6 505.4 512.5 510.9 509.1 509.1 504.4 513.4 502.5 515.8 506.9 522.9 505.3 522.9 500.6 527.8 500 527.8 505.2 532.8 505.8 537.1 500.2 540.2 502.3 537.3 509.2 541 512.5 545.8 508.9 547.5 511.4 543.9 516.5 546.6 519.7 551.8 518 553 521.2 548.1 525 549.1 528.9 556 530.2 556.3 533.8 549.5 535.3"/>
        <path class="st30" d="M538.1,546c-10,11.2-24.3,8.5-30.8,2.2s-11.2-21-.4-30c10.7-9,22.4-11.6,31.3-2.4,7.8,8,9,20.1-.1,30.3Z"/>
      </g>
      <rect class="st28" x="668.9" y="425.5" width="49.1" height="181.3"/>
      <line class="st27" x1="679.7" y1="589.3" x2="705.6" y2="589.9"/>
      <line class="st27" x1="680.2" y1="579.7" x2="705.1" y2="575.2"/>
      <line class="st27" x1="680.8" y1="559.9" x2="708.5" y2="563.9"/>
      <line class="st27" x1="679.1" y1="548.1" x2="707.9" y2="548.6"/>
      <line class="st27" x1="673.4" y1="529.4" x2="707.3" y2="529.4"/>
      <line class="st27" x1="675.7" y1="518.1" x2="706.8" y2="513.6"/>
      <line class="st27" x1="676.8" y1="498.9" x2="711.3" y2="502.3"/>
      <line class="st27" x1="678" y1="484.8" x2="707.9" y2="477.5"/>
      <line class="st27" x1="676.3" y1="462.2" x2="706.8" y2="467.3"/>
      <path class="st39" d="M680.1,620.6c1.5,24.3-97.4,0-97.4,0v-191.4s94.1-24.1,97.4,0c5.8,41.9-3.4,136.9,0,191.4Z"/>
      <path class="st19" d="M481.9,626.8l32.8-90.4,26-154.2v-18.1l52-2.8-.6,21.5s19.8-19.8,27.7-22.6,63.2-.6,63.2-.6l-2.3,75.1-37.3,104.5,44.6,86.4-206.1,1.1Z"/>
      <path class="st34" d="M488.5,607.2l-10.9,1.9s-7.3,15.8-.5,23.6c0,0,205.6,2.1,212.6-.5,0,0,3.3-19.6.8-21.1s-9.5-2.9-9.5-2.9l.7,12-25.9-.8.5,7.6-142.6-.6s1.2-9.2.3-10.1-28.1-1.1-28.1-1.1l2.6-8Z"/>
      <rect class="st49" x="431.3" y="368.9" width="14.7" height="54.6" transform="translate(-151.4 361.4) rotate(-38.7)"/>
      <path class="st26" d="M917.4,623.1h-203c-6.3,0-14.3-5.8-11.5-11.5,9.1-18-9.4-192,0-270.3,1.8-15.3,10-14.1,16.4-14.1l199.9,5.1c6.3,0,11.9,10.6,11.9,16.9l-2.3,262.4c0,6.3-5.1,11.5-11.5,11.5Z"/>
      <path class="st37" d="M922.6,363.2l-2,229.8c-1.3-.3-2.8-.5-4.2-.5-10.3,0-18.6,8-18.6,17.8s0,1.2,0,1.8h-164.7c.6-1.7.9-3.6.9-5.5,0-9-6.7-16.4-15-16.4s-4,.5-5.8,1.3c3.1-38.5-8.7-165.2-2.7-232.6,2.8,2.3,6.4,3.7,10.2,3.7,9.2,0,16.7-7.8,16.7-17.5s-.5-4.8-1.3-6.9l154.6,3.9c-.2.9-.2,1.7-.2,2.6,0,10.8,10.8,19.5,24,19.5s5.6-.4,8.2-1.1Z"/>
      <path class="st16" d="M931.9,434.3c15.4-.8,32.5-.8,29.8,31.2"/>
      <path class="st18" d="M459.3,388c73.4-18.1,367.6,9.6,471.5,10.2,13.8,0,12.7,54.5-1.1,55.3-113.5,6.8-384-11.9-476-11.3-13.2,0-3.7-51.9,5.6-54.2Z"/>
      <path class="st45" d="M471.4,330.9l-19.2,48.9-11.3-13.2c-16.6,7.9-20.7,34.6-20.7,34.6l-17-4.8-18.8-5.3c4.5-41.4,32-52,32-52l-12-18.8c30.2.9,56.8,7.7,64.7,9.9,1.5.4,2.4.7,2.4.7Z"/>
      <path class="st53" d="M471.4,330.9l-19.2,48.9-11.3-13.2c-16.6,7.9-20.7,34.6-20.7,34.6l-8.3-2.7c13.3-46.8,41.7-64,57.1-68.3,1.5.4,2.4.7,2.4.7Z"/>
      <path class="st27" d="M471.4,330.9l-19.2,48.9-11.3-13.2c-16.6,7.9-20.7,34.6-20.7,34.6l-17-4.8-18.8-5.3c4.5-41.4,32-52,32-52l-12-18.8c30.2.9,56.8,7.7,64.7,9.9,1.5.4,2.4.7,2.4.7Z"/>
      <path class="st49" d="M674.4,425.2s15.3,86.2-32,123.8c0,0,24.6,27.1-4.9,37.1s-30.7-16.5-30.7-16.5c0,0-14.1,6.5-46.1-1.8,0,0-9.2,21.2-29.5,15.9s-8.2-42.8-8.2-42.8"/>
      <path class="st22" d="M507.8,394.7s24.3-25.4,61-21.5,66.6,29.4,66.6,29.4c0,0,24.8-23.2,39,5.1s-9.6,30.5-9.6,30.5c0,0,14.7,67.8-28.8,103.9,0,0,22.6,26-4.5,35.6s-28.2-15.8-28.2-15.8c0,0-13,6.2-42.4-1.7,0,0-8.5,20.3-27.1,15.2s-10.7-29.4-10.7-29.4c0,0-63.2-29.9-37.3-115.2,0,0-24.8-10.2-10.7-30.5,14.1-20.3,32.8-5.6,32.8-5.6Z"/>
      <path class="st26" d="M594.2,363.5c-16.5-3.4-57,4.7-62.1.9s.4-7.3,2.3-8.5c6.8-4.1,60.8-1.3,60.8-1.3,0,0,3.6,9.8-.9,8.8Z"/>
      <path class="st4" d="M620.7,542.1c6.3-.8,16.5,4.6,16.9,13.9s-4,14.9-11.3,15.2-14.2-2.9-16.3-11.1,4-17.2,10.6-18.1Z"/>
      <path class="st2" d="M620.1,548.3c.6-.7,2.8-1.3,3.6-.8,1.1.8.6,4.5,1.7,5.3s5.2-1,6.5,0,1,3.1.5,4c-.8,1.3-4.9,1-5.6,2.4s1.9,4.3,1.2,5.6-3.5,2.1-4.5,1.6-.5-4.9-1.7-5.7-5,1.2-6.2.2-1.1-3.7-.5-4.6,3.8,0,4.5-1c1-1.4-.6-5.5.5-6.8Z"/>
      <path class="st4" d="M546.8,540.4c5.6,3,10.8,13.2,5.8,21.1s-11.9,9.8-18,6-9.9-10.6-6.9-18.5,13.1-11.8,19.1-8.7Z"/>
      <path class="st2" d="M542.8,545.1c.9-.2,3.1.6,3.4,1.4.5,1.3-2.1,4-1.6,5.3s4.8,2.2,5.3,3.7-1,3.1-1.9,3.5c-1.4.6-4.6-2-5.9-1.3s-.9,4.6-2.2,5.2-4.1-.2-4.6-1.3,2.4-4.3,1.9-5.7-4.8-1.9-5.2-3.4,1.2-3.7,2.3-4,3.2,2.1,4.3,1.8c1.6-.6,2.6-4.9,4.3-5.3Z"/>
      <path class="st12" d="M499.6,399.5c4.8,2.6,9.3,11.4,5,18.2s-10.2,8.4-15.5,5.1-8.5-9.1-6-15.9c2.6-6.8,11.3-10.1,16.4-7.4Z"/>
      <path class="st8" d="M496.2,403.5c.8-.2,2.6.5,2.9,1.2.4,1.1-1.8,3.4-1.4,4.5s4.1,1.9,4.6,3.2-.8,2.7-1.6,3c-1.2.5-3.9-1.7-5.1-1.1s-.8,4-1.9,4.5-3.5-.2-4-1.1,2.1-3.7,1.6-4.9-4.1-1.6-4.5-2.9,1-3.1,1.9-3.5,2.7,1.8,3.7,1.5c1.4-.5,2.3-4.2,3.7-4.5Z"/>
      <path class="st6" d="M639.4,416.8c.8-6.7,9.1-15.9,18.8-13.9,9.8,1.9,14.4,8.1,12.9,15.7s-6.7,14-15.7,14c-9,0-16.8-8.6-16-15.7Z"/>
      <path class="st0" d="M645.6,419c-.6-.8-.6-3.3.1-3.9,1.1-1,4.8.6,5.9-.4s.3-5.6,1.7-6.7,3.5-.2,4.2.5c1.2,1.1-.2,5.3,1,6.4s5-.9,6.1.2,1.3,4.1.5,5.1-5.2-.8-6.4.3,0,5.5-1.4,6.5-4.1.2-4.9-.7.9-4,.1-5c-1.2-1.4-5.9-.8-6.9-2.2Z"/>
      <path class="st9" d="M710.3,343.6c.5-4.4,5.9-10.3,12.2-9s9.3,5.2,8.3,10.2c-1,4.9-4.4,9.1-10.2,9.1-5.8,0-10.9-5.6-10.3-10.2Z"/>
      <path class="st7" d="M714.3,345c-.4-.5-.4-2.1,0-2.5.7-.6,3.1.4,3.8-.3s.2-3.6,1.1-4.4,2.2-.1,2.7.3c.7.7-.1,3.4.6,4.1s3.2-.6,3.9.1.9,2.7.3,3.3-3.3-.5-4.1.2,0,3.6-.9,4.2-2.7.2-3.2-.5.6-2.6,0-3.2c-.8-.9-3.8-.5-4.5-1.5Z"/>
      <path class="st9" d="M906.3,355.9c-3.4-2.8-5.5-10.5-1-15.2s9.4-5,13-1.6c3.6,3.5,5.3,8.5,2.1,13.5s-10.6,6.2-14.2,3.2Z"/>
      <path class="st7" d="M909.7,353.2c-.6,0-2-.8-2.1-1.4-.1-.9,2-2.4,1.8-3.4s-2.9-2.2-3.1-3.3,1.1-2,1.8-2.1c1-.2,2.8,2,3.8,1.7s1.3-3,2.2-3.3,2.7.7,3,1.5-2.2,2.6-2.1,3.6,3,2,3,3-1.3,2.3-2.1,2.4-1.9-1.9-2.7-1.8c-1.2.2-2.5,2.9-3.6,3Z"/>
      <g id="Gear2" data-name="Gear">
        <polygon class="st13" points="723.5 447.6 730.3 442.8 724.6 426.7 733.7 422.8 743.8 436 755.1 434.6 759.4 419.7 769 421.1 768.7 436.6 779.1 440 790.7 427 798.6 431.8 793 446.2 799.7 451.6 813.6 445.9 818.7 455.5 809.9 465.4 813.6 476.4 825.4 478.1 826.9 488 811.3 491.1 810.8 497.3 821.8 501 820.6 507.5 807.7 505.5 805.1 512.8 814.4 520.2 809.3 526.4 799.2 521.3 791 530.1 797.2 541.1 787.6 545.3 781.7 534.9 768.7 538 769.8 549.8 759.1 551.2 757.1 539.1 744.7 536.8 741 545.9 732.3 543.1 734.8 533.5 722.4 526.4 716.2 533.2 708.3 527.5 715 519.9 708.5 512.6 695 514.8 693.3 507.8 706.6 501.5 705.7 491.9 693.9 490.8 694.7 484.9 706.9 482.3 707.1 474.2 697.3 469.6 699.8 463.4 711.9 464.6 715.6 457.5 707.4 446.5 711.7 440.8 723.5 447.6"/>
        <path class="st29" d="M754.3,447.2c29.3-2.9,46.5,20,47.4,37.6s-11.7,45.2-39.2,44-47.8-12.8-48.6-38c-.7-21.8,13.6-41,40.3-43.7Z"/>
      </g>
      <ellipse class="st49" cx="574" cy="466" rx="67.6" ry="71.6" transform="translate(32.6 969.4) rotate(-82)"/>
      <ellipse class="st46" cx="571.2" cy="459.2" rx="45.1" ry="50.9" transform="translate(-109.5 187.6) rotate(-17)"/>
      <g id="Gear3" data-name="Gear">
        <polygon class="st3" points="550 435.6 553.8 432.9 550.6 423.7 555.7 421.5 561.5 429 567.9 428.2 570.3 419.7 575.8 420.5 575.6 429.4 581.6 431.3 588.1 423.9 592.6 426.6 589.4 434.8 593.2 437.8 601.1 434.6 604 440.1 599 445.7 601.1 451.9 607.8 452.9 608.6 458.5 599.8 460.3 599.5 463.8 605.8 465.9 605.1 469.6 597.7 468.5 596.3 472.6 601.6 476.8 598.7 480.3 592.9 477.4 588.3 482.4 591.8 488.6 586.4 491.1 583 485.1 575.6 486.9 576.3 493.6 570.2 494.4 569.1 487.5 562 486.2 559.9 491.4 554.9 489.8 556.4 484.3 549.3 480.3 545.8 484.2 541.3 481 545.2 476.6 541.5 472.5 533.8 473.7 532.8 469.7 540.4 466.2 539.9 460.8 533.2 460.1 533.6 456.8 540.5 455.3 540.7 450.7 535.1 448.1 536.5 444.6 543.4 445.2 545.5 441.2 540.8 435 543.2 431.8 550 435.6"/>
        <path class="st41" d="M567.4,435.4c16.6-1.6,26.4,11.3,26.9,21.4s-6.6,25.6-22.2,25-27.1-7.3-27.6-21.6c-.4-12.4,7.7-23.3,22.9-24.8Z"/>
      </g>
      <path class="st43" d="M752.6,461.6l-179-30.3c-14.7-.3-26.8,11.3-27.1,26s11.3,26.8,26,27.1l178.9,32.5c15.3.3,27.9-11.8,28.2-27.1.3-15.3-11.8-27.9-27.1-28.2"/>
      <g id="Gear4" data-name="Gear">
        <polygon class="st32" points="788.3 292.1 798.6 290.5 801 269.3 813.3 269.8 817.4 290.3 830.9 294.8 843.8 280.4 853.8 287.2 845 304.4 854.8 313.9 874.9 305.7 881.1 315.4 866.9 328.4 871.6 338.1 890.2 339.3 890.7 352.9 875.5 359.2 873.6 373.5 885.9 381.9 882.1 393.7 863 388.7 859 395.4 869.3 405.5 864.5 412.2 851.1 402.9 844.2 409.7 850.7 423 841.6 427.2 833 416 819 421.3 820 437 806.9 436.5 806 421.6 789.7 418 784.5 431.9 771.7 427.6 776.1 413 763.4 403.7 754.4 411.8 746.1 403.8 754.2 394.5 744.1 379.8 733.5 384 727.7 373.4 739.4 368.5 736.2 356.7 719.8 351.9 721.7 343.1 740 343.3 744.2 332.1 731.6 324.4 735.8 318.2 750.7 322 755.5 312.9 746.9 302.5 753.2 296.9 766.1 304.8 774.1 298.9 770.9 282.1 778.8 278.1 788.3 292.1"/>
        <path class="st36" d="M823,308.5c34.4,12.7,41.2,47.7,32.6,68s-37.7,44.3-67.9,28c-30.2-16.2-46.6-40.4-33.7-69.1,11.2-24.8,37.6-38.6,68.9-27Z"/>
      </g>
      <ellipse class="st49" cx="805.8" cy="361.2" rx="30.7" ry="31.2" transform="translate(128.4 927.7) rotate(-64.1)"/>
      <ellipse class="st35" cx="805" cy="355.3" rx="30.7" ry="31.2" transform="translate(133.3 923.7) rotate(-64.1)"/>
      <path class="st5" d="M802.7,370.9c-6.5-2.6-13.9-12.6-10-21.1,3.9-8.5,10.9-11.1,18.2-7.6,7.2,3.4,12.5,9.9,10.7,18.2-1.8,8.3-11.9,13.2-18.9,10.5Z"/>
      <path class="st1" d="M806.1,365.8c-.9.3-3.4-.3-3.8-1.2-.7-1.3,1.5-4.2.8-5.5s-5.5-1.8-6.3-3.4.5-3.2,1.4-3.7c1.3-.8,5.2,1.6,6.5.8s.2-4.8,1.4-5.5,4.4-.1,5.2.9-1.8,4.6-1,6,5.5,1.5,6.1,3-.6,3.8-1.7,4.3-3.8-1.9-4.9-1.4c-1.6.7-2,5.2-3.6,5.8Z"/>
      <ellipse class="st49" cx="760.3" cy="491.4" rx="25" ry="24.7"/>
      <ellipse class="st26" cx="757.7" cy="487.3" rx="25" ry="24.7"/>
      <path class="st4" d="M757.3,473.4c-7.8,0-14.1,6.3-14.1,14.1s6.3,14.1,14.1,14.1,14.1-6.3,14.1-14.1-6.3-14.1-14.1-14.1ZM757.3,494.2c-3.7,0-6.7-3-6.7-6.7s3-6.7,6.7-6.7,6.7,3,6.7,6.7-3,6.7-6.7,6.7Z"/>
      <path class="st10" d="M601.7,402.8c-36.2-18.3-78.6-7.3-94.8,24.7-16.2,32,0,72.8,36.1,91.1s78.6,7.3,94.8-24.7c16.2-32,0-72.8-36-91.1ZM514.3,431.3c14.4-28.4,52-38.2,84-21.9.6.3,1.1.6,1.7.9l-29.4,42.3c-1.6.1-3,.7-4.2,1.6h0l-56.8-9c.9-4.7,2.4-9.4,4.7-13.9ZM546.3,512c-23.2-11.8-37.1-34-37.5-56.2l56.5,9c.9,1.2,2,2.2,3.5,2.9.6.3,1.3.6,1.9.7l36.7,44.6c-17.5,9.1-40.5,9.4-61-1ZM630.3,490.1c-3.5,6.8-8.2,12.5-14,17.1l-35.7-43.4c.7-1.9.5-4-.5-5.9l29-41.8c24.2,18.2,33.7,49.1,21,74Z"/>
      <path class="st38" d="M707.9,597l-10.9,2.5s-7.3,21.3-.5,31.8c0,0,231.3,3.1,238.4-.3,0,0,3.3-26.3.8-28.4s-9.5-3.9-9.5-3.9l.7,16.1-25.9-1.1.5,10.3-168.3-1.1s1.2-12.4.3-13.6-28.1-1.5-28.1-1.5l2.6-10.8Z"/>
      <path class="st42" d="M913.8,550c.4,8.5-49.3,5-54.2,0-4.8-5-1.1-60.9,0-74.4.4-5,49.9-6.7,54.2,0,7.6,12.1-.7,61.6,0,74.4Z"/>
      <path class="st50" d="M892.1,478c-3.9,3.6-25.7,36.8-23.1,39.4s22.8-9.8,24.3-7.9-10.3,14-13,16.7-7.8-6.1-8.2-3.1c-.9,7.2-6.1,27.5-4.2,26.8,6.7-2.4,23.8-12,31.3-16.7s-9.8-1.3-12.1-4.2,27.7-29.7,24.6-32.2-24.6,8.5-26.8,7.1,24.5-24.4,23.2-26.5-13-2-15.9.7Z"/>
      <ellipse class="st25" cx="841.2" cy="535.4" rx="12.3" ry="13.5"/>
      <ellipse class="st47" cx="836.6" cy="529.4" rx="3.4" ry="2.6" transform="translate(-137 709.3) rotate(-42.8)"/>
      <path class="st45" d="M853.5,535.4c0,7.5-5.5,13.5-12.3,13.5s-12.3-6-12.3-13.5,0-.3,0-.4c1.4.3,2.9.5,4.4.5,8.1,0,14.7-4.6,14.7-10.3s0-.7,0-1c3.3,2.4,5.5,6.5,5.5,11.3Z"/>
      <ellipse class="st20" cx="841.2" cy="535.4" rx="12.3" ry="13.5"/>
      <ellipse class="st25" cx="840.6" cy="502.2" rx="12.3" ry="13.5"/>
      <ellipse class="st47" cx="836" cy="496.2" rx="3.4" ry="2.6" transform="translate(-114.6 700) rotate(-42.8)"/>
      <path class="st45" d="M852.8,502.2c0,7.5-5.5,13.5-12.3,13.5s-12.3-6-12.3-13.5,0-.3,0-.4c1.4.3,2.9.5,4.4.5,8.1,0,14.7-4.6,14.7-10.3s0-.7,0-1c3.3,2.4,5.5,6.5,5.5,11.3Z"/>
      <ellipse class="st20" cx="840.6" cy="502.2" rx="12.3" ry="13.5"/>
      <ellipse class="st25" cx="964.4" cy="469.2" rx="11.9" ry="11.9"/>
      <path class="st47" d="M961.7,465.6c-1.3,1.1-3.1,1.3-4.1.3s-.6-2.6.7-3.7,3.1-1.3,4.1-.3.6,2.6-.7,3.7Z"/>
      <path class="st45" d="M976.3,469.2c0,6.6-5.3,11.9-11.9,11.9s-11.9-5.3-11.9-11.9,0-.2,0-.4c1.4.3,2.8.4,4.3.4,7.8,0,14.2-4,14.2-9s0-.6,0-.9c3.2,2.1,5.4,5.8,5.4,9.9Z"/>
      <ellipse class="st17" cx="964.4" cy="469.2" rx="11.9" ry="11.9"/>
      <path class="st49" d="M743.8,574.6c1.1-1.3,7.2-2.4,7.2-2.4v26.2c0,0-7.7,2.7-6.7-2.2s-.5-21.6-.5-21.6Z"/>
      <path class="st49" d="M753.4,598.1c.9-4.7-.5-20.9-.5-21.1,1.1-1.5,7-2.7,7-2.7v25.9c0,0-7.4,2.6-6.5-2.1Z"/>
      <path class="st49" d="M762.8,595.6c.8-4.5-.5-20.1-.5-20.6,1-1.6,6.9-3,6.9-3v25.6c-.1,0-7.2,2.4-6.4-2Z"/>
      <path class="st49" d="M772.1,597.1c.7-4.2-.5-19.4-.4-20.1,1-1.8,6.7-3.3,6.7-3.3v25.3c-.1,0-6.9,2.2-6.3-2Z"/>
      <path class="st49" d="M780.1,596.6c.6-4-.5-18.7-.4-19.6.9-1.9,6.6-3.6,6.6-3.6v25c-.1,0-6.6,2-6.1-1.9Z"/>
      <path class="st49" d="M788.2,594.4c.5-3.8-.7-18.1-.4-19.1.5-2.2,6.4-3.9,6.4-3.9v24.8c-.1,0-6.3,1.9-6-1.8Z"/>
      <path class="st49" d="M797.3,598.2c.4-3.6-.7-17.4-.4-18.6.5-2.3,6.3-4.1,6.3-4.1v24.5c-.1,0-6,1.7-5.9-1.8Z"/>
      <path class="st49" d="M806,597.4c.3-3.4-.7-16.7-.4-18.1.4-2.5,6.4-2,6.4-2l-.4,21.8s-5.6,1.5-5.6-1.7Z"/>
      <path class="st49" d="M814.4,595.5c.2-3.2-.7-16-.4-17.6.4-2.6,6-4.7,6-4.7v23.9c-.1,0-5.5,1.3-5.6-1.6Z"/>
      <path class="st49" d="M823.5,597.8c.1-3-.7-15.3-.4-17.1.4-2.7,5.9-5,5.9-5v23.6c-.1,0-5.2,1.1-5.5-1.5Z"/>
      <path class="st49" d="M832.6,597.7c0-2.7-.7-14.5-.4-16.6s.8-1.8,1.6-2.6c1.6-1.5,4.1-.3,4.1,1.8v16.6c-.1,1.4-1.3,2.5-2.8,2.4s-2.4-.5-2.6-1.6Z"/>
      <path class="st49" d="M842.2,598.3c0-2.5-1.6-16.5-1.4-18.7s6.6-2.9,6.6-2.9l-.2,23.1s-4.5.8-5.1-1.4Z"/>
      <path class="st49" d="M851.8,597.6c-.2-2.3-.6-13.1-.4-15.6s1.6-2.3,3.2-2.7,3.6.8,3.6,2.7v14.9c.1,0-5.7,2.7-6.4.8Z"/>
      <path class="st49" d="M862.3,595.8c-.3-2.1-.6-12.4-.4-15.1s4.8-.2,4.8-.2l.3,16.6s-3.9.4-4.8-1.3Z"/>
      <path class="st49" d="M869.7,597.9c-.4-1.9-.6-11.7-.4-14.6s5.2-6.4,5.2-6.4l1.1,19.1s-4.9,3.4-5.9,1.9Z"/>
      <path class="st49" d="M878.6,595.6c-.5-1.7-.6-11-.4-14.1s5.8-1.2,5.8-1.2l-.9,16.4s-3.4,0-4.5-1.1Z"/>
      <path class="st49" d="M887.6,598.1c1.3,1,4.4,1.1,4.4,1.1l.2-21.6s-4.7,3.2-4.9,7c-.2,3.3-.2,12.2.4,13.6Z"/>
      <ellipse class="st24" cx="844.3" cy="555.2" rx="3.3" ry="2.8"/>
      <path class="st16" d="M1045.9,555.9"/>
      <path class="st15" d="M931.2,381c15.4,1,32.5,1,29.8-39.6"/>
      <ellipse class="st25" cx="963.7" cy="343.9" rx="11.9" ry="11.9"/>
      <path class="st47" d="M961,340.4c-1.3,1.1-3.1,1.3-4.1.3s-.6-2.6.7-3.7,3.1-1.3,4.1-.3.6,2.6-.7,3.7Z"/>
      <path class="st45" d="M975.6,343.9c0,6.6-5.3,11.9-11.9,11.9s-11.9-5.3-11.9-11.9,0-.2,0-.4c1.4.3,2.8.4,4.3.4,7.8,0,14.2-4,14.2-9s0-.6,0-.9c3.2,2.1,5.4,5.8,5.4,9.9Z"/>
      <ellipse class="st17" cx="963.7" cy="343.9" rx="11.9" ry="11.9"/>
    </g>
    <ellipse id="Start" class="st21" cx="836.4" cy="555.2" rx="3.3" ry="2.8"/>
  </g>
</svg>