<?xml version="1.0" encoding="UTF-8"?>
<svg id="Layer_2" xmlns="http://www.w3.org/2000/svg" version="1.1" viewBox="0 0 841.9 595.3">
  <!-- Generator: Adobe Illustrator 29.1.0, SVG Export Plug-In . SVG Version: 2.1.0 Build 142)  -->
  <defs>
    <style>
      .st0 {
        stroke-linecap: round;
        stroke-linejoin: round;
      }

      .st0, .st1 {
        fill: none;
        stroke: #3b3734;
        stroke-width: .3px;
      }

      .st1 {
        stroke-miterlimit: 10;
      }
    </style>
  </defs>
  <g id="Screwdriver">
    <path id="Handle" class="st1" d="M355.4,287h-2.1c-.5,0-1,0-1.4,0l-.3-29.3c-1.7-3.8,0-7.2,0-7.2h1.9c1.7,3.8.5,7.3.5,7.3l1.5,29.2Z"/>
    <path id="Top" class="st0" d="M355.6,287c4.1,0,3.5.1,3.6,1.6,0,0-2,4.2-2,7.6,0,5.6,3,12.2,3,18.2s-1.9,11.5-6.3,11.5-6.9-4.9-6.9-11.5,3.5-12.6,3.5-18.7-2.4-6.8-2.4-6.8c0-1.5-.7-1.9,4.1-1.9h3.5Z"/>
  </g>
</svg>