<?xml version="1.0" encoding="UTF-8"?>
<svg id="Layer_2" data-name="Layer 2" xmlns="http://www.w3.org/2000/svg" viewBox="0 0 26.09 82.36">
  <defs>
    <style>
      .cls-1 {
        fill: #afafaf;
      }
    </style>
  </defs>
  <g id="Layer_1-2" data-name="Layer 1">
    <g id="Wrench">
      <path class="cls-1" d="M20.45,2.57c-1.7-1.5-4.2-3.1-6.6-2.4h-.3c-.2.1-.9.5-.7.8h0l4.4,11,.4,1.1v.2l-.2.2-6.1,3.1c-.4.2-.8.4-1.3.6v-.2L5.25,6.87l-.7-1.5c-.1-.3-1-1-1.3-.8C-1.65,7.97-.15,14.57,2.15,19.07c.2.5.5,1,.8,1.4h0c-.1.1-.3.2-.4.3-.2.1-.4.3-.5.4h0l.2.2c4.4,4.8,7.1,10.9,7.7,17.4v1.2h1.2l5.7-.3h1.1c.1,0,.2-.2.2-.3.1-1.6.2-3.3.4-4.9,0-1.9.4-3.7.9-5.5,1.4-3.3,3.1-6.6,5-9.6l.9-1.6c.4-.8.6-1.6.7-2.5v-.9c.4-4.3-2.4-8.8-5.7-11.8h.1ZM20.55,20.17c0,.2-.6.6-.7.7l-1.2.6h0c0,.4,0,.9.1,1.3s-.2.2-.4.1c-.2-.1-.4-.3-.5-.5v-.5l-1.4.7v1.2c0,.3-.2.5-.5.4-.3,0-.5-.2-.5-.5v-.6l-1.2.6v.8c0,.2,0,.4-.3.5,0,0-.4.3-.4,0v-1.1c-.4.2-.7.4-1.1.5v1.2c.2.2,0,.3-.1.4h-.1c-.3,0-.5-.3-.5-.5v-.6l-1.7.8h0l-1-2.8s.1-.2.2-.4h0c.1-.1.3-.2.4-.3l1.2-.6.5-.2v-1c-.1-.2,0-.3.2-.4h.1c.3,0,.5.3.5.5v.5l1.1-.5v-.7c0-.2.2-.4.3-.6,0,0,.4-.3.4,0v.9l1.3-.6v-.9c0-.3.3-.5.6-.4.3,0,.5.2.5.5v.4l1.2-.6v-.8c0-.2.2-.2.3-.1.2.1.4.3.5.5h0l.9-.4h0l1.3,2.7v-.2Z"/>
      <path d="M18.05,39.87h-1.1l-5.7.2h-1.2c-.2,0-.4,0-.4.3v35.7c0,1.4.4,2.7,1.2,3.9,1.6,2,4.2,2.8,6.7,2.2,2.6-.7,3.6-3.6,3.5-6.1-.1-2-.3-4.1-.4-6.2l-.8-11.4-.8-11.6-.5-6.7v-.3c-.3,0-.5-.1-.7-.1l.2.1ZM17.15,76.37c.2.8.2,1.7,0,2.5-.1.4-.5.8-1,.8-.8,0-1.6-.5-2-1.2-.6-.8-.8-1.9-.6-2.8h0c.2-.8.9-2.7,2-2.1.9.6,1.5,1.7,1.5,2.8h.1Z"/>
      <path d="M19.15,17.57l-.9.4h0c0-.2-.2-.4-.5-.5-.1,0-.4-.1-.4.1v.8l-1.2.6v-.4c0-.3-.2-.5-.5-.5-.2,0-.6.1-.6.4v.9l-1.3.6v-.9c0-.3-.4,0-.4,0-.2.1-.3.3-.3.6v.7l-1.1.5v-.5c0-.3-.2-.5-.5-.5-.2,0-.3,0-.4.3v1.1c.1,0-.4.2-.4.2l-1.2.6c-.2,0-.3.2-.4.3h0c-.2.1-.3.3-.2.4l1,2.8h0l1.7-.8v.6c.1.3.3.5.6.5.2,0,.3,0,.4-.3v-1.3c.2-.2.6-.3.9-.5v1.1c0,.3.4,0,.4,0,.2-.1.3-.3.3-.5v-.8l1.1-.6v.6c0,.3.2.5.5.5.2,0,.6-.1.5-.4v-1.2l1.4-.7v.5c0,.2.3.4.5.5.1,0,.4,0,.4-.1s0-.9-.1-1.3h0l1.2-.6c0-.1.8-.5.7-.7l-1.2-2.7h0v.2ZM11.55,24.37l-.6.3h0s0-.4-.1-.4-.2-.6-.3-.9l-.4-1.2.9-.4c.2-.1.4-.2.6-.3h0v2.9h-.1ZM13.45,23.47h0l-.5.2-.5.2h0l-.3-2.7.6-.3.5-.2h0c.1.9.2,1.8.2,2.7h0v.1ZM15.35,22.57l-1.2.6h0l-.3-2.8,1.3-.6h0v2.8h.2ZM17.75,21.47h0l-1.4.6v-2.8c.1,0,.4-.2.6-.3l.5-.3h0l.2,2.8h.1ZM18.65,18.57l.4.9.5,1.1h0l-1.1.5-.3-2.6v-.2h.1s.3.3.3.4h0l.1-.1Z"/>
    </g>
  </g>
</svg>