<?xml version="1.0" encoding="UTF-8"?>
<svg id="Layer_2" data-name="Layer 2" xmlns="http://www.w3.org/2000/svg" viewBox="0 0 202.18 120.84">
  <g id="Layer_1-2" data-name="Layer 1">
    <g id="Toolbox">
      <g id="Generative_Object" data-name="Generative Object">
        <g>
          <path d="M200.19,99.58c-4.62-.8-15.04,1.26-16.86,6.05-.78-9.32-.43-18.75-.43-28.09.01-6.89-.36-13.9.43-20.75h16.86c0,14.26.08,28.54,0,42.79Z" fill="#be2033"/>
          <path d="M198.89,117.52c-3.14,4.25-11.1,2.68-15.99,2.81.57-4.02-.94-11.07.43-14.7,1.82-4.79,12.24-6.85,16.86-6.05-.03,5.16,1.9,13.62-1.3,17.94Z" fill="#34607f"/>
          <path d="M19.96,120.33c-4.83-.13-12.88,1.4-15.99-2.81-3.09-4.2-1.26-13.18-1.29-18.37,15.81-.61,18.71,6.7,17.28,21.18Z" fill="#34607f"/>
          <path d="M200.19,55.93v.86h-82.98c0-.24,0-.46,0-.68v-.18h82.98Z" fill="#3b3734"/>
          <g>
            <path d="M182.9,77.54c.01-6.89-.36-13.9.43-20.75h-66.12c.02.76-.45,2.55-.43,3.89h0c.03,4.37.31,9.45.09,13.9-.01.49-.04.97-.08,1.44.01.08,0,.15-.01.22h0c-.1,1.22-.17,1.86-.44,3.03-.15.25-.4.58-.69.92-.12.13-.24.27-.38.4-.59.61-1.27,1.16-1.74,1.27-.13.03-.51.06-1.06.09-.14,0-.28.01-.43.01-.25,0-.53.02-.82.03-.18,0-.36.01-.56.01-.33,0-.68.01-1.04.02-3.93.06-9.77.05-12.61-.05-.09,0-.18,0-.26,0-.29-.01-.55-.02-.75-.03-.33-.02-.55-.04-.63-.07-.07-.02-.19-.12-.34-.26l-.16-.16c-.69-.7-1.78-2.04-1.86-2.39-.11-.43-.2-1.35-.26-2.59-.04-.52-.06-1.1-.08-1.73-.01-.2-.01-.4-.02-.6,0-.3-.02-.61-.03-.93,0-.22-.01-.44-.01-.67-.1-4.27-.1-9.58-.07-12.99.01-.73.02-1.38.02-1.9,0-.22,0-.42.01-.6v-.25H3.11c-.72,14.08-.52,28.26-.43,42.36,15.81-.61,18.71,6.7,17.28,21.18,11.78.3,23.66-.06,35.44,0,42.17.2,85.43,1.06,127.5,0,.57-4.02-.94-11.07.43-14.7-.78-9.32-.43-18.75-.43-28.09ZM14.35,89.86c-.78,3.03-3.45,3.57-6.06,2.81.36-.94-.41-1.23-.43-1.3-.78-3.64-1.92-21.37-.86-26.15.91-4.1,6.97-2.81,7.78.87.49,2.24.16,21.43-.43,23.77Z" fill="#ea4d64"/>
            <path d="M14.78,66.09c.49,2.24.16,21.43-.43,23.77-.78,3.03-3.45,3.57-6.06,2.81.36-.94-.41-1.23-.43-1.3-.78-3.64-1.92-21.37-.86-26.15.91-4.1,6.97-2.81,7.78.87Z" fill="#ea4d64"/>
            <path d="M92.61,72.53c-.1-4.27-.1-9.58-.07-12.99-.02,3.41-.03,8.72.07,12.99Z" fill="#ea4d64"/>
            <path d="M92.67,74.73c.02.62.05,1.2.08,1.73-.04-.52-.06-1.1-.08-1.73Z" fill="#ea4d64"/>
            <path d="M109.62,82.02c-3.93.06-9.77.05-12.61-.05,2.84.09,8.68.1,12.61.05Z" fill="#ea4d64"/>
            <path d="M14.35,89.86c-.78,3.03-3.45,3.57-6.06,2.81.36-.94-.41-1.23-.43-1.3-.78-3.64-1.92-21.37-.86-26.15.91-4.1,6.97-2.81,7.78.87.49,2.24.16,21.43-.43,23.77Z" fill="#f3a292"/>
          </g>
        </g>
        <g>
          <path d="M144.44,21.78c.35,0,.46.43,1.3.43,10.79.04,21.62-.14,32.41,0,3.12.04,8.1-.73,11.24-.43,5.3.5,10.57,1.61,12.1,7.56.61,2.38.97,22.97.43,25.07-.12.48-.93,1.76-1.73,1.51h-82.98c-.07-2.93.32-13.42-2.81-14.26-.92-.25-18.1-.24-19.02,0-3.13.83-2.73,11.02-2.81,14.26-.28.03-.65-.06-.86,0-2.98.46-6.17-.43-9.08-.43,3.83-4.99,4.3-15.06,4.32-21.39.01-4.11.28-7.88-2.16-11.45,16.36-.04,32.91-.91,49.27-.86,3.44,0,6.94-.01,10.37,0Z" fill="#fab400"/>
          <g>
            <path d="M38.68,22.21c5.9-.05,11.82.03,17.72,0,1.72,0,3.46,0,5.19,0,4.46-.02,8.94.02,13.4,0,3.3-.01,6.73.44,9.94.43,2.44,3.57,2.18,7.35,2.16,11.45-.02,6.34-.49,16.4-4.32,21.39-26.76,0-53.61.9-80.39.43-.62-.45-1.56-1.2-1.73-1.94-1.36-6.05-.97-27.07,4.97-30.47,4.2-2.4,26.61-1.24,33.06-1.3Z" fill="#ffe8ae"/>
            <path d="M92.57,55.93v.86H3.11c-.5.1-.81-.82-.87-.86h.14c26.74.46,53.54-.43,80.25-.43h.14c2.87.03,6.01.88,8.94.43.21-.07.59.03.86,0Z" fill="#3b3734"/>
            <path d="M7.43,28.91c.22-1.35,2.02-2.14,3.24-2.38,6.55-1.3,28.96-.35,36.74,0,3.97.18,8.69.22,12.32,1.51l-45.16,1.94c-.96.5-3.36,5.91-3.67,7.13-.18.69-1.05,11.26-1.94,9.72-2.26-3.89-2.24-13.49-1.51-17.94Z" fill="#fff5df"/>
            <polygon points="8.51 47.71 8.94 48.15 8.94 48.58 8.51 48.58 8.51 47.71" fill="#263238"/>
          </g>
        </g>
        <g>
          <path d="M143.13,6c.55,4.21-.81,8.49.87,13.18,2.33-.38,2.7,1.23,1.72,3.03-.83,0-.95-.42-1.29-.42-3.44-.02-6.94,0-10.38,0,0,0,1.66-12.91-7.13-10.81-7.86,1.87-52.73,0-52.73,0-.89.4-.85,6.6-.64,7.56.11.51,3.12,1.27,1.3,3.67-4.46.02-8.94-.02-13.41,0-2.19-4.46,3.82-2.19,4.33-3.67,1.02-3.01-3.38-16.24,3.67-17.94,18.7.4,18.48.91,37.09-.03,24.56-1.25,35.77-.85,36.6,5.44Z" fill="#34607f"/>
          <path d="M70.5,2.6c1.05-.23,29.76-.3,28.76.61-4,3.65-30.49,2.42-30.49,2.42-1.27-1.25.76-2.81,1.73-3.03Z" fill="#768b9f"/>
        </g>
        <g>
          <path d="M117.21,55.92v.19c0,.22-.02.45,0,.68.02.76-.45,2.55-.43,3.89h0c.03,4.37.31,9.45.09,13.9-.02.4-.04.8-.07,1.2-5.71.22-16.32.49-18.25-.57-2.34-1.31-1.19-24.86-.87-33.66.29-.01.6-.01.93-.02.44,0,.91,0,1.41-.02,4.32-.04,10.45-.02,13.1.07h.02c.45.02.8.04,1.02.06.11,0,.19.02.23.03.29.08.56.24.79.48.08.08.15.16.23.25.14.18.28.4.4.65.18.36.34.78.48,1.24.05.15.09.31.13.47.08.33.16.67.22,1.02.37,1.94.49,4.26.53,6.26.01.18.01.36.01.54.02,1.05.02,1.99.02,2.71,0,.24,0,.45,0,.63Z" fill="#afafaf"/>
          <path d="M104.03,65.87c2.86-.93,1.95,3.29,1.94,4.54-3.42,2.65-3.98-3.87-1.94-4.54Z" fill="#3b3734"/>
        </g>
      </g>
      <path d="M116.8,75.78c0,.08,0,.16-.01.24.01.08,0,.15-.01.22h0c-.1,1.22-.17,1.86-.44,3.03-.15.25-.4.58-.69.92-.12.13-.25.27-.38.4-.59.61-1.27,1.16-1.74,1.27-.13.03-.51.06-1.06.09-.13,0-.28.01-.43.01-.25,0-.53.02-.82.03-.18,0-.37,0-.56.01-.33,0-.68.01-1.04.02-3.93.06-9.77.05-12.61-.05-.09,0-.18,0-.26,0-.29-.01-.55-.02-.75-.03-.33-.02-.55-.04-.63-.07-.07-.02-.19-.12-.34-.26l-.16-.16c-.69-.7-1.78-2.04-1.86-2.39-.11-.43-.2-1.35-.26-2.59-.04-.52-.06-1.1-.08-1.73-.01-.2-.01-.4-.02-.6,0-.3-.02-.61-.03-.93,0-.22-.01-.44-.01-.67-.1-4.27-.1-9.58-.07-12.99.01-.73.02-1.38.02-1.9.01-.22.01-.42.01-.6.01-.09.01-.17.01-.25,0-.1,0-.2-.01-.3v-.28c0-.1,0-.19.01-.29.02-.71,0-1.75.02-2.95.01-.51.01-1.06.03-1.62.01-.37.02-.75.04-1.14.06-1.35.17-2.73.37-3.99.06-.36.13-.7.2-1.04.11-.5.24-.97.39-1.39.05-.14.1-.27.16-.4.22-.53.49-.96.8-1.26.23-.23.49-.38.78-.46.03-.01.08-.02.14-.02.05,0,.13-.02.21-.03.12-.01.28-.02.46-.02.18-.02.39-.02.63-.03.26-.01.55-.01.87-.02-.32,8.8-1.47,32.35.87,33.66,1.93,1.06,12.54.79,18.25.57Z" fill="#34607f"/>
    </g>
  </g>
</svg>