<?xml version="1.0" encoding="UTF-8"?>
<svg id="Layer_2" data-name="Layer 2" xmlns="http://www.w3.org/2000/svg" viewBox="0 0 100.65 42.8">
  <defs>
    <style>
      .cls-1 {
        fill: #fab400;
        stroke: #cb9231;
        stroke-miterlimit: 10;
      }
    </style>
  </defs>
  <g id="Layer_1-2" data-name="Layer 1">
    <path class="cls-1" d="M97.69,10.65c-7-1.45-67.5,1.23-67.5,1.23C28.84,4.82,25.29.35,16.69.5,5.15.71.3,7.46.51,19c.21,11.55,5.41,23.51,16.95,23.3,11.55-.21,13.61-12.75,13.4-24.29,0,0,43.45-2.19,46.69-1.07,2.13.74-1.46,7.46.16,9.03,1.11,1.07,5.1,1,6.17-.11,1.37-1.43-.65-6.01-.14-7.93.29-1.14,7.96-1.52,7.92-.14-.1,3.25-2.1,10.74.24,12.99,1.11,1.07,5.1,1,6.17-.11,3.48-3.59,2.13-19.49-.36-20.01ZM15.97,35.4c-4.45.08-8.18-6.36-8.32-14.38s3.35-14.59,7.79-14.67,8.19,6.35,8.33,14.38-3.35,14.59-7.8,14.67Z"/>
  </g>
</svg>