<?xml version="1.0" encoding="UTF-8"?>
<svg id="Layer_2" data-name="Layer 2" xmlns="http://www.w3.org/2000/svg" viewBox="0 0 85.47 94.32">
  <g id="Layer_2-2" data-name="Layer 2">
    <g id="Bulb_On">
      <path d="M60.14,92.71c-1.06-.02-2.15-.03-3.21,0,.5-.44,1.19-.41,1.54-1.08.65-1.26,1.01-5.07,1.78-7.06,2.83-7.37,9.21-9.8,13.98-15.34,12.69-14.76,12.82-37.51.39-52.41C41.08-23.35-20.87,23.09,9.92,67.01c.08.12.13.43.4.8.11.15.29.26.4.4,3.22,4.17,5.68,5.3,9.25,8.63,4.57,4.27,7.02,10.85,6.82,17.07,1.39.01,10.03-.29,10.39-.86.08-5.19-1.2-10.22-2.35-15.2-.88-3.79-1.39-6.77-3.03-10.43-1.86-4.14-9.25-11.81-4.42-15.68,2.34-1.88,4.95-.6,5.37-.84.16-.09,1.27-2.57,1.85-3.18,1.8-1.9,5.01-1.48,7.02-.15.5.33,1.57,1.71,1.83,1.71.88,0,2.46-2.6,6.1-1.6,2.6.72,2.76,2.51,3.74,3.1.38.23,1.54-.57,2.26-.61,1.57-.08,3.53,1.11,4.26,2.51,2.99,5.69-3.58,9.61-5.91,13.92-1.61,2.98-1.83,5.39-2.61,8.44-.05.21-.49.63-.62,1.17-1.22,5.27-1.85,10.7-2.2,16.1.39.4,3.89-.87,3.62.8-8.77.32-18.25.47-26.92,1.2.17-2.27-.18-4.49-.75-6.68-2.45-9.36-9.47-11.25-14.91-18.03C-14.77,39.28,10.68-4.72,49.04.41c35.72,4.78,49,50.14,22.36,74.03-2.86,2.56-5.44,3.64-7.73,7.13-1.39,2.11-4.17,8.82-3.52,11.14ZM48.89,76.25c1.68-7.81,3.3-9.72,7.8-15.69,3.01-3.99,3.68-9.84-2.98-8.39,1.11,2.96.32,10.06-4.13,8.75-4.79-1.41,2.11-8.74,2.06-9.29-.27-3.1-6.65-3.2-7.1-.82-.1.54,1.07,3.21,1.14,4.38.44,7.52-6.96,6.33-4.81-1.6.26-.96,1.33-2.38,1.13-3.15-.6-2.31-4.75-3.14-6.59-1.1-2.48,2.73,0,2.78,1.36,4.7,4.64,6.54-3.86,10.12-4.72,3.11-.19-1.58.28-2.4.35-3.64.13-2.47-4.7-1.66-4.84,1.66-.13,3.02,4.42,8.62,5.85,11.87,1.53,3.46,2.65,7.53,3.43,11.23,1.03,4.88,1.51,9.9,2.01,14.85,2.68.02,5.37.14,8.01-.42.62-5.44.88-11.08,2.03-16.44ZM42.87,52.16c-.37,1.02-1.61,6.13-.2,6.42,1.98.41,1.79-5.62.2-6.42ZM33.63,53.77c-.09,1.25.08,6.25,2.19,5.61,1.8-.54-.06-5.75-2.19-5.61ZM52.51,53.77c-1.04-.24-.7.31-1.03.76-.6.81-3.07,4.27-1.17,4.86s2.48-4.39,2.2-5.62Z" fill="#cb9231"/>
      <path d="M74.61,16.82c.44,2.4,1.95,4.39,2.7,6.74,6.76,21.2-4.94,44.74-26,51.48.78-3.05.99-5.46,2.61-8.44,2.33-4.32,8.9-8.23,5.91-13.92-.74-1.4-2.69-2.59-4.26-2.51-.71.04-1.87.84-2.26.61-.98-.59-1.13-2.38-3.74-3.1-3.64-1-5.22,1.61-6.1,1.6-.26,0-1.33-1.38-1.83-1.71-2.01-1.33-5.22-1.75-7.02.15-.58.61-1.69,3.09-1.85,3.18-.42.24-3.03-1.03-5.37.84-4.83,3.88,2.56,11.54,4.42,15.68,1.64,3.66,2.15,6.64,3.03,10.43-5.02-.38-9.82-1.96-14.45-3.83l-9.66-5.81c-.11-.15-.29-.25-.4-.4l-.4-.8C-20.87,23.09,41.08-23.35,74.61,16.82ZM31.53,8.5c-5.67.55-13.32,6.26-16.31,11-5.01,7.93-2.76,16.63,7.98,13.99,6.33-1.56,14.67-9.54,16.26-15.87,1.51-6.01-1.73-9.73-7.93-9.13ZM11.82,36.97c-3.56.74-4.98,8.91-.87,9.16,4.43.27,6.45-10.31.87-9.16Z" fill="#ffe8ae"/>
      <path d="M56.93,92.71c-1.49.05-3.15.34-4.82.4.28-1.67-3.23-.41-3.62-.8.35-5.39.98-10.83,2.2-16.1.13-.55.56-.96.62-1.17,21.07-6.74,32.76-30.28,26-51.48-.75-2.34-2.26-4.34-2.7-6.74,12.43,14.9,12.3,37.65-.39,52.41-4.77,5.54-11.14,7.97-13.98,15.34-.76,1.99-1.12,5.8-1.78,7.06-.35.67-1.04.63-1.54,1.08Z" fill="#fab400"/>
      <path d="M36.84,78.26c-.78-3.7-1.9-7.77-3.43-11.23-1.43-3.24-5.99-8.85-5.85-11.87.15-3.32,4.97-4.12,4.84-1.66-.06,1.23-.54,2.05-.35,3.64.85,7.01,9.35,3.43,4.72-3.11-1.36-1.92-3.84-1.97-1.36-4.7,1.85-2.03,6-1.21,6.59,1.1.2.77-.87,2.2-1.13,3.15-2.15,7.93,5.24,9.12,4.81,1.6-.07-1.17-1.24-3.84-1.14-4.38.45-2.38,6.83-2.27,7.1.82.05.54-6.85,7.88-2.06,9.29,4.45,1.31,5.24-5.79,4.13-8.75,6.66-1.45,5.99,4.4,2.98,8.39-4.51,5.98-6.12,7.88-7.8,15.69-3.92,1.15-7.99,1.63-12.05,2.01Z" fill="#ffe8ae"/>
      <path d="M34.83,77.85c1.15,4.98,2.44,10.01,2.35,15.2-.36.57-9,.87-10.39.86.2-6.22-2.25-12.8-6.82-17.07-3.57-3.33-6.03-4.45-9.25-8.63l9.66,5.81c4.63,1.87,9.43,3.45,14.45,3.83Z" fill="#fab400"/>
      <path d="M48.89,76.25c-1.15,5.36-1.42,11-2.03,16.44-2.64.56-5.32.44-8.01.42-.5-4.96-.98-9.97-2.01-14.85,4.07-.38,8.14-.85,12.05-2.01Z" fill="#fab400"/>
      <path d="M33.63,53.77c2.14-.14,3.99,5.07,2.19,5.61-2.11.63-2.29-4.37-2.19-5.61Z" fill="#ffe8ae"/>
      <path d="M52.51,53.77c.27,1.22-.25,6.22-2.2,5.62s.57-4.05,1.17-4.86c.33-.45,0-1,1.03-.76Z" fill="#ffe8ae"/>
      <path d="M42.87,52.16c1.59.8,1.78,6.83-.2,6.42-1.41-.29-.17-5.4.2-6.42Z" fill="#ffe8ae"/>
      <path d="M31.53,8.5c6.2-.6,9.44,3.11,7.93,9.13-1.59,6.33-9.93,14.31-16.26,15.87-10.74,2.64-12.99-6.06-7.98-13.99,2.99-4.74,10.64-10.45,16.31-11Z" fill="#fff5df"/>
      <path d="M11.82,36.97c5.58-1.15,3.57,9.43-.87,9.16-4.11-.25-2.69-8.42.87-9.16Z" fill="#fff5df"/>
    </g>
  </g>
</svg>