<?xml version="1.0" encoding="UTF-8"?>
<svg id="Layer_2" data-name="Layer 2" xmlns="http://www.w3.org/2000/svg" viewBox="0 0 13.21 75.88">
  <defs>
    <style>
      .cls-1 {
        fill: #8d8d8e;
      }

      .cls-2 {
        fill: #d3d3d5;
      }

      .cls-3 {
        fill: #6a6b6b;
      }

      .cls-4 {
        fill: #be2033;
      }

      .cls-5 {
        fill: #d1d2d3;
      }

      .cls-6 {
        fill: #afafaf;
      }
    </style>
  </defs>
  <g id="Layer_1-2" data-name="Layer 1">
    <g id="Screwdriver">
      <path class="cls-6" d="M5.76,36.48c.4-9.3-1-19.3-.7-28.7l1.1-.3.2.7,1,28.3c0,.2-1.3.3-1.5,0h-.1Z"/>
      <path class="cls-1" d="M7.66,3.88h-.3c-.5-.9-1.8-2.1-2.3-3.2-.2,0,0,.2,0,.2-.2,0-.2.2-.3.4,0-.1.1-.8.1-.8h1.9c.2,1.2.6,2.3.8,3.5l.1-.1Z"/>
      <g>
        <path class="cls-6" d="M8.66,36.68h-3c.2,0,0-.2,0-.3.2.3,1.4.2,1.5,0l-1-28.3-.2-.7-1.1.3c-.9-2.5-1.1-4.1-.2-6.5s0-.4.3-.4c0,.5.7,4,.8,4.2s1.5-.5,1.6-.6,0-.3-.1-.4h.3c.3,1.7-.3,2.4-.3,4-.2,3.9.6,9,.7,13.1.2,5.2.4,10.4.6,15.6h.1Z"/>
        <polygon class="cls-2" points="7.16 11.58 7.76 23.68 8.06 35.68 7.46 23.68 7.16 11.58"/>
      </g>
      <path class="cls-3" d="M7.36,3.98c0,.1.2.3.1.4s-1.4.8-1.6.6-.8-3.7-.8-4.2-.1-.2,0-.2c.5,1.1,1.8,2.3,2.3,3.3v.1Z"/>
      <g>
        <path class="cls-4" d="M5.66,36.78h3c1,0,3.1-.5,3.5,1.2s-1.1,2.4-1.6,3.7c-1.5,4,1.3,11.4,2.1,15.7s1.9,18.5-6.1,18.5S-.34,62.28.56,57.18c.8-4.3,4.4-11.6,2.5-15.5s-2.1-2.1-2-3.4.4-1,1-1.2,2.9-.1,3.6-.1v-.2Z"/>
        <g>
          <path class="cls-5" d="M9.26,38.88c.3.3.4,1.5-.1,1.7s-3.9.3-4.2.2-.5,0-.5,0c-.2-.2-.3-1.5,0-1.7s4.6-.3,4.8-.1v-.1Z"/>
          <path d="M8.66,39.48c.1.1.1.4,0,.5-.4,0-3.6.3-3.7,0s.1-.3.3-.4,3.4-.3,3.5-.1h-.1Z"/>
        </g>
      </g>
    </g>
  </g>
</svg>