<?xml version="1.0" encoding="UTF-8" standalone="no"?>
<!-- Created with Inkscape (http://www.inkscape.org/) -->

<svg
   version="1.1"
   id="svg2"
   xml:space="preserve"
   width="267.1517"
   height="80.309898"
   viewBox="0 0 267.1517 80.309898"
   sodipodi:docname="MaakBib_Logo_LeftRight.svg"
   inkscape:version="1.1.1 (1:1.1+202109281949+c3084ef5ed)"
   xmlns:inkscape="http://www.inkscape.org/namespaces/inkscape"
   xmlns:sodipodi="http://sodipodi.sourceforge.net/DTD/sodipodi-0.dtd"
   xmlns="http://www.w3.org/2000/svg"
   xmlns:svg="http://www.w3.org/2000/svg"><defs
     id="defs6" /><sodipodi:namedview
     id="namedview4"
     pagecolor="#ffffff"
     bordercolor="#666666"
     borderopacity="1.0"
     inkscape:pageshadow="2"
     inkscape:pageopacity="0.0"
     inkscape:pagecheckerboard="0"
     showgrid="false"
     inkscape:zoom="5.1094565"
     inkscape:cx="133.67371"
     inkscape:cy="40.121684"
     inkscape:window-width="1920"
     inkscape:window-height="1051"
     inkscape:window-x="0"
     inkscape:window-y="0"
     inkscape:window-maximized="1"
     inkscape:current-layer="g8" /><g
     id="g8"
     inkscape:groupmode="layer"
     inkscape:label="Group 145"
     transform="matrix(1.3333333,0,0,-1.3333333,0,80.309896)"><g
       id="g10"
       transform="translate(177.04248,7.480469)"><path
         d="m 1.7,9.681641 c 0,0.938883 -0.761116,1.699999 -1.7,1.699999 -0.938884,0 -1.7,-0.761116 -1.7,-1.699999 z M -1.7,3.399754 c 0,-0.938885 0.761116,-1.700001 1.7,-1.700001 0.938884,0 1.7,0.761116 1.7,1.700001 z m 0,6.281887 V 3.399754 h 3.4 v 6.281887 z"
         style="fill:#5284c6;fill-opacity:1;fill-rule:nonzero;stroke:none"
         id="path12" /></g><g
       id="g14"
       transform="translate(176.63281,9.027344)"><path
         d="m 1.20208,10.250911 c -0.663892,0.663891 -1.740272,0.66389 -2.404163,-2e-6 -0.66389,-0.663893 -0.663889,-1.740273 3e-6,-2.404164 z M 4.116241,2.528436 c 0.663891,-0.663891 1.740272,-0.66389 2.404163,2e-6 0.66389,0.663892 0.663889,1.740273 -3e-6,2.404163 z M -1.20208,7.846745 4.116241,2.528436 6.520401,4.932601 1.20208,10.250911 Z"
         style="fill:#5284c6;fill-opacity:1;fill-rule:nonzero;stroke:none"
         id="path16" /></g><g
       id="g18"
       transform="translate(172.07471,9.027344)"><path
         d="m 6.520391,7.846746 c 0.663892,0.663892 0.663892,1.740272 0,2.404164 -0.663891,0.663891 -1.740272,0.663891 -2.404163,0 z M -1.202082,4.9326 c -0.663891,-0.663891 -0.663891,-1.740272 0,-2.404163 0.663892,-0.663892 1.740272,-0.663892 2.404164,0 z m 5.31831,5.31831 -5.31831,-5.31831 2.404164,-2.404163 5.318309,5.318309 z"
         style="fill:#5284c6;fill-opacity:1;fill-rule:nonzero;stroke:none"
         id="path20" /></g><g
       id="g22"
       transform="translate(167.07861,14.296875)"><path
         d="m 19.988487,1.698437 c 0.938885,0 1.700001,0.761116 1.700001,1.700001 0,0.938884 -0.761116,1.699999 -1.700001,1.699999 z M 0,5.098437 c -0.938884,0 -1.7,-0.761115 -1.7,-1.699999 0,-0.938885 0.761116,-1.700001 1.7,-1.700001 z m 19.988487,0 H 0 v -3.4 h 19.988487 z"
         style="fill:#5284c6;fill-opacity:1;fill-rule:nonzero;stroke:none"
         id="path24" /></g><g
       id="g26"
       transform="translate(81.522461,21.859375)"><path
         d="M 19.771875,22.222656 22.722342,7.72e-4 H 19.547787 L 17.45632,16.792297 11.420929,5.274267 5.266023,16.822182 3.174555,7.72e-4 H 0 l 2.980345,22.221884 h 2.569524 l 5.84118,-11.017572 5.781423,11.017572 z"
         style="fill:#263238;fill-opacity:1;fill-rule:nonzero;stroke:none"
         id="path28" /></g><g
       id="g30"
       transform="translate(151.33252,21.806641)"><path
         d="m 15.581463,11.512644 c 0.92215,0.319479 1.716352,0.928441 2.264204,1.736084 0.547851,0.807644 0.820003,1.770713 0.775892,2.74564 0.02318,1.246019 -0.388891,2.461122 -1.165245,3.435993 -0.680653,0.91218 -1.653509,1.563387 -2.756263,1.844978 -1.605065,0.300934 -3.237796,0.428644 -4.870132,0.380942 H 0 V 18.011154 H 2.651689 V 3.73686 H 0 V 0.091722 h 9.837384 c 1.791987,-0.05462 3.58321,0.131289 5.325786,0.55275 1.228433,0.343582 2.314684,1.071242 3.099855,2.076531 0.810791,1.047794 1.235524,2.343086 1.202597,3.667535 -0.005,2.45499 -1.299698,4.163025 -3.884159,5.124106 z M 8.253845,17.973803 H 9.64318 c 0.909054,0.07733 1.821271,-0.106673 2.62927,-0.530343 0.264433,-0.215902 0.471125,-0.494092 0.601498,-0.809595 0.130373,-0.315502 0.180348,-0.658441 0.145456,-0.998031 0.04361,-0.364558 -0.0015,-0.734251 -0.131586,-1.0776 C 12.757762,14.214886 12.546641,13.908052 12.27245,13.663875 11.541611,13.235044 10.697263,13.039591 9.852326,13.10366 H 8.276253 Z M 12.840142,4.319485 C 11.925244,3.827879 10.887286,3.612501 9.852326,3.699511 H 8.276253 V 9.465997 H 9.852326 C 10.876591,9.540668 11.900168,9.312048 12.795327,8.808674 13.124181,8.52896 13.379763,8.173188 13.539876,7.772255 13.699989,7.371321 13.759789,6.937349 13.714077,6.508054 13.756735,6.099736 13.699474,5.687168 13.547228,5.305902 13.394981,4.924635 13.152317,4.586111 12.840142,4.319485 Z"
         style="fill:#263238;fill-opacity:1;fill-rule:nonzero;stroke:none"
         id="path32" /></g><g
       id="g34"
       transform="translate(174.48779,14.892578)"><path
         d="M 4.482392,4.498666 C 4.726702,4.257196 4.919003,3.968283 5.047463,3.649703 5.175922,3.331123 5.237822,2.989622 5.229346,2.646223 5.236078,2.303052 5.173384,1.962055 5.045024,1.643723 4.916664,1.325391 4.725287,1.036283 4.482392,0.793768 4.238457,0.546245 3.947742,0.349696 3.627161,0.215533 3.306579,0.081371 2.962529,0.01228 2.615007,0.01228 2.267484,0.01228 1.923434,0.081371 1.602853,0.215533 1.282271,0.349696 0.991556,0.546245 0.747621,0.793768 0.504726,1.036283 0.313349,1.325391 0.184989,1.643723 0.05663,1.962055 -0.006064,2.303052 6.67e-4,2.646223 -0.007225,2.988433 0.054973,3.328634 0.183428,3.645919 0.311883,3.963203 0.503881,4.250865 0.747621,4.4912 0.989766,4.732491 1.277754,4.922882 1.594612,5.051165 1.911471,5.179448 2.250792,5.243028 2.592599,5.238154 2.941616,5.252331 3.28978,5.193929 3.615068,5.066643 3.940355,4.939356 4.235686,4.745951 4.482392,4.498666 Z"
         style="fill:#263238;fill-opacity:1;fill-rule:nonzero;stroke:none"
         id="path36" /></g><g
       id="g38"
       transform="translate(172.35156,21.839844)"><path
         d="m 0,15.005859 h 9.299576 v -3.45839 H 7.073656 V -4.46e-4 H 0 v 3.4584 h 2.285678 v 8.089515 H 0 Z"
         style="fill:#263238;fill-opacity:1;fill-rule:nonzero;stroke:none"
         id="path40" /></g><g
       id="g42"
       transform="translate(182.2124,21.626953)"><path
         d="m 16.343357,13.427421 c -0.557671,0.702763 -1.271055,1.266295 -2.083836,1.646111 -0.812782,0.379816 -1.702717,0.565517 -2.599568,0.542459 -0.820948,-0.0052 -1.630272,-0.194463 -2.368401,-0.553833 -0.738131,-0.359371 -1.386267,-0.879706 -1.8967,-1.522699 v 8.261322 H 0 v -3.4584 H 2.606874 V 3.694609 H 0 V 0.236208 h 7.394852 v 1.732939 c 0.556441,-0.610321 1.233349,-1.098669 1.988017,-1.43422 0.754668,-0.33555 1.570706,-0.511018 2.3966,-0.515331 0.868574,-0.018867 1.730181,0.158762 2.520467,0.519629 0.790286,0.360866 1.488823,0.895639 2.043421,1.564367 1.175972,1.653767 1.807821,3.632666 1.807821,5.661915 0,2.029249 -0.631849,4.008147 -1.807821,5.661914 z M 12.399442,4.755281 C 12.14773,4.436617 11.827117,4.179104 11.461658,4.00206 11.096197,3.825016 10.695384,3.733042 10.289298,3.733042 9.883213,3.733042 9.4824,3.825016 9.11694,4.00206 8.75148,4.179104 8.430856,4.436617 8.179144,4.755281 7.632231,5.657978 7.347446,6.69511 7.356681,7.750519 c 0.00924,1.055408 0.31213,2.08741 0.874756,2.980396 0.263092,0.304208 0.588932,0.547854 0.95512,0.714187 0.366187,0.166331 0.764038,0.2514 1.166226,0.249379 0.399794,0.01493 0.797485,-0.06452 1.160847,-0.23193 0.363363,-0.167406 0.68218,-0.418056 0.930627,-0.731636 0.589514,-0.846188 0.869158,-1.869801 0.791769,-2.898186 0.07979,-1.091159 -0.215349,-2.176857 -0.836584,-3.077448 z"
         style="fill:#263238;fill-opacity:1;fill-rule:nonzero;stroke:none"
         id="path44" /></g><g
       id="g46"
       transform="translate(121.54981,21.441406)"><path
         d="m 12.791156,2.744027 c -0.272005,0.265829 -0.445806,0.616058 -0.492993,0.993451 -0.08792,0.638439 -0.125379,1.282817 -0.112038,1.927143 v 3.167091 c 0.05075,1.501315 -0.135795,3.001229 -0.552751,4.444376 -0.281882,0.960559 -0.903001,1.786066 -1.747869,2.323027 C 8.901646,16.10634 7.801692,16.345903 6.696008,16.293777 5.7057,16.296663 4.720777,16.148046 3.775414,15.853078 2.919886,15.593013 2.116135,15.186079 1.400106,14.65048 l 0.418292,-2.315562 c 0.646532,0.472777 1.362038,0.843129 2.121347,1.098023 0.638807,0.197091 1.303439,0.297799 1.971959,0.298789 0.924364,0.08071 1.845677,-0.185567 2.584466,-0.746954 0.537807,-0.49299 0.806711,-1.441624 0.806711,-2.838429 C 7.065332,10.153026 4.850476,9.697844 2.796906,8.809292 1.947667,8.487421 1.221055,7.906809 0.71976,7.149503 0.218464,6.392198 -0.032157,5.496503 0.003305,4.589005 -0.015737,3.987292 0.092151,3.388314 0.319943,2.831059 0.547735,2.273806 0.890316,1.770767 1.325406,1.354692 1.790296,0.921924 2.337135,0.586612 2.933666,0.368525 3.530198,0.150438 4.164353,0.053993 4.798749,0.084871 5.712909,0.082151 6.615831,0.28636 7.43985,0.682199 8.263868,1.078038 8.987608,1.655241 9.556843,2.37055 9.743932,1.904571 9.995358,1.467096 10.303797,1.070857 10.610046,0.715927 11.011968,0.456624 11.461578,0.323903 12.143769,0.130651 12.851922,0.044958 13.560517,0.069929 h 0.224089 l 0.440701,2.285679 H 13.94146 C 13.522709,2.335007 13.111702,2.473793 12.791156,2.744027 Z M 9.325289,4.484432 C 8.858588,3.862087 8.2589,3.351718 7.569942,2.990524 6.883224,2.614305 6.112092,2.418955 5.32908,2.422843 4.689103,2.388354 4.059645,2.596395 3.566268,3.005466 3.336488,3.240734 3.159639,3.52239 3.047563,3.831566 2.935487,4.14074 2.890775,4.470291 2.916422,4.798152 2.888393,5.319451 3.015305,5.837379 3.281157,6.286669 3.547009,6.735959 3.939902,7.096506 4.41033,7.322861 5.396309,7.845729 7.024667,8.144505 9.310347,8.226669 Z"
         style="fill:#263238;fill-opacity:1;fill-rule:nonzero;stroke:none"
         id="path48" /></g><g
       id="g50"
       transform="translate(137.9541,21.863281)"><path
         d="m 5.871059,8.320322 6.34911,-8.321068 H 8.731895 L 2.85337,7.90203 V -7.46e-4 H 0 V 23.804688 H 2.85337 V 8.536945 l 5.714194,7.021364 h 3.495751 z"
         style="fill:#263238;fill-opacity:1;fill-rule:nonzero;stroke:none"
         id="path52" /></g><g
       id="g54"
       transform="translate(106.29102,21.447266)"><path
         d="m 12.810923,2.737077 c -0.272005,0.265828 -0.445805,0.616058 -0.492993,0.99345 -0.0991,0.645039 -0.146558,1.296959 -0.141923,1.94955 v 3.167089 c 0.05075,1.501314 -0.135794,3.001228 -0.55275,4.444374 -0.281883,0.960559 -0.903001,1.786066 -1.74787,2.323028 -0.983619,0.507893 -2.083748,0.747494 -3.189492,0.694661 -0.990306,0.0029 -1.975231,-0.145731 -2.920593,-0.4407 C 2.921475,15.612846 2.128045,15.213603 1.419866,14.688341 L 1.830693,12.37279 c 0.65056,0.465072 1.368481,0.827801 2.128818,1.075605 0.63601,0.198117 1.298335,0.298858 1.964488,0.298788 0.924364,0.08071 1.845672,-0.185568 2.584461,-0.746954 C 9.053737,12.507239 9.322637,11.558605 9.322637,10.1618 7.084915,10.170202 4.869721,9.71496 2.816673,8.824759 2.123987,8.533289 1.513238,8.076584 1.037807,7.494576 0.562376,6.91257 0.236737,6.222971 0.089354,5.486055 -0.058029,4.749139 -0.022673,3.987344 0.192337,3.267248 0.407348,2.547153 0.795466,1.890684 1.322764,1.355219 1.788133,0.92315 2.33504,0.58828 2.931452,0.370237 3.527865,0.152193 4.161793,0.055351 4.796102,0.085388 5.711338,0.08263 6.615357,0.286789 7.440588,0.682589 8.26582,1.078389 8.990913,1.655602 9.561667,2.371077 9.742944,1.9023 9.994841,1.463997 10.308622,1.071372 10.613449,0.71481 11.015893,0.455171 11.466403,0.324418 12.146028,0.131098 12.851737,0.045406 13.557877,0.070457 h 0.224077 l 0.440712,2.285677 H 13.93882 C 13.52866,2.339128 13.126776,2.474861 12.810923,2.737077 Z M 9.352522,4.47748 C 8.88368,3.85428 8.28137,3.343847 7.589709,2.983573 6.903479,2.606115 6.132019,2.410684 5.348846,2.415892 4.708671,2.37991 4.078681,2.588126 3.586034,2.998515 3.356254,3.233784 3.179405,3.515439 3.067329,3.824615 2.955253,4.133789 2.910536,4.463339 2.936182,4.7912 2.907156,5.312667 3.033647,5.831011 3.299612,6.280492 3.565578,6.729973 3.959035,7.090346 4.43009,7.315907 5.426029,7.813877 7.061859,8.115142 9.33758,8.219716 Z"
         style="fill:#263238;fill-opacity:1;fill-rule:nonzero;stroke:none"
         id="path56" /></g><g
       id="g58"
       transform="translate(59.011719,17.375)"><path
         d="M -0.221889,5.301327 C -1.152742,5.178781 -1.808003,4.324832 -1.685457,3.39398 -1.562911,2.463128 -0.708963,1.807867 0.221889,1.930413 Z M 4.385925,2.478606 C 5.316777,2.601151 5.972039,3.4551 5.849493,4.385952 5.726947,5.316804 4.872999,5.972065 3.942146,5.84952 Z M 0.221889,1.930413 4.385925,2.478606 3.942146,5.84952 -0.221889,5.301327 Z"
         style="fill:#263238;fill-opacity:1;fill-rule:nonzero;stroke:none"
         id="path60" /></g><g
       id="g62"
       transform="translate(56.422852,37.033203)"><path
         d="M -0.221694,5.30135 C -1.15256,5.178911 -1.807921,4.325039 -1.685483,3.394173 -1.563045,2.463307 -0.709173,1.807946 0.221694,1.930384 Z M 4.389488,2.47858 C 5.320354,2.601018 5.975715,3.45489 5.853277,4.385756 5.730839,5.316623 4.876967,5.971983 3.9461,5.849545 Z M 0.221694,1.930384 4.389488,2.47858 3.9461,5.849545 -0.221694,5.30135 Z"
         style="fill:#263238;fill-opacity:1;fill-rule:nonzero;stroke:none"
         id="path64" /></g><g
       id="g66"
       transform="translate(55.776855,41.943359)"><path
         d="M -0.22189,5.301324 C -1.152742,5.178777 -1.808003,4.324829 -1.685457,3.393977 -1.56291,2.463125 -0.708962,1.807863 0.22189,1.93041 Z M 4.385931,2.478606 C 5.316784,2.601152 5.972045,3.455101 5.849498,4.385953 5.726952,5.316805 4.873003,5.972066 3.942151,5.849519 Z M 0.22189,1.93041 4.385931,2.478606 3.942151,5.849519 -0.22189,5.301324 Z"
         style="fill:#263238;fill-opacity:1;fill-rule:nonzero;stroke:none"
         id="path68" /></g><g
       id="g70"
       transform="translate(57.717773,27.203125)"><path
         d="M -0.221891,5.301321 C -1.152743,5.178773 -1.808004,4.324824 -1.685457,3.393972 -1.562909,2.46312 -0.708961,1.80786 0.221891,1.930407 Z M 4.385933,2.478606 C 5.316785,2.601153 5.972045,3.455102 5.849498,4.385954 5.726951,5.316806 4.873002,5.972066 3.94215,5.849519 Z M 0.221891,1.930407 4.385933,2.478606 3.94215,5.849519 -0.221891,5.301321 Z"
         style="fill:#263238;fill-opacity:1;fill-rule:nonzero;stroke:none"
         id="path72" /></g><g
       id="g74"
       transform="translate(58.36377,22.287109)"><path
         d="M -0.22189,5.301324 C -1.152742,5.178777 -1.808003,4.324829 -1.685457,3.393977 -1.56291,2.463125 -0.708962,1.807863 0.22189,1.93041 Z M 4.385931,2.478606 C 5.316784,2.601152 5.972045,3.455101 5.849498,4.385953 5.726952,5.316805 4.873003,5.972066 3.942151,5.849519 Z M 0.22189,1.93041 4.385931,2.478606 3.942151,5.849519 -0.22189,5.301324 Z"
         style="fill:#263238;fill-opacity:1;fill-rule:nonzero;stroke:none"
         id="path76" /></g><g
       id="g78"
       transform="translate(57.071289,32.113281)"><path
         d="M -0.223384,5.30323 C -1.154128,5.179858 -1.808631,4.325329 -1.685259,3.394586 -1.561888,2.463843 -0.707359,1.809339 0.223384,1.932711 Z M 4.38742,2.484663 C 5.318163,2.608034 5.972667,3.462563 5.849295,4.393306 5.725924,5.324049 4.871394,5.978553 3.940651,5.855181 Z M 0.223384,1.932711 4.38742,2.484663 3.940651,5.855181 -0.223384,5.30323 Z"
         style="fill:#263238;fill-opacity:1;fill-rule:nonzero;stroke:none"
         id="path80" /></g><g
       id="g82"
       transform="translate(1.700195,34.824219)"><path
         d="M 4.385929,2.478606 C 5.316781,2.601152 5.972042,3.455101 5.849495,4.385953 5.726948,5.316805 4.873,5.972066 3.942148,5.849519 Z M -0.22189,5.301324 C -1.152743,5.178777 -1.808004,4.324829 -1.685457,3.393976 -1.56291,2.463124 -0.708962,1.807863 0.22189,1.93041 Z M 3.942148,5.849519 -0.22189,5.301324 0.22189,1.93041 4.385929,2.478606 Z"
         style="fill:#263238;fill-opacity:1;fill-rule:nonzero;stroke:none"
         id="path84" /></g><g
       id="g86"
       transform="translate(4.286621,15.166016)"><path
         d="M 4.38593,2.478606 C 5.316782,2.601153 5.972042,3.455102 5.849495,4.385954 5.726948,5.316806 4.872999,5.972066 3.942147,5.849519 Z M -0.221892,5.301321 C -1.152744,5.178773 -1.808004,4.324824 -1.685457,3.393972 -1.562909,2.46312 -0.70896,1.80786 0.221892,1.930407 Z M 3.942147,5.849519 -0.221892,5.301321 0.221892,1.930407 4.38593,2.478606 Z"
         style="fill:#263238;fill-opacity:1;fill-rule:nonzero;stroke:none"
         id="path88" /></g><g
       id="g90"
       transform="translate(4.933105,10.253906)"><path
         d="M 4.389486,2.47858 C 5.320353,2.601019 5.975712,3.454891 5.853273,4.385757 5.730834,5.316624 4.876962,5.971984 3.946096,5.849545 Z M -0.221695,5.301346 C -1.152561,5.178907 -1.807921,4.325035 -1.685483,3.394169 -1.563044,2.463303 -0.709171,1.807943 0.221695,1.930381 Z M 3.946096,5.849545 -0.221695,5.301346 0.221695,1.930381 4.389486,2.47858 Z"
         style="fill:#263238;fill-opacity:1;fill-rule:nonzero;stroke:none"
         id="path92" /></g><g
       id="g94"
       transform="translate(2.995605,24.996094)"><path
         d="M 4.385926,2.478606 C 5.316778,2.601152 5.972039,3.455101 5.849493,4.385953 5.726946,5.316805 4.872997,5.972066 3.942145,5.849519 Z M -0.221891,5.301324 C -1.152743,5.178777 -1.808004,4.324829 -1.685457,3.393976 -1.56291,2.463124 -0.708962,1.807863 0.221891,1.93041 Z M 3.942145,5.849519 -0.221891,5.301324 0.221891,1.93041 4.385926,2.478606 Z"
         style="fill:#263238;fill-opacity:1;fill-rule:nonzero;stroke:none"
         id="path96" /></g><g
       id="g98"
       transform="translate(2.346191,29.912109)"><path
         d="M 4.385929,2.478606 C 5.316781,2.601152 5.972042,3.455101 5.849495,4.385953 5.726948,5.316805 4.873,5.972066 3.942148,5.849519 Z M -0.22189,5.301324 C -1.152743,5.178777 -1.808004,4.324829 -1.685457,3.393976 -1.56291,2.463124 -0.708962,1.807863 0.22189,1.93041 Z M 3.942148,5.849519 -0.22189,5.301324 0.22189,1.93041 4.385929,2.478606 Z"
         style="fill:#263238;fill-opacity:1;fill-rule:nonzero;stroke:none"
         id="path100" /></g><g
       id="g102"
       transform="translate(3.641113,20.082031)"><path
         d="M 4.385928,2.478606 C 5.31678,2.601151 5.972041,3.4551 5.849495,4.385952 5.726949,5.316804 4.873001,5.972065 3.942149,5.84952 Z M -0.221889,5.301327 C -1.152741,5.178781 -1.808003,4.324832 -1.685457,3.393981 -1.562911,2.463128 -0.708963,1.807867 0.221889,1.930413 Z M 3.942149,5.84952 -0.221889,5.301327 0.221889,1.930413 4.385928,2.478606 Z"
         style="fill:#263238;fill-opacity:1;fill-rule:nonzero;stroke:none"
         id="path104" /></g><g
       id="g106"
       transform="translate(15.501953,-1.917969)"><path
         d="M 1.685457,8.00314 C 1.56291,8.933992 0.708962,9.589253 -0.22189,9.466707 -1.152742,9.34416 -1.808003,8.490211 -1.685457,7.55936 Z M -1.137261,3.395319 C -1.014715,2.464466 -0.160766,1.809205 0.770086,1.931752 1.700938,2.054298 2.356199,2.908247 2.233653,3.839099 Z M -1.685457,7.55936 -1.137261,3.395319 2.233653,3.839099 1.685457,8.00314 Z"
         style="fill:#263238;fill-opacity:1;fill-rule:nonzero;stroke:none"
         id="path108" /></g><g
       id="g110"
       transform="translate(35.154785,0.671875)"><path
         d="M 1.685457,8.003141 C 1.562909,8.933993 0.708961,9.589254 -0.221891,9.466707 -1.152743,9.344159 -1.808004,8.490211 -1.685457,7.559359 Z M -1.137258,3.395317 C -1.014711,2.464465 -0.160762,1.809205 0.77009,1.931752 1.700942,2.054299 2.356203,2.908248 2.233655,3.8391 Z M -1.685457,7.559359 -1.137258,3.395317 2.233655,3.8391 1.685457,8.003141 Z"
         style="fill:#263238;fill-opacity:1;fill-rule:nonzero;stroke:none"
         id="path112" /></g><g
       id="g114"
       transform="translate(40.070312,1.316406)"><path
         d="M 1.685483,8.006851 C 1.563044,8.937717 0.709171,9.593078 -0.221695,9.470639 -1.152561,9.3482 -1.807921,8.494328 -1.685483,7.563461 Z M -1.137284,3.395667 C -1.014845,2.464801 -0.160973,1.809441 0.769894,1.93188 1.70076,2.054318 2.35612,2.908191 2.233681,3.839057 Z m -0.548199,4.167794 0.548199,-4.167794 3.370965,0.44339 -0.548198,4.167794 z"
         style="fill:#263238;fill-opacity:1;fill-rule:nonzero;stroke:none"
         id="path116" /></g><g
       id="g118"
       transform="translate(25.328613,-0.625)"><path
         d="M 1.685483,8.006851 C 1.563044,8.937717 0.709171,9.593078 -0.221695,9.470639 -1.152561,9.3482 -1.807921,8.494328 -1.685483,7.563461 Z M -1.137284,3.395667 C -1.014845,2.464801 -0.160973,1.809441 0.769894,1.93188 1.70076,2.054318 2.35612,2.908191 2.233681,3.839057 Z m -0.548199,4.167794 0.548199,-4.167794 3.370965,0.44339 -0.548198,4.167794 z"
         style="fill:#263238;fill-opacity:1;fill-rule:nonzero;stroke:none"
         id="path120" /></g><g
       id="g122"
       transform="translate(20.414062,-1.269531)"><path
         d="M 1.685457,8.003139 C 1.562911,8.933991 0.708963,9.589252 -0.221889,9.466707 -1.152741,9.344161 -1.808003,8.490213 -1.685457,7.559361 Z M -1.137264,3.395319 C -1.014718,2.464467 -0.16077,1.809206 0.770082,1.931751 1.700934,2.054297 2.356196,2.908246 2.23365,3.839097 Z M -1.685457,7.559361 -1.137264,3.395319 2.23365,3.839097 1.685457,8.003139 Z"
         style="fill:#263238;fill-opacity:1;fill-rule:nonzero;stroke:none"
         id="path124" /></g><g
       id="g126"
       transform="translate(30.244629,0.023438)"><path
         d="M 1.685457,8.003141 C 1.562909,8.933993 0.70896,9.589254 -0.221892,9.466706 -1.152744,9.344159 -1.808004,8.490211 -1.685457,7.559358 Z M -1.137258,3.395322 C -1.014711,2.46447 -0.160762,1.80921 0.77009,1.931757 1.700942,2.054305 2.356203,2.908254 2.233655,3.839106 Z M -1.685457,7.559358 -1.137258,3.395322 2.233655,3.839106 1.685457,8.003141 Z"
         style="fill:#263238;fill-opacity:1;fill-rule:nonzero;stroke:none"
         id="path128" /></g><g
       id="g130"
       transform="translate(47.47168,50.751953)"><path
         d="M -1.137258,3.395321 C -1.014711,2.464469 -0.160762,1.809209 0.77009,1.931756 1.700942,2.054304 2.356203,2.908252 2.233655,3.839104 Z m 2.822715,4.60782 C 1.562909,8.933993 0.70896,9.589254 -0.221892,9.466707 -1.152744,9.344159 -1.808004,8.490211 -1.685457,7.559359 Z M 2.233655,3.839104 1.685457,8.003141 -1.685457,7.559359 -1.137258,3.395321 Z"
         style="fill:#263238;fill-opacity:1;fill-rule:nonzero;stroke:none"
         id="path132" /></g><g
       id="g134"
       transform="translate(27.814453,48.164062)"><path
         d="M -1.137258,3.395321 C -1.014711,2.464469 -0.160762,1.809209 0.77009,1.931756 1.700942,2.054304 2.356203,2.908252 2.233655,3.839104 Z m 2.822715,4.60782 C 1.562909,8.933993 0.70896,9.589254 -0.221892,9.466707 -1.152744,9.344159 -1.808004,8.490211 -1.685457,7.559359 Z M 2.233655,3.839104 1.685457,8.003141 -1.685457,7.559359 -1.137258,3.395321 Z"
         style="fill:#263238;fill-opacity:1;fill-rule:nonzero;stroke:none"
         id="path136" /></g><g
       id="g138"
       transform="translate(22.899414,47.521484)"><path
         d="M -1.137258,3.395321 C -1.014711,2.464469 -0.160762,1.809209 0.77009,1.931756 1.700942,2.054304 2.356203,2.908252 2.233655,3.839104 Z m 2.822715,4.60782 C 1.562909,8.933993 0.70896,9.589254 -0.221892,9.466707 -1.152744,9.344159 -1.808004,8.490211 -1.685457,7.559359 Z M 2.233655,3.839104 1.685457,8.003141 -1.685457,7.559359 -1.137258,3.395321 Z"
         style="fill:#263238;fill-opacity:1;fill-rule:nonzero;stroke:none"
         id="path140" /></g><g
       id="g142"
       transform="translate(37.64209,49.455078)"><path
         d="M -1.137264,3.395323 C -1.014718,2.464471 -0.16077,1.80921 0.770082,1.931756 1.700934,2.054302 2.356196,2.90825 2.23365,3.839102 Z M 1.685457,8.003139 C 1.562911,8.933991 0.708963,9.589253 -0.221889,9.466707 -1.152742,9.344161 -1.808003,8.490212 -1.685457,7.559361 Z M 2.23365,3.839102 1.685457,8.003139 -1.685457,7.559361 -1.137264,3.395323 Z"
         style="fill:#263238;fill-opacity:1;fill-rule:nonzero;stroke:none"
         id="path144" /></g><g
       id="g146"
       transform="translate(42.556152,50.107422)"><path
         d="M -1.137264,3.395323 C -1.014718,2.464471 -0.16077,1.80921 0.770082,1.931756 1.700934,2.054302 2.356196,2.90825 2.23365,3.839102 Z M 1.685457,8.003139 C 1.562911,8.933991 0.708963,9.589253 -0.221889,9.466707 -1.152742,9.344161 -1.808003,8.490212 -1.685457,7.559361 Z M 2.23365,3.839102 1.685457,8.003139 -1.685457,7.559361 -1.137264,3.395323 Z"
         style="fill:#263238;fill-opacity:1;fill-rule:nonzero;stroke:none"
         id="path148" /></g><g
       id="g150"
       transform="translate(32.725098,48.8125)"><path
         d="M -1.137284,3.395669 C -1.014845,2.464802 -0.160973,1.809442 0.769894,1.931881 1.70076,2.05432 2.35612,2.908192 2.233681,3.839059 Z M 1.685483,8.006851 C 1.563044,8.937717 0.709171,9.593078 -0.221695,9.470638 -1.152561,9.3482 -1.807921,8.494328 -1.685483,7.563461 Z M 2.233681,3.839059 1.685483,8.006851 -1.685483,7.563461 -1.137284,3.395669 Z"
         style="fill:#263238;fill-opacity:1;fill-rule:nonzero;stroke:none"
         id="path152" /></g><g
       id="g154"
       transform="translate(3.416992,1.683594)"><path
         d="m 1.212752,47.820198 c 0,0 0.206513,0.161457 0.33793,0.274101 l 10.982694,8.921326 0.9462,-7.085243 35.568913,4.68219 c 1.772251,0.232795 3.379284,-0.833557 3.578289,-2.388027 l 0.886123,-6.736054 2.932476,-22.427219 1.501908,-11.309361 C 58.153797,10.201191 56.820854,9.288788 55.987297,8.635456 L 44.328743,-5.07e-4 43.393806,6.987118 8.917533,2.443848 C 7.145283,2.211052 5.538243,3.281158 5.339241,4.831879 L 0.011225,45.296997 c -0.044451,0.489681 0.043639,0.982308 0.255035,1.426235 0.211396,0.443932 0.538315,0.822827 0.946492,1.096966 z"
         style="fill:#5284c6;fill-opacity:1;fill-rule:nonzero;stroke:none"
         id="path156" /></g><g
       id="g158"
       transform="translate(42.132324,41.802734)"><path
         d="M 0.998769,1.348143 C 0.988407,1.386809 0.971927,1.423569 0.949955,1.457031 0.96266,1.391387 0.960838,1.323757 0.944622,1.258891 0.928405,1.194026 0.898187,1.133497 0.856086,1.081555 L 0,1.8e-4 1.265355,0.334354 Z"
         style="fill:#ffffff;fill-opacity:1;fill-rule:nonzero;stroke:none"
         id="path160" /></g><g
       id="g162"
       transform="translate(18.560547,16.097656)"><path
         d="M 30.537519,4.386425 29.287182,9.173752 27.034321,8.576746 c -0.03325,-0.00908 -0.06798,-0.011429 -0.102148,-0.00692 -0.03417,0.00451 -0.0671,0.015799 -0.09685,0.033197 -0.05961,0.036053 -0.102738,0.094008 -0.120156,0.161457 -0.009,0.032795 -0.01141,0.067067 -0.007,0.100796 0.0044,0.03373 0.0155,0.066235 0.03263,0.095617 0.01714,0.029381 0.03998,0.055045 0.06717,0.075478 0.02719,0.020433 0.0582,0.035225 0.09119,0.043509 l 2.252861,0.597005 -0.199003,0.750958 -1.340454,-0.349194 c -0.0672,-0.01791 -0.138758,-0.0085 -0.199002,0.02628 -0.05858,0.03545 -0.101514,0.09182 -0.120149,0.157703 -0.01615,0.06715 -0.0056,0.137957 0.02942,0.197489 0.03502,0.05953 0.09178,0.103151 0.158319,0.121666 l 1.340449,0.352949 -0.199002,0.750954 -1.34045,-0.352949 c -0.03325,-0.0091 -0.06798,-0.01143 -0.102154,-0.0069 -0.03417,0.0045 -0.06709,0.0158 -0.09685,0.0332 -0.05858,0.03545 -0.101521,0.09182 -0.120156,0.157701 -0.009,0.03329 -0.01128,0.06804 -0.0067,0.102223 0.0046,0.03418 0.01597,0.0671 0.03346,0.09682 0.01748,0.02973 0.04072,0.05566 0.06837,0.07629 0.02764,0.02062 0.05912,0.03552 0.0926,0.04382 l 1.336696,0.352945 -0.199003,0.750954 -1.340448,-0.352945 c -0.03289,-0.0084 -0.06715,-0.01011 -0.100699,-0.0049 -0.03356,0.0052 -0.06572,0.01706 -0.09455,0.03499 -0.0298,0.0166 -0.05586,0.03918 -0.07653,0.06631 -0.02068,0.02714 -0.03553,0.05825 -0.04362,0.09139 -0.0091,0.03304 -0.0115,0.06755 -0.0071,0.101528 0.0044,0.03398 0.01542,0.06677 0.03253,0.09645 0.01711,0.02968 0.03993,0.05567 0.06716,0.07648 0.02722,0.0208 0.0583,0.03599 0.09144,0.0447 l 1.340456,0.349193 -0.199004,0.750953 -1.340454,-0.352949 c -0.03264,-0.009 -0.06675,-0.01128 -0.100303,-0.0068 -0.03355,0.0045 -0.06584,0.01576 -0.09495,0.03305 -0.02995,0.01642 -0.05611,0.03894 -0.07681,0.0661 -0.0207,0.02717 -0.03546,0.05837 -0.04334,0.0916 -0.0091,0.03304 -0.0115,0.06755 -0.0071,0.101529 0.0044,0.03398 0.01541,0.06676 0.03252,0.09644 0.01711,0.02968 0.03994,0.05568 0.06717,0.07648 0.02722,0.0208 0.0583,0.036 0.09143,0.0447 l 1.340456,0.352946 -0.199003,0.750953 -2.252859,-0.593251 c -0.03264,-0.009 -0.06676,-0.01128 -0.100304,-0.0068 -0.03355,0.0045 -0.06584,0.01576 -0.09495,0.03305 -0.0304,0.01582 -0.05693,0.03816 -0.0777,0.06542 -0.02077,0.02726 -0.03526,0.05877 -0.04245,0.09228 -0.009,0.0328 -0.01141,0.06706 -0.007,0.100793 0.0044,0.03373 0.0155,0.06624 0.03264,0.09562 0.01714,0.02938 0.03998,0.05504 0.06717,0.07548 0.02719,0.02043 0.0582,0.03522 0.09119,0.04351 l 2.252861,0.59701 -0.199004,0.750952 -1.340448,-0.352948 c -0.03325,-0.0091 -0.06798,-0.01142 -0.102154,-0.0069 -0.03417,0.0045 -0.06709,0.0158 -0.09685,0.0332 -0.05858,0.03545 -0.101521,0.09182 -0.120156,0.157701 -0.009,0.03329 -0.01128,0.06804 -0.0067,0.102225 0.0046,0.03418 0.01597,0.06709 0.03346,0.09682 0.01749,0.02973 0.04073,0.05566 0.06837,0.07629 0.02764,0.02063 0.05912,0.03553 0.0926,0.04382 l 1.336695,0.352947 -0.199002,0.750954 -1.340448,-0.352947 c -0.03264,-0.009 -0.06676,-0.01128 -0.100304,-0.0068 -0.03355,0.0045 -0.06584,0.01576 -0.09495,0.03305 -0.05961,0.03605 -0.102737,0.094 -0.120155,0.161457 -0.009,0.0328 -0.01141,0.06706 -0.007,0.100792 0.0044,0.03373 0.0155,0.06624 0.03264,0.09562 0.01714,0.02938 0.03998,0.05504 0.06717,0.07547 0.02719,0.02043 0.0582,0.03523 0.09119,0.04351 l 1.340454,0.352947 -0.199007,0.750954 -1.340449,-0.352949 c -0.03264,-0.009 -0.06676,-0.01128 -0.100303,-0.0068 -0.03355,0.0045 -0.06584,0.01576 -0.09495,0.03305 -0.02995,0.01642 -0.05611,0.03894 -0.07681,0.0661 -0.0207,0.02717 -0.03546,0.05837 -0.04334,0.0916 -0.0091,0.03304 -0.0115,0.06755 -0.0071,0.101534 0.0044,0.03398 0.01541,0.06676 0.03252,0.09644 0.01711,0.02968 0.03994,0.05568 0.06716,0.07648 0.02723,0.0208 0.0583,0.03599 0.09143,0.0447 l 1.340454,0.352946 -0.199001,0.750953 -1.340454,-0.352945 c -0.0672,-0.01791 -0.138758,-0.0085 -0.199003,0.02628 -0.05961,0.03605 -0.102732,0.09401 -0.12015,0.161453 -0.01603,0.06667 -0.0054,0.136973 0.0297,0.195899 0.03507,0.05892 0.09179,0.10181 0.158043,0.119501 l 1.34045,0.352951 -0.199003,0.750951 -2.252859,-0.593252 c -0.0672,-0.01791 -0.138758,-0.0085 -0.199004,0.02628 -0.05858,0.03545 -0.101515,0.09181 -0.120149,0.157699 -0.01615,0.06715 -0.0056,0.137955 0.02942,0.197489 0.03502,0.05953 0.09178,0.103151 0.158323,0.121668 l 2.252861,0.597006 -0.195249,0.750953 -1.340456,-0.352949 c -0.03325,-0.0091 -0.06798,-0.01142 -0.102148,-0.0069 -0.03417,0.0045 -0.0671,0.0158 -0.09685,0.0332 -0.05858,0.03545 -0.101515,0.09182 -0.120149,0.157704 -0.0091,0.03304 -0.0115,0.06755 -0.0071,0.101528 0.0044,0.03398 0.01541,0.06677 0.03252,0.09645 0.01711,0.02968 0.03993,0.05568 0.06716,0.07647 0.02722,0.0208 0.0583,0.036 0.09144,0.0447 l 1.340456,0.352951 -0.199004,0.750951 -1.340454,-0.349191 c -0.03264,-0.009 -0.06675,-0.01128 -0.100303,-0.0068 -0.03355,0.0045 -0.06584,0.01576 -0.09494,0.03305 -0.0304,0.01582 -0.05694,0.03816 -0.07771,0.06542 -0.02077,0.02726 -0.03526,0.05877 -0.04245,0.09228 -0.0091,0.03304 -0.0115,0.06755 -0.0071,0.10153 0.0044,0.03398 0.01541,0.06677 0.03252,0.09645 0.01711,0.02968 0.03994,0.05567 0.06717,0.07647 0.02722,0.0208 0.0583,0.03599 0.09144,0.0447 l 1.340448,0.35295 -0.199003,0.750953 -1.340448,-0.352949 c -0.03264,-0.009 -0.06676,-0.01128 -0.10031,-0.0068 -0.03355,0.0045 -0.06584,0.01576 -0.09494,0.03305 -0.06052,0.03412 -0.105072,0.09082 -0.123907,0.1577 v 0 c -0.014,0.06607 -0.0024,0.134983 0.03244,0.192829 0.03485,0.05785 0.09035,0.100311 0.155294,0.118818 l 0.0751,0.01877 0.856084,1.081372 c 0.0421,0.05194 0.07232,0.112472 0.08854,0.177337 0.01622,0.06487 0.01803,0.132496 0.0053,0.19814 -0.02029,0.115287 -0.08164,0.219326 -0.172717,0.292871 l -2.478149,1.963745 c -0.09833,0.07653 -0.222897,0.111181 -0.346628,0.09642 -0.123732,-0.01476 -0.236641,-0.07775 -0.314207,-0.175269 L 12.961457,18.876072 2.737222,27.038937 C 2.637431,27.117067 2.51082,27.152618 2.384944,27.13785 2.259068,27.123083 2.14412,27.059193 2.065122,26.960087 L 0.112644,24.493204 C 0.060328,24.428963 0.026414,24.351738 0.014512,24.269749 0.002611,24.187761 0.013168,24.104078 0.045058,24.027615 0.072548,23.9459 0.123475,23.874077 0.191494,23.821102 l 1.340452,-1.062601 c 0.03594,-0.0229 0.065474,-0.05455 0.085833,-0.09198 0.02036,-0.03743 0.030877,-0.07943 0.030563,-0.12204 0.00102,-0.03447 -0.00496,-0.0688 -0.017569,-0.100898 -0.012611,-0.0321 -0.031597,-0.06131 -0.055809,-0.08588 -0.024212,-0.02456 -0.053147,-0.04397 -0.085063,-0.05704 -0.031917,-0.01307 -0.066153,-0.01954 -0.100638,-0.01902 H 0.003756 V 21.50065 h 1.385507 c 0.05179,0.0011 0.102717,-0.01339 0.1462,-0.04155 0.043483,-0.02816 0.077526,-0.0687 0.097737,-0.116394 0.02021,-0.0477 0.025659,-0.100359 0.015641,-0.151184 -0.010018,-0.05082 -0.035042,-0.09748 -0.07184,-0.133936 -0.023905,-0.02469 -0.052483,-0.04437 -0.084069,-0.05791 -0.031587,-0.01354 -0.06555,-0.02065 -0.099914,-0.02094 h -1.38551 v -0.780993 h 1.38551 c 0.068712,0 0.134611,-0.02729 0.183198,-0.07588 0.048587,-0.04859 0.075882,-0.114483 0.075882,-0.183195 8.56e-4,-0.03419 -0.00538,-0.06819 -0.018299,-0.09985 -0.012924,-0.03166 -0.032263,-0.0603 -0.056798,-0.08413 C 1.553362,19.729652 1.524837,19.70974 1.49319,19.696177 1.461543,19.682613 1.427449,19.67569 1.393018,19.675838 h -1.38551 v -0.780994 h 2.342974 c 0.034337,5e-4 0.068436,-0.0058 0.100303,-0.01863 0.031868,-0.0128 0.06087,-0.0318 0.085327,-0.05591 0.024457,-0.02411 0.043879,-0.05284 0.057133,-0.08452 0.013254,-0.03168 0.020079,-0.06568 0.020075,-0.100019 -7.66e-4,-0.06864 -0.027618,-0.134415 -0.0751,-0.183987 -0.049194,-0.04854 -0.114904,-0.0767 -0.18398,-0.07885 H 0.011264 v -0.784744 h 1.38551 c 0.068712,0 0.134608,-0.02729 0.183195,-0.07588 0.048586,-0.04859 0.075885,-0.114486 0.075885,-0.183199 0.00133,-0.03425 -0.00469,-0.06838 -0.017641,-0.100116 C 1.625261,17.197258 1.60567,17.168663 1.580757,17.145124 1.557259,17.119911 1.528759,17.099873 1.49708,17.086296 1.4654,17.07272 1.431238,17.065901 1.396774,17.066275 H 0 v -0.780993 h 1.38551 c 0.034337,4.98e-4 0.06843,-0.0058 0.100297,-0.01863 0.031868,-0.0128 0.060873,-0.0318 0.08533,-0.05591 0.024457,-0.02411 0.043879,-0.05283 0.057133,-0.08452 C 1.641524,16.094542 1.648346,16.060542 1.648342,16.0262 1.647576,15.957565 1.62073,15.89179 1.573248,15.84222 1.549158,15.818041 1.520462,15.798937 1.488861,15.786038 1.45726,15.77314 1.423392,15.76671 1.389263,15.767126 H 0.003756 v -0.780992 h 1.385507 c 0.034337,4.97e-4 0.068432,-0.0058 0.1003,-0.01863 0.031867,-0.0128 0.060873,-0.0318 0.08533,-0.05591 0.024456,-0.02411 0.043875,-0.05284 0.05713,-0.08452 0.013254,-0.03168 0.020079,-0.06568 0.020075,-0.100019 5.06e-4,-0.03416 -0.00585,-0.06808 -0.018692,-0.09974 C 1.620565,14.595651 1.601501,14.56689 1.577342,14.54273 1.553183,14.518571 1.524421,14.499506 1.49276,14.486666 1.461098,14.473825 1.427181,14.46747 1.393018,14.467977 h -1.38551 v -0.780993 h 1.38551 c 0.051471,3.15e-4 0.101869,-0.01471 0.144766,-0.04316 0.042896,-0.02845 0.076347,-0.06902 0.096086,-0.11656 0.01974,-0.04753 0.024873,-0.09987 0.014745,-0.15034 -0.010129,-0.05046 -0.035061,-0.09677 -0.071614,-0.133007 -0.049137,-0.04814 -0.115191,-0.07511 -0.183983,-0.0751 h -1.38551 v -0.78099 h 2.342974 c 0.034337,4.97e-4 0.068436,-0.0058 0.100303,-0.01863 0.031868,-0.0128 0.06087,-0.0318 0.085327,-0.05591 0.024457,-0.02411 0.043879,-0.05284 0.057133,-0.08452 0.013254,-0.03168 0.020079,-0.06568 0.020075,-0.100019 1e-5,-0.06879 -0.026955,-0.134846 -0.0751,-0.183983 -0.023905,-0.02469 -0.05248,-0.04438 -0.084066,-0.05791 -0.031586,-0.01354 -0.06555,-0.02065 -0.099914,-0.02094 H 0.011264 v -0.780993 h 1.38551 c 0.068712,0 0.134608,-0.02729 0.183195,-0.07588 0.048586,-0.04858 0.075885,-0.114484 0.075885,-0.183197 8.55e-4,-0.03419 -0.00538,-0.06818 -0.0183,-0.09985 -0.012924,-0.03166 -0.032263,-0.06031 -0.056797,-0.08413 -0.023639,-0.02503 -0.052165,-0.04495 -0.083812,-0.05851 -0.031647,-0.01356 -0.065741,-0.02048 -0.100171,-0.02034 H 0.011264 V 9.782018 h 1.38551 C 1.431111,9.78252 1.465204,9.776188 1.497071,9.763391 1.528939,9.750595 1.557944,9.731592 1.582401,9.707485 1.606858,9.683378 1.626279,9.654646 1.639534,9.622965 1.652788,9.591286 1.65961,9.557289 1.659606,9.522949 1.659616,9.454157 1.632657,9.3881 1.584512,9.338963 1.560607,9.314276 1.532029,9.294588 1.500443,9.281052 1.468856,9.267515 1.434893,9.260395 1.400529,9.260111 H 0.015019 V 8.475367 h 1.38551 C 1.469299,8.474424 1.535044,8.446943 1.584025,8.398663 1.633006,8.35038 1.661431,8.285036 1.663362,8.216286 1.663078,8.181923 1.655961,8.147959 1.642424,8.116373 1.628887,8.084785 1.6092,8.056211 1.584512,8.032307 1.561014,8.007092 1.532515,7.987055 1.500835,7.973476 1.469156,7.9599 1.434994,7.953079 1.400529,7.953453 H 0.015019 V 7.172461 h 1.38551 C 1.434867,7.172958 1.468959,7.166626 1.500827,7.15383 1.532694,7.141033 1.5617,7.12203 1.586156,7.097923 1.610613,7.073814 1.630032,7.045084 1.643286,7.013403 1.65654,6.981724 1.663365,6.947721 1.663362,6.913382 1.663778,6.879251 1.657345,6.84539 1.644446,6.813789 1.631548,6.782187 1.612447,6.753492 1.588268,6.729401 1.564442,6.704866 1.535796,6.685524 1.504133,6.672602 1.472469,6.659678 1.438471,6.653452 1.404282,6.654306 H 0.018775 V 5.873316 H 2.361746 C 2.396083,5.873812 2.430182,5.867479 2.462049,5.854683 2.493917,5.841887 2.522919,5.822878 2.547376,5.798771 2.571833,5.774664 2.591254,5.745932 2.604509,5.714252 2.617763,5.682571 2.624588,5.648577 2.624584,5.614235 2.625602,5.57976 2.619624,5.545437 2.607012,5.513336 2.594401,5.481236 2.575415,5.452023 2.551203,5.42746 2.526991,5.402897 2.498056,5.38349 2.46614,5.370419 2.434223,5.357346 2.39999,5.35088 2.365504,5.351402 H 0.022528 V 0.402617 C 0.025162,0.299795 0.066771,0.201818 0.138927,0.128519 0.174695,0.090986 0.217848,0.061266 0.265669,0.041233 0.313489,0.0212 0.364939,0.01129 0.416779,0.012123 l 3.908714,0.018774 c 0.099583,0 0.195087,0.03956 0.265502,0.109976 0.070416,0.070415 0.109975,0.165918 0.109975,0.265501 l -0.090117,19.855207 8.572134,-6.788619 c 0.09979,-0.07813 0.226402,-0.11368 0.352278,-0.09891 0.125876,0.01477 0.240824,0.07866 0.319822,0.177764 l 0.514407,0.649573 1.438076,1.817311 5.061426,6.383104 5.053913,-19.209389 c 0.01188,-0.050302 0.03402,-0.097614 0.06504,-0.138965 0.03101,-0.04135 0.07023,-0.075846 0.115195,-0.10134 0.04423,-0.026241 0.09339,-0.043117 0.144413,-0.049575 0.05103,-0.00646 0.102833,-0.00237 0.15221,0.012026 l 3.777294,0.991258 c 0.100392,0.026745 0.18652,0.091339 0.240305,0.180227 0.04115,0.037947 0.0733,0.084614 0.09409,0.136588 0.02079,0.051971 0.0297,0.107936 0.02607,0.163795 z M 2.425582,2.276247 C 2.283191,2.275894 2.143883,2.317715 2.025231,2.396437 1.90658,2.475159 1.813898,2.587254 1.758875,2.718586 1.703853,2.849916 1.688956,2.994602 1.71606,3.13439 1.743165,3.274178 1.811056,3.402809 1.911175,3.504057 1.994602,3.588427 2.097564,3.650894 2.210924,3.685928 2.324285,3.720964 2.444542,3.727478 2.561023,3.704893 2.677504,3.682308 2.786611,3.631321 2.878662,3.556458 2.970714,3.481594 3.042862,3.385168 3.088711,3.275732 3.134559,3.166298 3.152687,3.047241 3.141489,2.929121 3.130291,2.810999 3.09011,2.697464 3.024513,2.598597 2.958917,2.499727 2.869931,2.418579 2.765451,2.362347 2.660971,2.306116 2.544232,2.276541 2.425582,2.276247 Z M 28.228334,5.948408 C 28.181311,5.866055 28.118177,5.794018 28.0427,5.736603 27.96722,5.679186 27.880945,5.637571 27.789028,5.614235 27.604736,5.573948 27.412035,5.604496 27.249239,5.699808 27.086445,5.79512 26.965485,5.94821 26.910414,6.128635 c -0.02431,0.091185 -0.03019,0.186303 -0.0173,0.279787 0.0129,0.093483 0.0443,0.183457 0.09239,0.264655 0.0465,0.082763 0.109482,0.15512 0.185039,0.212597 0.07556,0.057476 0.162093,0.098852 0.254267,0.121576 0.09118,0.024313 0.186302,0.030197 0.279787,0.017303 0.09348,-0.012895 0.183462,-0.044309 0.26466,-0.092397 0.08276,-0.046503 0.155115,-0.109475 0.212591,-0.185034 0.05748,-0.075558 0.09886,-0.162098 0.121582,-0.254273 0.02431,-0.091184 0.03019,-0.186302 0.0173,-0.279785 -0.0129,-0.093485 -0.04431,-0.183456 -0.0924,-0.264656 v 0 z"
         style="fill:#ffffff;fill-opacity:1;fill-rule:nonzero;stroke:none"
         id="path164" /></g></g></svg>
